<svg width="6" height="4" viewBox="0 0 6 4" fill="none" xmlns="http://www.w3.org/2000/svg">
<path d="M2.79494 3.89225C2.81788 3.92556 2.84857 3.9528 2.88436 3.97161C2.92016 3.99043 2.96 4.00026 3.00044 4.00026C3.04088 4.00026 3.08072 3.99043 3.11652 3.97161C3.15232 3.9528 3.18301 3.92556 3.20594 3.89225L5.45594 0.64225C5.48199 0.604764 5.49726 0.560858 5.5001 0.515302C5.50294 0.469745 5.49325 0.424281 5.47206 0.383849C5.45088 0.343416 5.41902 0.309562 5.37995 0.285965C5.34088 0.262367 5.29609 0.249928 5.25044 0.25H0.750442C0.704903 0.250188 0.660276 0.262787 0.621362 0.286441C0.582448 0.310095 0.550718 0.34391 0.529584 0.384249C0.508451 0.424587 0.498713 0.469924 0.501419 0.515383C0.504125 0.560842 0.519172 0.604703 0.544942 0.64225L2.79494 3.89225Z" fill="#0498CE"/>
</svg>
