<svg width="18" height="12" viewBox="0 0 18 12" fill="none" xmlns="http://www.w3.org/2000/svg">
<path fill-rule="evenodd" clip-rule="evenodd" d="M0.25 5.99993C0.25 5.83417 0.315848 5.6752 0.433058 5.55799C0.550268 5.44078 0.70924 5.37493 0.875 5.37493H15.6162L11.6825 1.44244C11.5651 1.32508 11.4992 1.1659 11.4992 0.999935C11.4992 0.833965 11.5651 0.674793 11.6825 0.557435C11.7999 0.440077 11.959 0.374146 12.125 0.374146C12.291 0.374146 12.4501 0.440077 12.5675 0.557435L17.5675 5.55743C17.6257 5.61549 17.6719 5.68446 17.7034 5.76039C17.7349 5.83632 17.7511 5.91773 17.7511 5.99993C17.7511 6.08214 17.7349 6.16354 17.7034 6.23948C17.6719 6.31541 17.6257 6.38438 17.5675 6.44243L12.5675 11.4424C12.4501 11.5598 12.291 11.6257 12.125 11.6257C11.959 11.6257 11.7999 11.5598 11.6825 11.4424C11.5651 11.3251 11.4992 11.1659 11.4992 10.9999C11.4992 10.834 11.5651 10.6748 11.6825 10.5574L15.6162 6.62493H0.875C0.70924 6.62493 0.550268 6.55909 0.433058 6.44188C0.315848 6.32467 0.25 6.16569 0.25 5.99993Z" fill="white"/>
</svg>
