<svg width="20" height="20" viewBox="0 0 20 20" fill="none" xmlns="http://www.w3.org/2000/svg">
<path d="M13.3337 1.66651C14.307 1.66644 15.2592 1.95044 16.0734 2.48368C16.8876 3.01692 17.5285 3.77621 17.9175 4.66842C18.3064 5.56063 18.4265 6.54697 18.263 7.50644C18.0995 8.46591 17.6595 9.35681 16.997 10.0698L16.8387 10.2315L9.56618 17.504L9.52202 17.5457L9.47535 17.5832C8.88292 18.0939 8.11937 18.3619 7.3377 18.3334C6.55604 18.3049 5.81402 17.982 5.26036 17.4295C4.70669 16.877 4.38229 16.1357 4.35215 15.3541C4.32201 14.5725 4.58837 13.8083 5.09785 13.2148L5.22202 13.0782L5.23452 13.069L11.3095 6.98234C11.4657 6.82586 11.6776 6.73782 11.8986 6.73759C12.1197 6.73736 12.3318 6.82494 12.4883 6.98109C12.6447 7.13724 12.7328 7.34915 12.733 7.57021C12.7333 7.79127 12.6457 8.00336 12.4895 8.15984L6.41452 14.2465L6.40452 14.2532C6.15932 14.515 6.02116 14.8592 6.01727 15.2179C6.01339 15.5766 6.14407 15.9238 6.38354 16.1909C6.62301 16.4579 6.95387 16.6256 7.31087 16.6607C7.66787 16.6959 8.02507 16.5959 8.31202 16.3807L8.41368 16.2973L8.41452 16.2982L15.6662 9.04817L15.7987 8.91068C16.3821 8.26939 16.6927 7.42603 16.6647 6.55951C16.6366 5.693 16.272 4.87152 15.6483 4.26936C15.0245 3.6672 14.1907 3.33175 13.3238 3.33417C12.4568 3.3366 11.6249 3.67671 11.0045 4.28234L10.8754 4.41567L10.8604 4.42567L3.08868 12.2007C3.01126 12.278 2.91935 12.3394 2.81821 12.3813C2.71707 12.4231 2.60868 12.4446 2.49922 12.4446C2.38977 12.4446 2.28139 12.423 2.18028 12.381C2.07917 12.3391 1.98731 12.2777 1.90993 12.2003C1.83256 12.1228 1.7712 12.0309 1.72935 11.9298C1.6875 11.8286 1.66598 11.7203 1.66602 11.6108C1.66609 11.3897 1.75398 11.1778 1.91035 11.0215L9.66702 3.26068L9.70535 3.22484C10.1722 2.73179 10.7348 2.33925 11.3587 2.07129C11.9826 1.80333 12.6547 1.66559 13.3337 1.66651Z" fill="white"/>
</svg>
