<svg width="18" height="28" viewBox="0 0 18 28" fill="none" xmlns="http://www.w3.org/2000/svg">
<path fill-rule="evenodd" clip-rule="evenodd" d="M8.99979 0.875C9.24843 0.875 9.48689 0.973772 9.66271 1.14959C9.83852 1.3254 9.93729 1.56386 9.93729 1.8125L9.93729 23.9244L15.836 18.0238C16.0121 17.8477 16.2508 17.7488 16.4998 17.7488C16.7487 17.7488 16.9875 17.8477 17.1635 18.0238C17.3396 18.1998 17.4385 18.4385 17.4385 18.6875C17.4385 18.9365 17.3396 19.1752 17.1635 19.3512L9.66354 26.8512C9.57646 26.9386 9.473 27.0078 9.3591 27.0551C9.24521 27.1023 9.12311 27.1267 8.99979 27.1267C8.87648 27.1267 8.75438 27.1023 8.64048 27.0551C8.52658 27.0078 8.42313 26.9386 8.33604 26.8512L0.836044 19.3512C0.660007 19.1752 0.561111 18.9365 0.561111 18.6875C0.561111 18.4385 0.660007 18.1998 0.836044 18.0237C1.01208 17.8477 1.25084 17.7488 1.49979 17.7488C1.74875 17.7488 1.98751 17.8477 2.16354 18.0237L8.06229 23.9244L8.06229 1.8125C8.06229 1.56386 8.16107 1.3254 8.33688 1.14959C8.5127 0.973772 8.75115 0.875 8.99979 0.875Z" fill="#2E3831"/>
</svg>
