<svg width="40" height="40" viewBox="0 0 40 40" xmlns="http://www.w3.org/2000/svg">
<path d="M5 20H20V22.5H5V20Z"/>
<path d="M2.5 13.75H15V16.25H2.5V13.75Z"/>
<path d="M37.3989 20.7575L33.6489 12.0075C33.5527 11.7826 33.3925 11.5909 33.1883 11.4562C32.9841 11.3216 32.7448 11.2499 32.5002 11.25H28.7502V8.75C28.7502 8.41848 28.6185 8.10054 28.3841 7.86612C28.1496 7.6317 27.8317 7.5 27.5002 7.5H7.50017V10H26.2502V25.695C25.6806 26.0257 25.1821 26.466 24.7835 26.9903C24.3849 27.5146 24.094 28.1127 23.9277 28.75H16.0727C15.7684 27.5717 15.0449 26.5448 14.0377 25.8617C13.0304 25.1787 11.8087 24.8865 10.6014 25.0399C9.39416 25.1932 8.28426 25.7816 7.47977 26.6947C6.67529 27.6078 6.23145 28.783 6.23145 30C6.23145 31.217 6.67529 32.3922 7.47977 33.3053C8.28426 34.2184 9.39416 34.8068 10.6014 34.9601C11.8087 35.1135 13.0304 34.8213 14.0377 34.1383C15.0449 33.4552 15.7684 32.4283 16.0727 31.25H23.9277C24.1996 32.3228 24.8215 33.2743 25.6949 33.954C26.5683 34.6336 27.6434 35.0027 28.7502 35.0027C29.8569 35.0027 30.932 34.6336 31.8054 33.954C32.6789 33.2743 33.3007 32.3228 33.5727 31.25H36.2502C36.5817 31.25 36.8996 31.1183 37.1341 30.8839C37.3685 30.6495 37.5002 30.3315 37.5002 30V21.25C37.5002 21.0807 37.4658 20.9131 37.3989 20.7575ZM11.2502 32.5C10.7557 32.5 10.2724 32.3534 9.86125 32.0787C9.45013 31.804 9.12969 31.4135 8.94047 30.9567C8.75126 30.4999 8.70175 29.9972 8.79821 29.5123C8.89467 29.0273 9.13278 28.5819 9.48241 28.2322C9.83204 27.8826 10.2775 27.6445 10.7624 27.548C11.2474 27.4516 11.7501 27.5011 12.2069 27.6903C12.6637 27.8795 13.0541 28.1999 13.3288 28.6111C13.6036 29.0222 13.7502 29.5055 13.7502 30C13.7495 30.6628 13.4859 31.2983 13.0172 31.767C12.5485 32.2357 11.913 32.4993 11.2502 32.5ZM28.7502 13.75H31.6752L34.3552 20H28.7502V13.75ZM28.7502 32.5C28.2557 32.5 27.7724 32.3534 27.3612 32.0787C26.9501 31.804 26.6297 31.4135 26.4405 30.9567C26.2513 30.4999 26.2017 29.9972 26.2982 29.5123C26.3947 29.0273 26.6328 28.5819 26.9824 28.2322C27.332 27.8826 27.7775 27.6445 28.2624 27.548C28.7474 27.4516 29.2501 27.5011 29.7069 27.6903C30.1637 27.8795 30.5541 28.1999 30.8288 28.6111C31.1035 29.0222 31.2502 29.5055 31.2502 30C31.2495 30.6628 30.9859 31.2983 30.5172 31.767C30.0485 32.2357 29.413 32.4993 28.7502 32.5ZM35.0002 28.75H33.5727C33.2973 27.6793 32.6745 26.7302 31.8017 26.0516C30.929 25.3729 29.8557 25.0031 28.7502 25V22.5H35.0002V28.75Z" />
</svg>
