<svg width="34" height="34" viewBox="0 0 34 34"  xmlns="http://www.w3.org/2000/svg">
<path fill-rule="evenodd" clip-rule="evenodd" d="M10.5767 1.51C12.2385 1.4335 12.7683 1.4165 17.0013 1.4165C21.2343 1.4165 21.7641 1.43492 23.4245 1.51C25.0848 1.58509 26.2181 1.85 27.2098 2.23392C28.2482 2.62634 29.1903 3.23975 29.9695 4.03309C30.7628 4.81084 31.3748 5.7515 31.7658 6.79134C32.1511 7.783 32.4146 8.91634 32.4911 10.5738C32.5676 12.2384 32.5846 12.7683 32.5846 16.9998C32.5846 21.2328 32.5662 21.7627 32.4911 23.4244C32.4161 25.0819 32.1511 26.2153 31.7658 27.2069C31.3748 28.2469 30.7618 29.1891 29.9695 29.968C29.1903 30.7613 28.2482 31.3733 27.2098 31.7643C26.2181 32.1497 25.0848 32.4132 23.4273 32.4897C21.7641 32.5662 21.2343 32.5832 17.0013 32.5832C12.7683 32.5832 12.2385 32.5648 10.5767 32.4897C8.91922 32.4146 7.78589 32.1497 6.79422 31.7643C5.75427 31.3733 4.81205 30.7603 4.03314 29.968C3.24034 29.1898 2.62683 28.248 2.23539 27.2083C1.85147 26.2167 1.58797 25.0833 1.51147 23.4258C1.43497 21.7613 1.41797 21.2314 1.41797 16.9998C1.41797 12.7668 1.43639 12.237 1.51147 10.5767C1.58655 8.91634 1.85147 7.783 2.23539 6.79134C2.62741 5.75162 3.24139 4.80986 4.03455 4.03167C4.81236 3.23905 5.75364 2.62555 6.7928 2.23392C7.78447 1.85 8.9178 1.5865 10.5753 1.51H10.5767ZM23.2984 4.315C21.6551 4.23992 21.1621 4.22434 17.0013 4.22434C12.8406 4.22434 12.3476 4.23992 10.7042 4.315C9.18413 4.38442 8.35964 4.638 7.80997 4.85192C7.08322 5.13525 6.5633 5.471 6.01789 6.01642C5.50087 6.51941 5.10297 7.13174 4.85339 7.8085C4.63947 8.35817 4.38589 9.18267 4.31647 10.7028C4.24139 12.3461 4.2258 12.8391 4.2258 16.9998C4.2258 21.1606 4.24139 21.6536 4.31647 23.2969C4.38589 24.817 4.63947 25.6415 4.85339 26.1912C5.10272 26.8669 5.5008 27.4803 6.01789 27.9833C6.5208 28.5003 7.13422 28.8984 7.80997 29.1478C8.35964 29.3617 9.18413 29.6153 10.7042 29.6847C12.3476 29.7598 12.8391 29.7753 17.0013 29.7753C21.1635 29.7753 21.6551 29.7598 23.2984 29.6847C24.8185 29.6153 25.643 29.3617 26.1926 29.1478C26.9194 28.8644 27.4393 28.5287 27.9847 27.9833C28.5018 27.4803 28.8999 26.8669 29.1492 26.1912C29.3631 25.6415 29.6167 24.817 29.6861 23.2969C29.7612 21.6536 29.7768 21.1606 29.7768 16.9998C29.7768 12.8391 29.7612 12.3461 29.6861 10.7028C29.6167 9.18267 29.3631 8.35817 29.1492 7.8085C28.8659 7.08175 28.5301 6.56184 27.9847 6.01642C27.4817 5.49944 26.8694 5.10155 26.1926 4.85192C25.643 4.638 24.8185 4.38442 23.2984 4.315ZM15.0109 21.8038C16.1225 22.2665 17.3603 22.3289 18.5128 21.9804C19.6653 21.632 20.6611 20.8941 21.3301 19.893C21.9991 18.8919 22.2997 17.6896 22.1807 16.4914C22.0617 15.2932 21.5304 14.1735 20.6776 13.3236C20.1339 12.7803 19.4765 12.3642 18.7528 12.1055C18.029 11.8467 17.2569 11.7516 16.492 11.827C15.7271 11.9025 14.9884 12.1466 14.3292 12.5418C13.6699 12.937 13.1065 13.4734 12.6795 14.1125C12.2524 14.7515 11.9724 15.4773 11.8595 16.2376C11.7467 16.9979 11.8038 17.7738 12.0267 18.5093C12.2497 19.2449 12.633 19.9219 13.149 20.4915C13.665 21.0612 14.3009 21.5093 15.0109 21.8038ZM11.3375 11.336C12.0813 10.5922 12.9643 10.0022 13.9361 9.59968C14.9079 9.19715 15.9494 8.98997 17.0013 8.98997C18.0532 8.98997 19.0947 9.19715 20.0665 9.59968C21.0383 10.0022 21.9214 10.5922 22.6651 11.336C23.4089 12.0798 23.9989 12.9628 24.4015 13.9346C24.804 14.9064 25.0112 15.948 25.0112 16.9998C25.0112 18.0517 24.804 19.0933 24.4015 20.0651C23.9989 21.0369 23.4089 21.9199 22.6651 22.6637C21.163 24.1658 19.1257 25.0097 17.0013 25.0097C14.877 25.0097 12.8396 24.1658 11.3375 22.6637C9.83533 21.1615 8.99143 19.1242 8.99143 16.9998C8.99143 14.8755 9.83533 12.8381 11.3375 11.336ZM26.7876 10.1828C26.972 10.009 27.1195 9.79988 27.2216 9.56797C27.3236 9.33605 27.3781 9.08601 27.3818 8.83265C27.3855 8.5793 27.3383 8.32778 27.2431 8.09298C27.1478 7.85819 27.0064 7.64489 26.8272 7.46573C26.6481 7.28656 26.4348 7.14516 26.2 7.0499C25.9652 6.95465 25.7137 6.90747 25.4603 6.91116C25.207 6.91486 24.9569 6.96935 24.725 7.07141C24.4931 7.17347 24.284 7.32102 24.1101 7.50534C23.772 7.8638 23.5869 8.33993 23.594 8.83265C23.6012 9.32538 23.8002 9.79592 24.1486 10.1444C24.4971 10.4928 24.9676 10.6917 25.4603 10.6989C25.953 10.7061 26.4292 10.521 26.7876 10.1828Z"/>
</svg>
