<svg width="45" height="45" viewBox="0 0 45 45" xmlns="http://www.w3.org/2000/svg">
<path d="M34.1941 11.1006C31.8692 7.16151 28.5685 3.88783 24.6104 1.59527L23.9062 1.18799L23.2021 1.59527C19.1766 3.91841 15.8341 7.26077 13.5106 11.286C11.1872 15.3113 9.96496 19.8775 9.9668 24.5252C9.9668 24.828 9.97207 25.1355 9.98236 25.4393C10.1223 29.5575 11.6972 33.0228 14.5368 35.4604C16.7099 37.3259 19.4972 38.4647 22.5003 38.7364V43.5938H25.3128V21.0938H22.5V35.9058C17.7483 35.3554 13.019 31.9987 12.793 25.3437C12.7837 25.0717 12.7789 24.7963 12.7789 24.5252C12.7873 20.5121 13.8122 16.5665 15.758 13.0566C17.7038 9.54679 20.5071 6.58709 23.9062 4.45374C27.3053 6.58713 30.1085 9.54685 32.0543 13.0567C34 16.5666 35.0249 20.5121 35.0332 24.5252C35.0332 24.7963 35.0285 25.0717 35.0191 25.3438C34.8384 30.6676 31.7754 33.8803 28.1246 35.2346V38.2112C30.0191 37.6743 31.7758 36.736 33.2757 35.4602C36.1153 33.0226 37.6902 29.5573 37.8301 25.4392C37.8404 25.1355 37.8457 24.8279 37.8457 24.5251C37.8482 19.8046 36.5874 15.1695 34.1941 11.1006Z"/>
</svg>
