<svg width="139" height="29" viewBox="0 0 139 29" fill="none" xmlns="http://www.w3.org/2000/svg">
<path d="M53.0525 7.31055H46.5195V22.2414H53.0525V7.31055Z" fill="#A5A5A5"/>
<path d="M26.3639 7.31055H23.0742V14.7759H29.6536V10.6442C29.6536 8.81304 28.1709 7.31055 26.3639 7.31055Z" fill="#A5A5A5"/>
<path d="M99.7088 7.31055H93.1758V28.9086H99.7088V7.31055Z" fill="#A5A5A5"/>
<path d="M99.1079 8.01465H93.7793V28.1572H99.1079V8.01465Z" fill="#C0C0C0"/>
<path d="M91.6935 10.6442L91.6477 10.3625C91.5087 8.62526 90.1187 7.26367 88.3575 7.26367C88.2185 7.26367 88.0337 7.26367 87.8947 7.31063H85.0681V10.1747C85.0681 10.3155 85.0215 10.4564 85.0215 10.6442C85.0215 10.7851 85.0215 10.9729 85.0681 11.1138V11.5833V11.865H91.6011V11.7711H91.6477V10.6442H91.6935Z" fill="#A5A5A5"/>
<path d="M112.451 7.31055C110.736 7.31055 109.3 8.67219 109.207 10.4094V10.6442V11.7241V11.8649H115.74V11.5832V10.4564V7.3575L112.451 7.31055Z" fill="#A5A5A5"/>
<path d="M7.87641 7.31063V11.1138C7.87641 11.2547 7.83008 11.3955 7.83008 11.5833C7.83008 11.7711 7.83008 11.912 7.87641 12.0528V16.842C7.87641 16.9828 7.83008 17.1237 7.83008 17.3115C7.83008 17.4524 7.83008 17.6401 7.87641 17.781V22.2884H14.4094V17.2175C14.4094 15.9968 13.7607 14.9638 12.8341 14.3535C13.7144 13.7901 14.3168 12.851 14.4094 11.7241V7.26367H7.87641V7.31063Z" fill="#A5A5A5"/>
<path d="M60.6048 10.5973C60.6048 8.76612 59.1221 7.26367 57.3151 7.26367C57.1761 7.26367 56.9907 7.26367 56.8517 7.31063H54.0254V22.2415H60.5584V11.0668C60.6048 10.879 60.6048 10.7381 60.6048 10.5973Z" fill="#A5A5A5"/>
<path d="M123.34 7.31055H116.807V22.2414H123.34V7.31055Z" fill="#A5A5A5"/>
<path d="M131.355 7.31055H124.822V22.2414H131.355V7.31055Z" fill="#A5A5A5"/>
<path d="M135.756 7.31055H132.467V22.2414H139V10.5972C139 8.76606 137.563 7.31055 135.756 7.31055Z" fill="#A5A5A5"/>
<path d="M90.8598 10.2683C90.8598 9.00062 89.7478 8.01465 88.312 8.01465H85.7168V10.0806V10.8787V11.0666H90.814V11.0196H90.8598V10.2683Z" fill="#C0C0C0"/>
<path d="M22.1932 7.31055H15.6602V22.2414H22.1932V7.31055Z" fill="#A5A5A5"/>
<path d="M6.533 0.69043H0V22.1946H6.533V0.69043Z" fill="#A5A5A5"/>
<path d="M122.737 7.9209H117.408V21.4901H122.737V7.9209Z" fill="#C0C0C0"/>
<path d="M130.799 7.9209H125.471V21.4901H130.799V7.9209Z" fill="#C0C0C0"/>
<path d="M135.757 7.9209H133.07V21.4901H138.398V10.9258C138.398 9.28252 137.24 7.9209 135.757 7.9209Z" fill="#C0C0C0"/>
<path d="M112.544 7.9209C111.2 7.9209 110.088 8.90693 109.949 10.1746V10.3624V11.1606V11.2545H115.092V11.0667V10.2215V7.96785L112.544 7.9209Z" fill="#C0C0C0"/>
<path d="M114.628 12.8516H113.98H112.451C111.2 12.8516 110.088 13.6029 109.532 14.6358C109.3 15.0114 109.207 15.387 109.207 15.6218V18.9554C109.207 20.5518 110.319 21.8664 111.802 22.1951H113.192H113.563H115.787V14.1663V13.9315V12.8047L114.628 12.8516Z" fill="#A5A5A5"/>
<path d="M114.211 13.5088H113.702H112.498C111.478 13.5088 110.597 14.1192 110.18 15.0582C109.996 15.3869 109.902 15.6686 109.902 15.9034V18.7205C109.902 20.0822 110.783 21.209 111.942 21.4907H113.054H113.377H115.139V14.6826V14.4948V13.5558H114.211V13.5088Z" fill="#C0C0C0"/>
<path d="M37.7609 18.5323V15.6213V13.931V11.0669C37.7609 10.926 37.8073 10.7852 37.8073 10.5974C37.8073 10.4565 37.8073 10.2687 37.7609 10.1279V7.26375H34.9346C34.7956 7.26375 34.6566 7.2168 34.4713 7.2168C32.6643 7.2168 31.1816 8.71928 31.1816 10.5504V13.884V15.5743V18.908C31.1816 20.5513 32.3399 21.9129 33.9153 22.1946H34.4713H35.0273H37.7146V19.3774C37.7146 19.2366 37.7609 19.0957 37.7609 18.908C37.8073 18.814 37.7609 18.6732 37.7609 18.5323Z" fill="#A5A5A5"/>
<path d="M41.793 7.26367C41.654 7.26367 41.4688 7.26367 41.3298 7.31063H38.5034V10.1747C38.5034 10.3155 38.457 10.4564 38.457 10.6442C38.457 10.7851 38.457 10.9729 38.5034 11.1138V13.9778V15.6681V18.5322C38.5034 18.6731 38.457 18.814 38.457 19.0018C38.457 19.1427 38.457 19.3304 38.5034 19.4713V22.2884H41.237H41.793H42.349C43.878 22.0067 45.0828 20.6451 45.0828 19.0018V15.6681V13.9778V10.6442C45.0828 8.76612 43.6464 7.26367 41.793 7.26367Z" fill="#A5A5A5"/>
<path d="M65.2838 7.31055C63.4768 7.31055 61.9941 8.81304 61.9941 10.6442C61.9941 10.785 61.9941 10.9728 62.0405 11.1137V13.9778V15.6681V18.5322C62.0405 18.673 61.9941 18.8139 61.9941 19.0017C61.9941 20.5511 63.0135 21.8188 64.4498 22.1945H65.3301H66.1641H68.6198V15.6681V13.9778V7.31055H65.2838Z" fill="#A5A5A5"/>
<path d="M84.0484 18.0161V17.7344H77.5156V19.1899C77.6546 20.6455 78.674 21.8662 80.064 22.1479H80.8053V22.1949H84.0484V18.0161C84.0484 18.0161 84.095 18.0161 84.0484 18.0161Z" fill="#A5A5A5"/>
<path d="M90.8594 14.1186C90.767 14.0717 90.6746 13.9778 90.5814 13.9308C89.9796 13.5082 89.1456 13.1326 87.8946 13.0388C86.9216 12.8509 85.8554 12.6162 85.068 12.3814C84.4196 12.1936 84.1416 11.8649 84.095 11.7241V7.31055H80.8053C78.9983 7.31055 77.5156 8.81304 77.5156 10.6442V13.9778C77.5156 14.3534 77.7473 14.9168 78.3033 15.4333C78.8593 15.9028 79.786 16.4193 81.2686 16.5602C81.9634 16.701 82.6584 16.8419 83.3076 17.0297C83.3534 17.0297 83.4 17.0766 83.4466 17.0766C83.6314 17.1236 83.817 17.1705 83.956 17.2175C84.0026 17.2175 84.0026 17.2175 84.0484 17.2645C84.8824 17.4992 85.068 17.9688 85.068 17.9688V22.2883C85.068 22.2883 87.0606 22.2883 87.8014 22.2883C87.9404 22.2883 88.3574 22.2883 88.3574 22.2883H88.9134C90.4424 22.0066 91.6476 20.645 91.6476 19.0017V15.6681C91.6934 15.2455 91.462 14.6351 90.8594 14.1186Z" fill="#A5A5A5"/>
<path d="M72.7896 7.31055H69.5V10.6442V13.9778V15.6681V19.0017V22.2414H72.0946H72.836H73.4846C74.9674 21.9128 76.0794 20.5511 76.0794 19.0017H76.1256V15.6681V13.9778V10.6442C76.0794 8.76606 74.5966 7.31055 72.7896 7.31055Z" fill="#A5A5A5"/>
<path d="M104.25 7.31055H100.961V13.9308V15.6211V22.1945H102.953H103.555H104.945C106.428 21.8658 107.54 20.5042 107.54 18.9548V15.6211V13.9308V10.6442C107.54 8.76606 106.057 7.31055 104.25 7.31055Z" fill="#A5A5A5"/>
<path d="M83.3542 18.3916H78.2578V18.5325V19.2836V19.4245C78.3505 20.5983 79.4161 21.5373 80.8061 21.5373H83.3542V19.4245V18.3916Z" fill="#C0C0C0"/>
<path d="M87.5233 13.6959C83.9093 13.0386 83.6313 12.569 83.3533 12.0056C83.3533 11.4422 83.3533 8.01465 83.3533 8.01465H81.2223C79.6006 8.01465 78.2569 9.37629 78.2569 11.0196C78.2569 11.0196 78.2106 13.8837 78.2569 14.0246C78.9519 15.527 80.9443 15.8087 82.0099 15.9026C83.4465 16.2313 85.6705 16.6069 85.7163 17.5929C85.7163 17.7807 85.7163 21.5369 85.7163 21.5369H87.0139H87.5233H88.4963C89.8863 21.3022 90.9525 20.0345 90.9525 18.532V15.527C90.6745 14.2593 88.6353 13.7898 87.5233 13.6959Z" fill="#C0C0C0"/>
<path d="M104.296 8.10938H101.701V14.0723V15.5748V21.4908H102.211H103.786H104.898C106.057 21.2091 106.937 19.9883 106.937 18.5798V15.5748V14.0723V11.0674C106.937 9.47103 105.732 8.10938 104.296 8.10938Z" fill="#C0C0C0"/>
</svg>
