<svg width="146" height="34" viewBox="0 0 146 34" fill="none" xmlns="http://www.w3.org/2000/svg">
<g clip-path="url(#clip0)">
<path d="M144.686 0H32.3633V11.4143H144.686V0Z" fill="#D30E21"/>
<path d="M32.3633 22.9746V33.5146H52.3653C52.3653 33.5146 52.3653 31.4746 52.3653 31.2804C52.3653 31.0375 52.2679 30.9889 52.0733 30.9889C51.8786 30.9889 38.9819 30.9889 38.9819 30.9889V27.2489H50.3213V25.0146C50.3213 24.8204 50.2239 24.7232 50.0293 24.7232H38.9819V20.8861H52.3653V18.6518C52.3653 18.4575 52.2679 18.3604 52.0733 18.3604H36.9866C34.4073 18.3604 32.3633 20.4489 32.3633 22.9746Z" fill="black"/>
<path d="M59.7148 18.3604H74.9961C75.1908 18.3604 75.2881 18.4089 75.2881 18.6518V20.8861H61.7101V30.7461H72.6601V27.2489H65.8468V25.0146C65.8468 24.8204 65.9441 24.7232 66.1388 24.7232C67.8421 24.7232 74.8015 24.7232 74.8988 24.7232C75.0935 24.7232 75.1908 24.8204 75.1908 25.0146V33.5146H54.9941V23.0232C55.0915 20.4489 57.1355 18.3604 59.7148 18.3604Z" fill="black"/>
<path d="M82.9279 18.3604H98.2092C98.4039 18.3604 98.5012 18.4089 98.5012 18.6518V20.8861H84.9232V30.7461H95.8732V27.2489H89.0599C89.0599 27.2489 89.0599 25.2089 89.0599 25.0146C89.0599 24.8204 89.1572 24.7232 89.3519 24.7232C91.0552 24.7232 98.0145 24.7232 98.1119 24.7232C98.3065 24.7232 98.4039 24.8204 98.4039 25.0146V33.5146H78.2559V23.0232C78.3045 20.4489 80.3972 18.3604 82.9279 18.3604Z" fill="black"/>
<path d="M101.566 22.9746V33.5146H121.568V31.2804C121.568 31.0375 121.471 30.9889 121.276 30.9889C121.082 30.9889 108.185 30.9889 108.185 30.9889V27.2489H119.524V25.0146C119.524 24.8204 119.427 24.7232 119.232 24.7232H108.234V20.8861H121.666V18.6518C121.666 18.4575 121.568 18.3604 121.374 18.3604H106.19C103.659 18.3604 101.566 20.4489 101.566 22.9746Z" fill="black"/>
<path d="M0 18.3604H22.046V21.2261H10.366V24.4804H22.046V27.3946H10.4147V30.6975H22.046V33.5146H0V18.3604Z" fill="#D30E21"/>
<path d="M140.744 18.3604C142.983 18.3604 144.735 20.5946 144.735 22.7804C144.735 25.0146 142.934 27.2004 140.744 27.2004H138.944L145.757 32.9804C145.757 32.9804 146.438 33.5146 145.708 33.5146H138.506C138.214 33.5146 138.019 33.3203 137.727 33.1261C137.97 33.3203 130.914 27.2489 130.914 27.2489V33.5632H124.295V23.0232C124.295 20.4489 126.339 18.4089 128.918 18.4089H140.744V18.3604ZM139.771 24.7232C140.452 24.7232 141.474 24.0432 141.474 22.7804C141.474 21.4204 140.55 20.8375 139.771 20.8375H130.914V24.6746L139.771 24.7232Z" fill="black"/>
</g>
<defs>
<clipPath id="clip0">
<rect width="146" height="34" fill="white"/>
</clipPath>
</defs>
</svg>
