<svg width="149" height="34" viewBox="0 0 149 34" fill="none" xmlns="http://www.w3.org/2000/svg">
<g clip-path="url(#clip0)">
<path d="M56.8682 9.27734H49.8652V24.7231H56.8682V9.27734Z" fill="#036BAE"/>
<path d="M28.2607 9.27734H24.7344V17.0002H31.787V12.7259C31.787 10.8316 30.1977 9.27734 28.2607 9.27734Z" fill="#036BAE"/>
<path d="M106.882 9.27734H99.8789V31.6202H106.882V9.27734Z" fill="#036BAE"/>
<path d="M106.237 10.0059H100.525V30.843H106.237V10.0059Z" fill="white"/>
<path d="M98.2907 12.7257L98.241 12.4342C98.092 10.6371 96.602 9.22852 94.7147 9.22852C94.5657 9.22852 94.367 9.22852 94.218 9.27709H91.1883V12.2399C91.1883 12.3857 91.1387 12.5314 91.1387 12.7257C91.1387 12.8714 91.1387 13.0657 91.1883 13.2114V13.6971V13.9885H98.1913V13.8914H98.241V12.7257H98.2907Z" fill="#036BAE"/>
<path d="M120.541 9.27734C118.703 9.27734 117.164 10.6859 117.064 12.4831V12.7259V13.8431V13.9888H124.067V13.6973V12.5316V9.32592L120.541 9.27734Z" fill="#036BAE"/>
<path d="M8.4442 9.27709V13.2114C8.4442 13.3571 8.39453 13.5028 8.39453 13.6971C8.39453 13.8914 8.39453 14.0371 8.4442 14.1828V19.1371C8.4442 19.2828 8.39453 19.4285 8.39453 19.6228C8.39453 19.7685 8.39453 19.9628 8.4442 20.1085V24.7714H15.4472V19.5257C15.4472 18.2628 14.7519 17.1942 13.7585 16.5628C14.7022 15.9799 15.3479 15.0085 15.4472 13.8428V9.22852H8.4442V9.27709Z" fill="#036BAE"/>
<path d="M64.9648 12.6771C64.9648 10.7828 63.3754 9.22852 61.4384 9.22852C61.2894 9.22852 61.0908 9.22852 60.9418 9.27709H57.9121V24.7228H64.9151V13.1628C64.9648 12.9685 64.9648 12.8228 64.9648 12.6771Z" fill="#036BAE"/>
<path d="M132.212 9.27734H125.209V24.7231H132.212V9.27734Z" fill="#036BAE"/>
<path d="M140.806 9.27734H133.803V24.7231H140.806V9.27734Z" fill="#036BAE"/>
<path d="M145.522 9.27734H141.996V24.7231H148.999V12.6773C148.999 10.7831 147.459 9.27734 145.522 9.27734Z" fill="#036BAE"/>
<path d="M97.3958 12.3373C97.3958 11.0259 96.2038 10.0059 94.6641 10.0059H91.8828V12.143V12.9687V13.163H97.3461V13.1144H97.3958V12.3373Z" fill="white"/>
<path d="M23.7901 9.27734H16.7871V24.7231H23.7901V9.27734Z" fill="#036BAE"/>
<path d="M7.003 2.42871H0V24.6744H7.003V2.42871Z" fill="#036BAE"/>
<path d="M131.567 9.9082H125.855V23.9453H131.567V9.9082Z" fill="white"/>
<path d="M140.21 9.9082H134.498V23.9453H140.21V9.9082Z" fill="white"/>
<path d="M145.523 9.9082H142.643V23.9453H148.354V13.0168C148.354 11.3168 147.113 9.9082 145.523 9.9082Z" fill="white"/>
<path d="M120.641 9.9082C119.2 9.9082 118.008 10.9282 117.859 12.2396V12.4339V13.2596V13.3568H123.372V13.1625V12.2882V9.95677L120.641 9.9082Z" fill="white"/>
<path d="M122.875 15.0085H122.18H120.541C119.2 15.0085 118.008 15.7857 117.412 16.8542C117.164 17.2428 117.064 17.6314 117.064 17.8742V21.3228C117.064 22.9742 118.256 24.3342 119.846 24.6742H121.336H121.733H124.117V16.3685V16.1257V14.96L122.875 15.0085Z" fill="#036BAE"/>
<path d="M122.428 15.6885H121.881H120.59C119.497 15.6885 118.554 16.3199 118.107 17.2913C117.908 17.6313 117.809 17.9228 117.809 18.1656V21.0799C117.809 22.4885 118.752 23.6542 119.994 23.9456H121.186H121.534H123.421V16.9028V16.7085V15.737H122.428V15.6885Z" fill="white"/>
<path d="M40.4785 20.8854V17.874V16.1254V13.1625C40.4785 13.0168 40.5281 12.8711 40.5281 12.6768C40.5281 12.5311 40.5281 12.3368 40.4785 12.1911V9.22826H37.4488C37.2998 9.22826 37.1508 9.17969 36.9521 9.17969C35.0151 9.17969 33.4258 10.734 33.4258 12.6283V16.0768V17.8254V21.274C33.4258 22.974 34.6674 24.3825 36.3561 24.674H36.9521H37.5481H40.4288V21.7597C40.4288 21.614 40.4785 21.4683 40.4785 21.274C40.5281 21.1768 40.4785 21.0311 40.4785 20.8854Z" fill="#036BAE"/>
<path d="M44.7987 9.22852C44.6497 9.22852 44.451 9.22852 44.302 9.27709H41.2723V12.2399C41.2723 12.3857 41.2227 12.5314 41.2227 12.7257C41.2227 12.8714 41.2227 13.0657 41.2723 13.2114V16.1742V17.9228V20.8857C41.2723 21.0314 41.2227 21.1771 41.2227 21.3714C41.2227 21.5171 41.2227 21.7114 41.2723 21.8571V24.7714H44.2027H44.7987H45.3947C47.0337 24.4799 48.325 23.0714 48.325 21.3714V17.9228V16.1742V12.7257C48.325 10.7828 46.7853 9.22852 44.7987 9.22852Z" fill="#036BAE"/>
<path d="M69.9795 9.27734C68.0425 9.27734 66.4531 10.8316 66.4531 12.7259C66.4531 12.8716 66.4531 13.0659 66.5028 13.2116V16.1745V17.9231V20.8859C66.5028 21.0316 66.4531 21.1773 66.4531 21.3716C66.4531 22.9745 67.5458 24.2859 69.0855 24.6745H70.0291H70.9231H73.5555V17.9231V16.1745V9.27734H69.9795Z" fill="#036BAE"/>
<path d="M90.0948 20.352V20.0605H83.0918V21.5663C83.2408 23.072 84.3335 24.3348 85.8235 24.6263H86.6181V24.6748H90.0948V20.352C90.1445 20.352 90.0948 20.352 90.0948 20.352Z" fill="#036BAE"/>
<path d="M97.3958 16.3202C97.2965 16.2716 97.1971 16.1745 97.0978 16.1259C96.4521 15.6888 95.5581 15.3002 94.2171 15.2031C93.1741 15.0088 92.0318 14.7659 91.1875 14.5231C90.4921 14.3288 90.1941 13.9888 90.1445 13.8431V9.27734H86.6181C84.6811 9.27734 83.0918 10.8316 83.0918 12.7259V16.1745C83.0918 16.5631 83.3401 17.1459 83.9361 17.6802C84.5321 18.1659 85.5255 18.7002 87.1148 18.8459C87.8598 18.9916 88.6048 19.1373 89.3001 19.3316C89.3498 19.3316 89.3995 19.3802 89.4491 19.3802C89.6478 19.4288 89.8465 19.4773 89.9955 19.5259C90.0451 19.5259 90.0451 19.5259 90.0948 19.5745C90.9888 19.8173 91.1875 20.3031 91.1875 20.3031V24.7716C91.1875 24.7716 93.3231 24.7716 94.1178 24.7716C94.2668 24.7716 94.7138 24.7716 94.7138 24.7716H95.3098C96.9488 24.4802 98.2401 23.0716 98.2401 21.3716V17.9231C98.2898 17.4859 98.0415 16.8545 97.3958 16.3202Z" fill="#036BAE"/>
<path d="M78.0263 9.27734H74.5V12.7259V16.1745V17.9231V21.3716V24.7231H77.2813H78.076H78.7713C80.3607 24.3831 81.5527 22.9745 81.5527 21.3716H81.6023V17.9231V16.1745V12.7259C81.5527 10.7831 79.9633 9.27734 78.0263 9.27734Z" fill="#036BAE"/>
<path d="M111.751 9.27734H108.225V16.1259V17.8745V24.6745H110.36H111.006H112.496C114.085 24.3345 115.277 22.9259 115.277 21.3231V17.8745V16.1259V12.7259C115.277 10.7831 113.688 9.27734 111.751 9.27734Z" fill="#036BAE"/>
<path d="M89.3501 20.7402H83.8867V20.8859V21.6631V21.8088C83.9861 23.0231 85.1284 23.9945 86.6184 23.9945H89.3501V21.8088V20.7402Z" fill="white"/>
<path d="M93.8206 15.883C89.9466 15.203 89.6486 14.7173 89.3506 14.1344C89.3506 13.5516 89.3506 10.0059 89.3506 10.0059H87.066C85.3276 10.0059 83.8873 11.4144 83.8873 13.1144C83.8873 13.1144 83.8376 16.0773 83.8873 16.223C84.6323 17.7773 86.768 18.0687 87.9103 18.1659C89.45 18.5059 91.834 18.8944 91.8836 19.9144C91.8836 20.1087 91.8836 23.9944 91.8836 23.9944H93.2743H93.8206H94.8637C96.3537 23.7516 97.496 22.4401 97.496 20.8859V17.7773C97.198 16.4659 95.0126 15.9801 93.8206 15.883Z" fill="white"/>
<path d="M111.799 10.1025H109.018V16.2711V17.8254V23.9454H109.564H111.253H112.445C113.686 23.654 114.63 22.3911 114.63 20.934V17.8254V16.2711V13.1625C114.63 11.5111 113.339 10.1025 111.799 10.1025Z" fill="white"/>
</g>
<defs>
<clipPath id="clip0">
<rect width="149" height="34" fill="white"/>
</clipPath>
</defs>
</svg>
