<svg width="138" height="33" viewBox="0 0 138 33" fill="none" xmlns="http://www.w3.org/2000/svg">
<g clip-path="url(#clip0)">
<path d="M136.758 0H30.5898V10.9863H136.758V0Z" fill="#A5A5A5"/>
<path d="M30.5898 22.1132V32.2579H49.4958C49.4958 32.2579 49.4958 30.2944 49.4958 30.1074C49.4958 29.8736 49.4039 29.8269 49.2198 29.8269C49.0359 29.8269 36.8459 29.8269 36.8459 29.8269V26.2271H47.5638V24.0767C47.5638 23.8897 47.4719 23.7962 47.2878 23.7962H36.8459V20.1029H49.4958V17.9524C49.4958 17.7654 49.4039 17.6719 49.2198 17.6719H34.9599C32.5218 17.6719 30.5898 19.6822 30.5898 22.1132Z" fill="#C0C0C0"/>
<path d="M56.4425 17.6719H70.8865C71.0705 17.6719 71.1625 17.7187 71.1625 17.9524V20.1029H58.3285V29.5931H68.6785V26.2271H62.2385V24.0767C62.2385 23.8897 62.3305 23.7962 62.5145 23.7962C64.1245 23.7962 70.7025 23.7962 70.7945 23.7962C70.9785 23.7962 71.0705 23.8897 71.0705 24.0767V32.2579H51.9805V22.1599C52.0725 19.6822 54.0045 17.6719 56.4425 17.6719Z" fill="#C0C0C0"/>
<path d="M78.3847 17.6719H92.8285C93.0128 17.6719 93.1045 17.7187 93.1045 17.9524V20.1029H80.2707V29.5931H90.6205V26.2271H84.1808C84.1808 26.2271 84.1808 24.2636 84.1808 24.0767C84.1808 23.8897 84.2725 23.7962 84.4568 23.7962C86.0665 23.7962 92.645 23.7962 92.7368 23.7962C92.921 23.7962 93.0128 23.8897 93.0128 24.0767V32.2579H73.9688V22.1599C74.0148 19.6822 75.9927 17.6719 78.3847 17.6719Z" fill="#C0C0C0"/>
<path d="M96.002 22.1132V32.2579H114.908V30.1074C114.908 29.8736 114.816 29.8269 114.632 29.8269C114.448 29.8269 102.258 29.8269 102.258 29.8269V26.2271H112.976V24.0767C112.976 23.8897 112.884 23.7962 112.7 23.7962H102.304V20.1029H115V17.9524C115 17.7654 114.908 17.6719 114.724 17.6719H100.372C97.9802 17.6719 96.002 19.6822 96.002 22.1132Z" fill="#C0C0C0"/>
<path d="M0 17.6719H20.838V20.4302H9.798V23.5624H20.838V26.3674H9.84403V29.5464H20.838V32.2579H0V17.6719Z" fill="#A5A5A5"/>
<path d="M133.032 17.6719C135.148 17.6719 136.804 19.8224 136.804 21.9262C136.804 24.0767 135.102 26.1804 133.032 26.1804H131.33L137.77 31.7437C137.77 31.7437 138.414 32.2579 137.724 32.2579H130.916C130.64 32.2579 130.456 32.0709 130.18 31.8839C130.41 32.0709 123.74 26.2271 123.74 26.2271V32.3047H117.484V22.1599C117.484 19.6822 119.416 17.7187 121.854 17.7187H133.032V17.6719ZM132.112 23.7962C132.756 23.7962 133.722 23.1416 133.722 21.9262C133.722 20.6171 132.848 20.0561 132.112 20.0561H123.74V23.7494L132.112 23.7962Z" fill="#C0C0C0"/>
</g>
<defs>
<clipPath id="clip0">
<rect width="138" height="33" fill="white"/>
</clipPath>
</defs>
</svg>
