<svg width="123" height="23" viewBox="0 0 123 23" fill="none" xmlns="http://www.w3.org/2000/svg">
<g clip-path="url(#clip0)">
<path fill-rule="evenodd" clip-rule="evenodd" d="M17.445 2.80119C16.1607 3.80823 15.1224 5.09442 14.4089 6.56227C13.6955 8.03012 13.3255 9.64112 13.327 11.2732C13.3253 12.9054 13.6952 14.5166 14.4087 15.9847C15.1222 17.4527 16.1605 18.739 17.445 19.7462C18.7293 18.7391 19.7675 17.4529 20.481 15.9851C21.1944 14.5172 21.5645 12.9062 21.563 11.2742C21.5648 9.6418 21.1949 8.03043 20.4814 6.56222C19.7679 5.09401 18.7295 3.80749 17.445 2.80019V2.80119ZM24.108 0.492188C21.901 0.492188 19.848 1.15619 18.14 2.29419C18.227 2.36519 18.316 2.43619 18.4 2.51019C19.6544 3.60002 20.6604 4.94636 21.3499 6.45827C22.0395 7.97018 22.3965 9.61246 22.397 11.2742C22.397 14.6332 20.94 17.8272 18.4 20.0372C18.316 20.1102 18.227 20.1812 18.14 20.2532C19.9072 21.4311 21.9842 22.0582 24.108 22.0552C30.062 22.0552 34.89 17.2282 34.89 11.2742C34.89 5.31919 30.062 0.492188 24.108 0.492188ZM16.49 20.0372C16.574 20.1102 16.663 20.1812 16.75 20.2532C14.9828 21.4313 12.9058 22.0584 10.782 22.0552C4.827 22.0552 0 17.2282 0 11.2742C0 5.31919 4.827 0.492188 10.782 0.492188C12.989 0.492188 15.042 1.15619 16.75 2.29419C16.663 2.36519 16.574 2.43619 16.49 2.50919C15.2355 3.59918 14.2295 4.94569 13.54 6.45777C12.8504 7.96985 12.4934 9.6123 12.493 11.2742C12.493 14.6342 13.949 17.8282 16.49 20.0372ZM56.422 11.3202C56.422 10.0602 57.247 9.02519 58.598 9.02519C59.888 9.02519 60.758 10.0152 60.758 11.3202C60.758 12.6252 59.888 13.6152 58.598 13.6152C57.248 13.6152 56.422 12.5802 56.422 11.3202ZM62.228 11.3202V7.73519H60.668V8.60519C60.173 7.96019 59.423 7.55519 58.403 7.55519C56.393 7.55519 54.817 9.13019 54.817 11.3202C54.817 13.5102 56.392 15.0852 58.403 15.0852C59.423 15.0852 60.173 14.6802 60.668 14.0352V14.9052H62.228V11.3202ZM114.908 11.3202C114.908 10.0602 115.734 9.02519 117.084 9.02519C118.374 9.02519 119.244 10.0152 119.244 11.3202C119.244 12.6252 118.374 13.6152 117.084 13.6152C115.734 13.6152 114.909 12.5802 114.909 11.3202H114.908ZM122.458 14.5652V14.6782H122.563C122.583 14.6791 122.603 14.6743 122.62 14.6642C122.634 14.6542 122.64 14.6402 122.64 14.6202C122.64 14.6122 122.639 14.6043 122.635 14.5971C122.632 14.5899 122.627 14.5838 122.62 14.5792C122.603 14.5689 122.583 14.564 122.563 14.5652H122.459H122.458ZM122.564 14.4852C122.618 14.4852 122.66 14.4982 122.689 14.5222C122.703 14.534 122.715 14.549 122.723 14.566C122.73 14.583 122.734 14.6016 122.733 14.6202C122.734 14.6363 122.731 14.6524 122.725 14.6674C122.719 14.6824 122.71 14.696 122.698 14.7072C122.67 14.7317 122.635 14.7465 122.598 14.7492L122.737 14.9092H122.629L122.5 14.7492H122.459V14.9092H122.369V14.4862H122.564V14.4852ZM122.537 15.0532C122.583 15.0536 122.629 15.0447 122.672 15.027C122.715 15.0093 122.754 14.9832 122.786 14.9502C122.819 14.9174 122.845 14.8783 122.863 14.8352C122.881 14.792 122.89 14.7458 122.889 14.6992C122.89 14.6405 122.876 14.5825 122.848 14.5306C122.821 14.4787 122.781 14.4345 122.732 14.402C122.683 14.3695 122.627 14.3497 122.568 14.3445C122.51 14.3393 122.451 14.3488 122.397 14.3722C122.312 14.4081 122.245 14.4755 122.209 14.5602C122.19 14.604 122.181 14.6511 122.181 14.6987C122.181 14.7463 122.19 14.7934 122.209 14.8372C122.236 14.9017 122.282 14.9567 122.34 14.9952C122.398 15.0337 122.467 15.0538 122.537 15.0532ZM122.537 14.2432C122.659 14.2424 122.776 14.29 122.863 14.3754C122.95 14.4609 122.999 14.5774 123 14.6992C123 14.759 122.989 14.8183 122.965 14.8733C122.942 14.9283 122.907 14.978 122.864 15.0192C122.776 15.1044 122.659 15.1527 122.537 15.1542C122.415 15.1553 122.298 15.108 122.21 15.0228C122.123 14.9375 122.073 14.8212 122.071 14.6992C122.072 14.6387 122.084 14.5788 122.108 14.5231C122.131 14.4675 122.166 14.417 122.209 14.3747C122.253 14.3324 122.304 14.2991 122.36 14.2767C122.416 14.2543 122.476 14.2433 122.537 14.2442V14.2432ZM120.714 11.3202V4.85519H119.154V8.60519C118.659 7.96019 117.909 7.55519 116.889 7.55519C114.879 7.55519 113.304 9.13019 113.304 11.3202C113.304 13.5102 114.879 15.0852 116.889 15.0852C117.909 15.0852 118.659 14.6802 119.154 14.0352V14.9052H120.714V11.3202ZM81.578 8.95019C82.583 8.95019 83.228 9.58019 83.393 10.6902H79.673C79.838 9.65519 80.468 8.95019 81.578 8.95019ZM81.608 7.55519C79.508 7.55519 78.038 9.08519 78.038 11.3202C78.038 13.6002 79.568 15.0852 81.713 15.0852C82.793 15.0852 83.783 14.8152 84.653 14.0802L83.888 12.9252C83.288 13.4052 82.523 13.6752 81.803 13.6752C80.798 13.6752 79.883 13.2102 79.658 11.9202H84.983C84.998 11.7252 85.013 11.5302 85.013 11.3202C84.998 9.08519 83.618 7.55519 81.608 7.55519ZM100.433 11.3202C100.433 10.0602 101.258 9.02519 102.609 9.02519C103.899 9.02519 104.769 10.0152 104.769 11.3202C104.769 12.6252 103.899 13.6152 102.609 13.6152C101.259 13.6152 100.433 12.5802 100.433 11.3202ZM106.239 11.3202V7.73519H104.679V8.60519C104.184 7.96019 103.434 7.55519 102.413 7.55519C100.403 7.55519 98.828 9.13019 98.828 11.3202C98.828 13.5102 100.403 15.0852 102.413 15.0852C103.433 15.0852 104.183 14.6802 104.679 14.0352V14.9052H106.239V11.3202ZM91.629 11.3202C91.629 13.4952 93.143 15.0852 95.454 15.0852C96.534 15.0852 97.254 14.8452 98.034 14.2302L97.284 12.9702C96.698 13.3902 96.084 13.6152 95.408 13.6152C94.163 13.6002 93.248 12.7002 93.248 11.3202C93.248 9.94019 94.163 9.04019 95.408 9.02519C96.083 9.02519 96.698 9.25019 97.283 9.67019L98.033 8.41019C97.253 7.79519 96.533 7.55519 95.453 7.55519C93.143 7.55519 91.628 9.14519 91.628 11.3202H91.629ZM111.729 7.55519C110.829 7.55519 110.244 7.97519 109.839 8.60519V7.73519H108.294V14.9052H109.854V10.8852C109.854 9.70019 110.364 9.04019 111.384 9.04019C111.699 9.04019 112.029 9.08519 112.359 9.22019L112.839 7.75019C112.483 7.62263 112.107 7.55669 111.729 7.55519ZM69.938 8.30519C69.188 7.81019 68.153 7.55519 67.013 7.55519C65.198 7.55519 64.028 8.42519 64.028 9.85019C64.028 11.0202 64.898 11.7402 66.502 11.9652L67.238 12.0702C68.093 12.1902 68.498 12.4152 68.498 12.8202C68.498 13.3752 67.928 13.6902 66.863 13.6902C65.783 13.6902 65.003 13.3452 64.477 12.9402L63.743 14.1552C64.597 14.7852 65.678 15.0852 66.848 15.0852C68.918 15.0852 70.118 14.1102 70.118 12.7452C70.118 11.4852 69.173 10.8252 67.613 10.6002L66.878 10.4952C66.203 10.4052 65.663 10.2702 65.663 9.79019C65.663 9.26519 66.173 8.95019 67.028 8.95019C67.943 8.95019 68.828 9.29519 69.263 9.56519L69.938 8.30519ZM90.053 7.55519C89.153 7.55519 88.568 7.97519 88.163 8.60519V7.73519H86.618V14.9052H88.178V10.8852C88.178 9.70019 88.688 9.04019 89.708 9.04019C90.023 9.04019 90.353 9.08519 90.683 9.22019L91.163 7.75019C90.8068 7.62259 90.4314 7.55665 90.053 7.55519ZM76.748 7.73519H74.198V5.56019H72.623V7.73519H71.168V9.16019H72.623V12.4302C72.623 14.0952 73.268 15.0852 75.113 15.0852C75.788 15.0852 76.568 14.8752 77.063 14.5302L76.613 13.1952C76.148 13.4652 75.638 13.6002 75.233 13.6002C74.453 13.6002 74.198 13.1202 74.198 12.4002V9.16019H76.748V7.73519ZM53.438 14.9052V10.4052C53.438 8.71019 52.358 7.57019 50.618 7.55519C49.702 7.54019 48.758 7.82519 48.098 8.83019C47.602 8.03519 46.822 7.55519 45.728 7.55519C44.962 7.55519 44.212 7.78019 43.628 8.62019V7.73519H42.068V14.9052H43.642V10.9302C43.642 9.68519 44.332 9.02519 45.397 9.02519C46.432 9.02519 46.957 9.70019 46.957 10.9152V14.9052H48.532V10.9302C48.532 9.68519 49.252 9.02519 50.287 9.02519C51.352 9.02519 51.862 9.70019 51.862 10.9152V14.9052H53.437H53.438ZM34.553 17.9552V17.5352H34.443L34.318 17.8242L34.192 17.5362H34.083V17.9542H34.16V17.6392L34.278 17.9112H34.358L34.476 17.6382V17.9542H34.553V17.9552ZM33.861 17.9552V17.6072H34.001V17.5372H33.645V17.6072H33.785V17.9542H33.861V17.9552Z" fill="white"/>
</g>
<defs>
<clipPath id="clip0">
<rect width="123" height="23" fill="white"/>
</clipPath>
</defs>
</svg>
