<svg width="45" height="46" viewBox="0 0 45 46" xmlns="http://www.w3.org/2000/svg">
<path d="M28.8613 34.5L29.1863 41.2382L22.5188 36.5017L15.8139 41.2427L16.1392 34.5H13.3232L12.8379 44.5625H16.0628L22.5151 40.0002L28.9375 44.5625H32.1626L31.6772 34.5H28.8613Z"/>
<path d="M36.5108 13.918L36.318 9.60065L32.7571 7.27127L30.4779 3.63089L26.2543 3.43323L22.5002 1.4458L18.7462 3.43368L14.5226 3.63134L12.2434 7.27127L8.68251 9.60065L8.48968 13.918L6.54492 17.7556L8.48968 21.5933L8.68304 25.9105L12.2434 28.2399L14.5222 31.8804L18.7458 32.0776L22.5002 34.0655L26.2543 32.0776L30.4779 31.8804L32.7567 28.2399L36.3179 25.9109L36.5108 21.5936L38.4555 17.7559L36.5108 13.918ZM33.7294 20.8314L33.5745 24.2916L30.7202 26.1586L28.8938 29.0763L25.5087 29.2344L22.5002 30.8276L19.4914 29.2344L16.1063 29.0763L14.2799 26.1586L11.426 24.2916L11.2714 20.8314L9.71215 17.7556L11.2711 14.6804L11.426 11.2196L14.2799 9.35268L16.1063 6.43509L19.4914 6.27697L22.5002 4.68368L25.5091 6.27688L28.8942 6.435L30.7206 9.35259L33.5745 11.2196L33.7291 14.68L35.2883 17.7556L33.7294 20.8314Z"/>
</svg>
