<svg width="55" height="16" viewBox="0 0 55 16" fill="none" xmlns="http://www.w3.org/2000/svg">
<path fill-rule="evenodd" clip-rule="evenodd" d="M14.588 3.30648e-07V0.00700033C14.581 0.00700033 12.473 2.38419e-07 11.911 2.023C11.396 3.878 9.944 8.999 9.904 9.14H9.502C9.502 9.14 8.017 3.905 7.495 2.016C6.933 -0.00699973 4.818 3.30648e-07 4.818 3.30648e-07H0V15.39H4.818V6.25H5.22L8.03 15.39H11.376L14.186 6.257H14.588V15.391H19.406V3.30648e-07H14.588ZM32.214 3.30648e-07C32.214 3.30648e-07 30.79 0.128 30.122 1.613L26.679 9.14H26.274V3.30648e-07H21.414V15.39H26.004C26.004 15.39 27.496 15.257 28.164 13.778L31.539 6.25H31.944V15.39H36.804V3.30648e-07H32.214ZM38.812 6.692V15.391H43.544V10.311H48.67C50.905 10.311 52.798 8.801 53.5 6.691H38.813L38.812 6.692ZM48.962 3.30648e-07H38.203C38.741 2.793 40.938 5.036 43.781 5.766C44.4415 5.93661 45.1209 6.02297 45.803 6.023H54.095C54.169 5.689 54.203 5.35 54.203 4.997C54.203 2.236 51.858 3.30648e-07 48.962 3.30648e-07Z" fill="white"/>
</svg>
