<svg width="8" height="14" viewBox="0 0 8 14" fill="none" xmlns="http://www.w3.org/2000/svg">
<path d="M6.47479 13.1168C6.32157 13.117 6.16982 13.0868 6.02827 13.0282C5.88672 12.9695 5.75815 12.8835 5.64996 12.775L0.700959 7.82479C0.482243 7.60601 0.359375 7.30932 0.359375 6.99996C0.359375 6.6906 0.482243 6.39391 0.700959 6.17513L5.64996 1.22496C5.86999 1.01244 6.1647 0.894847 6.47059 0.897505C6.77649 0.900163 7.0691 1.02286 7.28541 1.23917C7.50172 1.45548 7.62442 1.74809 7.62708 2.05399C7.62974 2.35989 7.51214 2.65459 7.29963 2.87463L3.17546 6.99996L7.29963 11.1253C7.46274 11.2885 7.57381 11.4963 7.61881 11.7226C7.6638 11.9489 7.6407 12.1834 7.55242 12.3966C7.46413 12.6097 7.31464 12.7919 7.12283 12.9201C6.93102 13.0483 6.7055 13.1167 6.47479 13.1168Z" fill="#2E3831"/>
</svg>
