<svg width="26" height="26" viewBox="0 0 26 26" fill="none" xmlns="http://www.w3.org/2000/svg">
<path d="M8.32812 13.8125H12.1875V17.6719C12.1875 17.7836 12.2789 17.875 12.3906 17.875H13.6094C13.7211 17.875 13.8125 17.7836 13.8125 17.6719V13.8125H17.6719C17.7836 13.8125 17.875 13.7211 17.875 13.6094V12.3906C17.875 12.2789 17.7836 12.1875 17.6719 12.1875H13.8125V8.32812C13.8125 8.21641 13.7211 8.125 13.6094 8.125H12.3906C12.2789 8.125 12.1875 8.21641 12.1875 8.32812V12.1875H8.32812C8.21641 12.1875 8.125 12.2789 8.125 12.3906V13.6094C8.125 13.7211 8.21641 13.8125 8.32812 13.8125Z" fill="#2E3831"/>
<path d="M22.3438 2.84375H3.65625C3.20684 2.84375 2.84375 3.20684 2.84375 3.65625V22.3438C2.84375 22.7932 3.20684 23.1562 3.65625 23.1562H22.3438C22.7932 23.1562 23.1562 22.7932 23.1562 22.3438V3.65625C23.1562 3.20684 22.7932 2.84375 22.3438 2.84375ZM21.3281 21.3281H4.67188V4.67188H21.3281V21.3281Z" fill="#2E3831"/>
</svg>
