<svg width="137" height="80" viewBox="0 0 137 80" fill="none" xmlns="http://www.w3.org/2000/svg">
<path d="M41.7488 45.8398H35.9932C35.9932 45.8398 34.6961 48.4798 31.6156 48.4798C29.6701 48.5598 27.5624 47.5198 26.5896 45.8398H20.834C20.834 45.8398 23.347 53.2799 31.6156 53.2799C38.8304 53.2799 41.7488 45.8398 41.7488 45.8398Z" fill="#A5A5A5"/>
<path d="M69.3113 44.4803C69.3923 44.4803 71.3379 39.0403 71.3379 39.0403L73.3645 44.4803H78.8769L74.0941 32.3203H68.5817L63.7988 44.4803H69.3113Z" fill="#A5A5A5"/>
<path d="M40.4507 58.8799H37.9377L36.4785 65.6799H37.3702L37.9377 62.8799H40.1264C41.7477 62.8799 42.5584 61.8399 42.5584 60.6399C42.6395 59.5199 41.9099 58.8799 40.4507 58.8799ZM39.9643 62.1599H38.0998L38.6673 59.6799H39.9643C40.775 59.6799 41.6667 59.6799 41.6667 60.7199C41.7477 61.6799 41.0182 62.1599 39.9643 62.1599Z" fill="#A5A5A5"/>
<path d="M55.6102 44.4803L63.7978 32.3203H56.9883L52.854 39.7603H52.2055L47.4227 32.3203H41.2617L49.4493 44.4803H55.6102Z" fill="#A5A5A5"/>
<path d="M55.6102 45.8398H49.4492V53.2799H55.6102V45.8398Z" fill="#A5A5A5"/>
<path d="M12.4839 45.8402C12.8892 46.1602 13.1324 46.6403 13.1324 47.1203C13.1324 47.7603 12.4839 49.1203 9.72771 49.1203H6.32297V44.4002H17.2668C16.6993 43.6002 15.9697 42.9602 15.2401 42.4002C14.2673 41.8402 14.5916 41.7603 14.5916 41.7603C14.5916 41.7603 16.6182 39.7602 16.6182 37.6802C16.6182 35.6002 14.9969 32.2402 9.72771 32.2402H0.810547V53.2802H11.7543C14.4295 53.2002 16.8614 51.6002 17.9153 49.2002C18.2395 48.0802 18.2395 46.9602 17.9153 45.8402H12.4839ZM6.07978 36.0002C6.07978 36.0002 8.02534 36.0802 9.80877 36.0002C11.5922 35.9202 11.6733 40.7203 9.64664 40.7203C7.62001 40.7203 6.07978 40.7203 6.07978 40.7203V36.0002Z" fill="#A5A5A5"/>
<path d="M26.1839 44.4803C26.1839 44.4803 24.968 37.0403 31.1289 37.0403C37.8573 37.0403 36.4792 44.4803 36.4792 44.4803H41.9916C41.9916 44.4803 43.6129 32.3203 31.0478 32.3203C18.4827 32.3203 20.6715 44.4803 20.6715 44.4803H26.1839Z" fill="#A5A5A5"/>
<path d="M124.11 42.4002C124.11 37.6002 119.327 32.2402 115.193 32.2402H105.627V44.4002H110.41V36.3203H113.815C116.246 36.3203 119.327 39.8402 119.327 42.4002C119.327 44.9602 116.733 49.2002 113.815 49.2002H110.41V45.8402H105.627V53.2802H115.922C119.975 53.2802 124.11 47.2802 124.11 42.4002Z" fill="#A5A5A5"/>
<path d="M78.2277 25.5201L74.0934 18.0801L69.3105 30.9601H76.2011L78.2277 25.5201Z" fill="#C0C0C0"/>
<path d="M125.084 34.4797C126.3 34.4797 127.435 33.8397 128.003 32.7997C128.327 32.3197 128.489 31.6797 128.408 31.1197C128.408 30.5597 128.246 29.9197 128.003 29.4397C127.678 28.9597 127.273 28.5597 126.787 28.2397C126.3 27.9197 125.652 27.7597 125.084 27.8397C124.517 27.8397 123.868 27.9997 123.382 28.3197C122.895 28.6397 122.409 29.0397 122.166 29.5197C121.598 30.5597 121.598 31.8397 122.166 32.8797C122.814 33.9197 123.868 34.5597 125.084 34.4797ZM122.733 29.7597C122.976 29.3597 123.301 29.0397 123.706 28.7997C124.598 28.3197 125.652 28.3197 126.543 28.7997C126.949 29.0397 127.273 29.3597 127.516 29.7597C128.003 30.6397 128.003 31.6797 127.516 32.5597C127.273 32.9597 126.949 33.2797 126.543 33.5197C126.138 33.7597 125.652 33.9197 125.165 33.9197C124.679 33.9197 124.192 33.8397 123.787 33.5997C123.382 33.3597 123.058 33.0397 122.814 32.6397C122.247 31.6797 122.247 30.6397 122.733 29.7597Z" fill="#A5A5A5"/>
<path d="M124.679 31.9196H125.327L126.057 32.9596H127.03L126.219 31.7596C126.462 31.6796 126.624 31.5196 126.705 31.2796C126.868 31.0396 126.868 30.7996 126.868 30.5596C126.868 30.1596 126.705 29.8396 126.462 29.5996C126.138 29.3596 125.733 29.1996 125.246 29.2796H123.625V32.9596H124.598V31.9196H124.679ZM124.598 30.0796H125.165C125.327 30.0796 125.571 30.1596 125.652 30.2396C125.814 30.3196 125.814 30.4796 125.814 30.6396C125.814 30.7996 125.733 30.9596 125.652 31.0396C125.489 31.1196 125.327 31.1996 125.165 31.1996H124.598V30.0796Z" fill="#A5A5A5"/>
<path d="M91.1992 45.8398L96.0631 53.2799H102.873L97.3602 45.8398H91.1992Z" fill="#A5A5A5"/>
<path d="M90.5504 45.8398H85.7676V53.2799H90.5504V45.8398Z" fill="#A5A5A5"/>
<path d="M83.6591 30.9601L85.7668 25.5201L81.6325 18.0801L76.8496 30.9601H83.6591Z" fill="#C0C0C0"/>
<path d="M60.3945 53.2799H66.5555L67.9336 49.1998H74.8241L76.2022 53.2799H82.3632L79.607 45.8398H63.1507L60.3945 53.2799Z" fill="#A5A5A5"/>
<path d="M91.1981 30.9601L93.3058 25.5201L89.1715 18.0801L84.3887 30.9601H91.1981Z" fill="#C0C0C0"/>
<path d="M83.9027 60.7998L83.6595 61.8398C83.4163 62.9598 83.011 63.9998 82.3624 65.0398H81.795L81.3086 67.2798H82.1192L82.4435 65.7598H86.1725L85.8482 67.2798H86.6589L87.1453 65.0398H86.4968L87.3885 60.7998H83.9027ZM85.605 64.9598H83.1731C83.7405 63.9998 84.1459 62.9598 84.3891 61.8398L84.4701 61.3598H86.3346L85.605 64.9598Z" fill="#A5A5A5"/>
<path d="M112.517 60.6396C112.436 60.6396 112.274 60.6396 112.193 60.6396C110.653 60.6396 109.518 61.9996 109.518 63.7596C109.437 64.7996 110.166 65.7596 111.22 65.8396C111.301 65.8396 111.463 65.8396 111.544 65.8396C112.598 65.9196 113.571 65.1996 113.814 64.1596H113.004C112.842 64.7996 112.274 65.1996 111.626 65.1996C110.977 65.1996 110.329 64.7196 110.329 64.0796C110.329 63.9996 110.329 63.9196 110.329 63.8396C110.329 63.7596 110.329 63.5996 110.329 63.5196H114.057C114.139 63.2796 114.139 62.9596 114.139 62.7196C114.22 61.6796 113.49 60.7196 112.517 60.6396ZM113.328 62.5596C113.328 62.6396 113.328 62.6396 113.328 62.7196H110.491C110.572 61.9196 111.301 61.2796 112.193 61.1996C112.842 61.1196 113.409 61.5996 113.409 62.2396C113.328 62.3996 113.328 62.4796 113.328 62.5596Z" fill="#A5A5A5"/>
<path d="M89.2522 63.4398C88.9279 64.6398 88.6036 65.0398 88.1983 65.0398C88.0362 65.0398 87.9551 65.0398 87.793 64.9598L87.6309 65.5998C87.793 65.6798 88.0362 65.6798 88.1983 65.6798C89.009 65.6798 89.5764 65.1198 89.9818 63.5998L90.5492 61.4398H92.2516L91.3599 65.6798H92.1705L93.2244 60.7998H89.9007L89.2522 63.4398Z" fill="#A5A5A5"/>
<path d="M105.222 64.7198L104.574 60.7998H103.439L102.385 65.6798H103.195L104.006 61.7598H104.087L104.655 65.6798H105.465L107.735 61.7598L106.924 65.6798H107.735L108.789 60.7998H107.573L105.222 64.7198Z" fill="#A5A5A5"/>
<path d="M94.4416 62.0797C94.4416 62.1597 94.4416 62.2397 94.4416 62.3197C94.4416 62.9597 94.8469 63.4397 95.4954 63.5197L93.3066 65.5997H94.3605L96.3061 63.5197H97.3599L96.8735 65.5997H97.6842L98.738 60.7197H96.1439C95.3333 60.6397 94.5226 61.2797 94.4416 62.0797ZM97.8463 61.4397L97.522 62.9597H96.3871C95.9007 62.9597 95.2522 62.9597 95.2522 62.3197C95.2522 61.7597 95.6575 61.4397 96.3871 61.4397H97.8463Z" fill="#A5A5A5"/>
<path d="M118.518 59.0398C117.707 59.0398 116.897 59.4398 116.329 60.0798C115.6 61.1998 115.275 62.4798 115.194 63.7598C115.032 64.7998 115.762 65.6798 116.816 65.7598C116.978 65.7598 117.059 65.7598 117.221 65.7598C118.923 65.7598 119.977 64.2398 119.977 62.6398C120.058 61.6798 119.329 60.7998 118.356 60.7198C118.194 60.7198 118.113 60.7198 117.951 60.7198C117.221 60.7198 116.573 61.1198 116.167 61.7598C116.573 60.5598 117.221 59.9198 118.275 59.8398C119.167 59.7598 120.22 59.8398 120.464 58.7998H119.653C119.491 58.9598 119.167 58.9598 118.518 59.0398ZM117.87 61.3598C118.518 61.2798 119.086 61.7598 119.086 62.3998C119.086 62.4798 119.086 62.5598 119.086 62.6398C119.086 63.9998 118.275 65.0398 117.302 65.0398C116.654 65.0398 116.005 64.5598 116.005 63.8398C116.005 63.7598 116.005 63.6798 116.005 63.5998C116.005 62.6398 116.654 61.3598 117.87 61.3598Z" fill="#A5A5A5"/>
<path d="M127.272 63.4398C126.947 64.6398 126.623 65.0398 126.218 65.0398C126.056 65.0398 125.975 65.0398 125.813 64.9598L125.65 65.5998C125.813 65.6798 126.056 65.6798 126.218 65.6798C127.028 65.6798 127.596 65.1198 128.001 63.5998L128.569 61.4398H130.271L129.379 65.6798H130.19L131.244 60.7998H127.92L127.272 63.4398Z" fill="#A5A5A5"/>
<path d="M123.949 60.6396C123.868 60.6396 123.706 60.6396 123.625 60.6396C122.084 60.6396 120.95 61.9996 120.95 63.7596C120.868 64.7996 121.598 65.7596 122.652 65.8396C122.733 65.8396 122.895 65.8396 122.976 65.8396C124.03 65.9196 125.003 65.1996 125.246 64.1596H124.435C124.273 64.7996 123.706 65.1996 123.057 65.1996C122.247 65.1196 121.679 64.3996 121.76 63.6796C121.76 63.5996 121.76 63.5996 121.76 63.5196H125.489C125.57 63.2796 125.57 62.9596 125.57 62.7196C125.651 61.6796 124.922 60.7196 123.949 60.6396ZM124.76 62.5596C124.76 62.6396 124.76 62.7196 124.76 62.7196H121.922C122.003 61.9196 122.733 61.2796 123.625 61.1996C124.273 61.1196 124.841 61.5996 124.841 62.2396C124.76 62.3996 124.76 62.4796 124.76 62.5596Z" fill="#A5A5A5"/>
<path d="M76.7692 60.6396C76.6882 60.6396 76.526 60.6396 76.445 60.6396C74.9047 60.6396 73.7698 61.9996 73.7698 63.7596C73.6887 64.7996 74.4183 65.7596 75.4722 65.8396C75.5532 65.8396 75.7154 65.8396 75.7964 65.8396C76.8503 65.9196 77.8231 65.1996 78.0663 64.1596H77.2556C77.0935 64.7996 76.526 65.1996 75.8775 65.1996C75.229 65.1996 74.5805 64.7196 74.5805 63.9996C74.5805 63.9196 74.5805 63.8396 74.5805 63.7596C74.5805 63.6796 74.5805 63.5196 74.5805 63.4396H78.3095C78.3905 63.1996 78.3905 62.8796 78.3905 62.6396C78.5526 61.6796 77.8231 60.7196 76.7692 60.6396ZM77.6609 62.5596C77.6609 62.6396 77.6609 62.6396 77.6609 62.7196H74.8237C74.9047 61.9196 75.6343 61.2796 76.526 61.1996C77.1745 61.1196 77.742 61.5996 77.742 62.2396C77.6609 62.3996 77.6609 62.4796 77.6609 62.5596Z" fill="#A5A5A5"/>
<path d="M59.8259 60.6396C59.7448 60.6396 59.5827 60.6396 59.5016 60.6396C57.9614 60.6396 56.8265 61.9996 56.8265 63.7596C56.7454 64.7996 57.475 65.7596 58.5288 65.8396C58.6099 65.8396 58.772 65.8396 58.8531 65.8396C59.9069 65.9196 60.8797 65.1996 61.1229 64.1596H60.3123C60.1501 64.7996 59.5827 65.1996 58.9341 65.1996C58.1235 65.1196 57.556 64.4796 57.6371 63.6796C57.6371 63.5996 57.6371 63.5196 57.6371 63.5196H61.3661C61.4472 63.2796 61.4472 62.9596 61.4472 62.7196C61.5282 61.6796 60.7986 60.7196 59.8259 60.6396ZM60.6365 62.5596C60.6365 62.6396 60.6365 62.7196 60.6365 62.7196H57.7992C57.8803 61.9196 58.6099 61.2796 59.5016 61.1996C60.1501 61.1196 60.7176 61.5996 60.7176 62.2396C60.7176 62.3996 60.6365 62.4796 60.6365 62.5596Z" fill="#A5A5A5"/>
<path d="M54.3943 64.9598H52.2866L53.2594 60.7998H52.4487L51.476 64.9598H49.4493L50.3411 60.7998H49.5304L48.4766 65.6798H55.0428L56.0967 60.7998H55.286L54.3943 64.9598Z" fill="#A5A5A5"/>
<path d="M135.866 60.7197L132.866 64.7197L133.677 60.7197H132.866L131.812 65.6797H132.947L136.028 61.6797L135.136 65.6797H135.947L137.001 60.7197H135.866Z" fill="#A5A5A5"/>
<path d="M46.1266 60.6396C46.0456 60.6396 45.8835 60.6396 45.8024 60.6396C44.2621 60.6396 43.1272 61.9996 43.1272 63.7596C43.0462 64.7996 43.7758 65.7596 44.8296 65.8396C44.9107 65.8396 45.0728 65.8396 45.1539 65.8396C46.2077 65.9196 47.1805 65.1996 47.4237 64.1596H46.613C46.4509 64.7996 45.8834 65.1996 45.2349 65.1996C44.5864 65.1996 43.9379 64.7196 43.9379 63.9996C43.9379 63.9196 43.9379 63.8396 43.9379 63.7596C43.9379 63.6796 43.9379 63.5196 43.9379 63.4396H47.6669C47.7479 63.1996 47.7479 62.8796 47.7479 62.6396C47.9101 61.6796 47.1805 60.7196 46.1266 60.6396ZM47.0184 62.5596C47.0184 62.6396 47.0184 62.6396 47.0184 62.7196H44.1811C44.2621 61.9196 44.9917 61.2796 45.8834 61.1996C46.532 61.1196 47.0994 61.5996 47.0994 62.2396C47.0184 62.3996 47.0184 62.4796 47.0184 62.5596Z" fill="#A5A5A5"/>
<path d="M68.9064 64.7198L69.7981 60.7998H68.9874L67.9336 65.6798H68.9874L72.0679 61.6798L71.1762 65.6798H71.9869L73.0407 60.7998H71.9869L68.9064 64.7198Z" fill="#A5A5A5"/>
<path d="M66.0689 62.7198H63.6369L64.0422 60.7998H63.2316L62.1777 65.6798H62.9884L63.4748 63.3598H65.9067L65.5014 65.6798H66.3121L67.3659 60.7998H66.5553L66.0689 62.7198Z" fill="#A5A5A5"/>
<path d="M95.3333 32.3203H85.7676V44.4803H96.7114C98.6569 44.4803 100.846 40.8003 100.846 38.4003C100.846 35.9203 98.0895 32.3203 95.3333 32.3203ZM94.5226 40.7203C92.2528 40.7203 90.5504 40.7203 90.5504 40.7203V36.0003C90.5504 36.0003 91.9285 36.0003 94.5226 36.0003C97.1167 36.0803 96.7924 40.7203 94.5226 40.7203Z" fill="#A5A5A5"/>
</svg>
