<svg width="131" height="27" viewBox="0 0 131 27" fill="none" xmlns="http://www.w3.org/2000/svg">
<path fill-rule="evenodd" clip-rule="evenodd" d="M77.945 10.4733L74.5063 18.1639L69.8394 10.4733H61.7338L57.1488 20.4547L54.8563 10.3914H47.5694C47.5694 10.3914 46.505 10.3914 45.6044 10.8005C44.8675 11.1278 44.2944 11.6187 44.2944 11.6187L37.4988 17.5912C33.3231 20.8638 25.9544 22.8273 23.9075 22.9092C14.0825 23.3182 12.0356 16.6912 12.7725 13.5004C14.4919 5.31892 27.1825 3.43717 33.8144 3.43717C36.9256 3.43717 39.5456 4.09169 41.5925 4.58258L43.5575 1.14635L42.0019 0.819085C40.2825 0.573639 37.4988 0.000931432 32.8319 0.000931432C13.9188 -0.0808837 4.25751 5.2371 1.31001 12.0277C-2.04686 19.7184 3.60252 26.5908 19.4044 26.5908C22.27 26.5908 27.9194 26.3454 33.2413 24.3818H38.4813L41.1013 22.0092H49.0431L49.3706 24.5455H58.1313V24.4636H62.7981L66.4825 16.3639L71.3131 24.4636H78.8456L85.3138 10.3914H77.945V10.4733ZM44.1306 19.3093L48.3881 15.3004L48.7975 19.2275L44.1306 19.3093Z" fill="#A5A5A5"/>
<path fill-rule="evenodd" clip-rule="evenodd" d="M99.1504 10.4727H87.2785L80.7285 24.5449H92.6004C102.098 24.6267 105.946 20.945 107.256 18.1633C108.73 15.0543 107.502 10.4727 99.1504 10.4727ZM100.297 17.2633C99.396 20.7814 94.156 21.0268 92.3548 21.0268H90.226L93.3373 13.9907H95.466C97.5129 13.9907 101.115 14.318 100.297 17.2633Z" fill="#A5A5A5"/>
<path fill-rule="evenodd" clip-rule="evenodd" d="M122.403 10.3916L116.508 16.2823L114.543 10.4733H107.256L112.005 21.1912L107.256 25.8546H113.478C113.478 25.8546 114.706 25.691 115.198 25.5273C115.689 25.3637 116.426 24.6274 116.426 24.6274L130.59 10.3916H122.403Z" fill="#A5A5A5"/>
</svg>
