<svg width="125" height="37" viewBox="0 0 125 37" fill="none" xmlns="http://www.w3.org/2000/svg">
<path d="M17.6946 9.97391C20.4543 9.97391 22.727 7.72174 22.727 4.98696C22.727 2.25217 20.4543 0 17.6946 0C14.9348 0 12.6621 2.25217 12.6621 4.98696C12.6621 7.72174 14.9348 9.97391 17.6946 9.97391Z" fill="#C0C0C0"/>
<path d="M29.7887 22.6018C30.4381 22.6018 30.9251 22.1193 30.9251 21.4758C30.9251 20.8323 30.4381 20.3496 29.7887 20.3496C29.1394 20.3496 28.6523 20.8323 28.6523 21.4758C28.7335 22.0388 29.2205 22.6018 29.7887 22.6018Z" fill="#A5A5A5"/>
<path d="M28.9773 26.1416C29.6266 26.1416 30.1948 25.5785 30.1948 24.935C30.1948 24.2916 29.6266 23.7285 28.9773 23.7285C28.3279 23.7285 27.7598 24.2916 27.7598 24.935C27.7598 25.5785 28.2468 26.1416 28.9773 26.1416Z" fill="#A5A5A5"/>
<path d="M27.1112 29.1979C27.8417 29.1979 28.4099 28.6349 28.4099 27.911C28.4099 27.1871 27.8417 26.624 27.1112 26.624C26.3807 26.624 25.8125 27.1871 25.8125 27.911C25.8125 28.6349 26.3807 29.1979 27.1112 29.1979Z" fill="#A5A5A5"/>
<path d="M22.9708 31.2893C23.7825 31.2893 24.4318 30.6457 24.4318 29.8414C24.4318 29.037 23.7825 28.3936 22.9708 28.3936C22.1591 28.3936 21.5098 29.037 21.5098 29.8414C21.5098 30.6457 22.1591 31.2893 22.9708 31.2893Z" fill="#A5A5A5"/>
<path d="M17.7768 32.7367C18.7508 32.7367 19.4814 32.0127 19.4814 31.0475C19.4814 30.0823 18.7508 29.3584 17.7768 29.3584C16.8028 29.3584 16.0723 30.0823 16.0723 31.0475C16.0723 31.9323 16.8028 32.7367 17.7768 32.7367Z" fill="#A5A5A5"/>
<path d="M11.1199 31.772C12.1751 31.772 13.068 30.8871 13.068 29.8415C13.068 28.7958 12.1751 27.9111 11.1199 27.9111C10.0647 27.9111 9.17188 28.7958 9.17188 29.8415C9.17188 30.8871 10.0647 31.772 11.1199 31.772Z" fill="#A5A5A5"/>
<path d="M5.11343 27.5886C6.33097 27.5886 7.30499 26.6234 7.30499 25.4169C7.30499 24.2103 6.33097 23.2451 5.11343 23.2451C3.8959 23.2451 2.92188 24.2103 2.92188 25.4169C2.92188 26.6234 3.8959 27.5886 5.11343 27.5886Z" fill="#A5A5A5"/>
<path d="M3.08482 19.5464C4.54586 19.5464 5.84456 18.3398 5.84456 16.8116C5.84456 15.3638 4.62703 14.1572 3.08482 14.1572C1.62378 14.1572 0.40625 15.3638 0.40625 16.8116C0.40625 18.3398 1.62378 19.5464 3.08482 19.5464Z" fill="#A5A5A5"/>
<path d="M7.46814 11.985C9.49736 11.985 11.2019 10.2958 11.2019 8.28492C11.2019 6.27409 9.49736 4.58496 7.46814 4.58496C5.43892 4.58496 3.73438 6.27409 3.73438 8.28492C3.73438 10.2958 5.43892 11.985 7.46814 11.985Z" fill="#A5A5A5"/>
<path d="M44.8047 7.96302C44.8047 6.83693 45.6975 5.95215 46.8339 5.95215C47.9703 5.95215 48.8631 6.83693 48.8631 7.96302V24.6935H65.6651C66.8015 24.6935 67.6943 25.5782 67.6943 26.7043C67.6943 27.8304 66.8015 28.7152 65.6651 28.7152H46.8339C45.6975 28.7152 44.8047 27.8304 44.8047 26.7043V7.96302Z" fill="#A5A5A5"/>
<path d="M93.8313 24.6935C94.9677 24.6935 95.8605 25.5782 95.8605 26.7043C95.8605 27.8304 94.9677 28.7152 93.8313 28.7152H74.8378C73.7015 28.7152 72.8086 27.8304 72.8086 26.7043V7.96302C72.8086 6.83693 73.7015 5.95215 74.8378 5.95215H93.7502C94.8865 5.95215 95.7794 6.83693 95.7794 7.96302C95.7794 9.08911 94.8865 9.97389 93.7502 9.97389H76.867V24.6935H93.8313Z" fill="#A5A5A5"/>
<path d="M101.786 9.24953C100.974 8.44519 100.974 7.15823 101.786 6.43432C102.598 5.62997 103.896 5.62997 104.627 6.43432L114.124 15.7648C114.935 16.5691 114.935 17.8561 114.124 18.58L104.383 28.1517C103.572 28.9561 102.273 28.9561 101.542 28.1517C100.731 27.3474 100.731 26.0604 101.542 25.3365L109.822 17.2126L101.786 9.24953Z" fill="#A5A5A5"/>
<path d="M118.587 14.5586C117.776 15.3629 116.477 15.3629 115.665 14.5586C114.854 13.7542 114.854 12.4673 115.665 11.7434L121.104 6.35424C121.915 5.54989 123.214 5.54989 124.026 6.35424C124.837 7.15859 124.837 8.44554 124.026 9.24989L118.587 14.5586Z" fill="#A5A5A5"/>
<path d="M115.583 22.603C114.772 21.7987 114.772 20.5117 115.583 19.7878C116.395 18.9835 117.694 18.9835 118.424 19.7878L123.944 25.2574C124.755 26.0617 124.755 27.3487 123.944 28.0726C123.132 28.877 121.833 28.877 121.022 28.0726L115.583 22.603Z" fill="#A5A5A5"/>
<path d="M45.2109 36.3563V32.415H45.7791V35.8737H47.5648V36.3563H45.2109ZM52.8408 36.3563V32.415H53.409V36.3563H52.8408ZM59.5778 32.8977V34.0237H60.9577V34.5064H59.5778V36.4369H59.0096V32.4956H61.4447V32.9781L59.5778 32.8977ZM67.2889 32.8977V34.0237H68.5876V34.5064H67.2889V35.9542H69.0746V36.4369H66.7207V32.4956H69.0746V32.9781L67.2889 32.8977Z" fill="#A5A5A5"/>
<path d="M81.4119 32.8977V34.0237H82.7106V34.5064H81.4119V35.9542H83.1976V36.4369H80.8438V32.4956H83.1976V32.9781L81.4119 32.8977ZM90.6652 36.3563L89.6912 34.7476L88.7171 36.3563H88.1489L89.3665 34.3456L88.2301 32.415H88.7983L89.6912 33.8629L90.584 32.415H91.1522L89.9347 34.3456L91.1522 36.3563H90.6652ZM96.9964 34.8282V36.3563H96.4282V32.415C96.834 32.415 97.0775 32.415 97.1587 32.415C98.2951 32.415 98.8632 32.8173 98.8632 33.5412C98.8632 34.426 98.3762 34.9086 97.321 34.9086C97.321 34.9086 97.1587 34.9086 96.9964 34.8282ZM96.9964 32.8977V34.3456C97.2399 34.3456 97.321 34.3456 97.4022 34.3456C98.0515 34.3456 98.4574 34.1043 98.4574 33.5412C98.4574 33.0586 98.0515 32.8172 97.4022 32.8172C97.2399 32.8976 97.0775 32.8977 96.9964 32.8977ZM104.87 32.8977V34.0237H106.168V34.5064H104.87V35.9542H106.655V36.4369H104.302V32.4956H106.655V32.9781L104.87 32.8977ZM114.204 36.3563L113.149 34.6672C112.987 34.6672 112.824 34.6672 112.581 34.6672V36.3563H112.013V32.415C112.013 32.415 112.175 32.415 112.418 32.415C112.662 32.415 112.905 32.415 112.987 32.415C113.961 32.415 114.448 32.8173 114.448 33.5412C114.448 33.7825 114.366 34.0237 114.204 34.1846C114.042 34.4259 113.879 34.5063 113.636 34.5868L114.772 36.4369H114.204V36.3563ZM112.581 32.8977V34.1846C112.743 34.1846 112.824 34.1846 112.987 34.1846C113.311 34.1846 113.555 34.1042 113.717 34.0237C113.879 33.9433 113.961 33.702 113.961 33.4607C113.961 33.2194 113.879 33.0585 113.717 32.9781C113.555 32.8976 113.311 32.8172 112.987 32.8172C112.824 32.8976 112.743 32.8977 112.581 32.8977ZM121.185 32.8977V36.3563H120.616V32.8977H119.318V32.415H122.483V32.8977H121.185Z" fill="#A5A5A5"/>
<path d="M80.4389 19.385C79.4649 19.385 78.7344 18.5002 78.7344 17.3742C78.7344 16.2481 79.4649 15.3633 80.4389 15.3633H90.9097C91.8837 15.3633 92.6143 16.2481 92.6143 17.3742C92.6143 18.5002 91.8837 19.385 90.9097 19.385H80.4389Z" fill="#A5A5A5"/>
</svg>
