<svg width="116" height="30" viewBox="0 0 116 30" fill="none" xmlns="http://www.w3.org/2000/svg">
<path fill-rule="evenodd" clip-rule="evenodd" d="M111.098 2.35133C111.098 1.78376 111.343 1.21619 111.752 0.729706C112.16 0.3243 112.732 0.0810547 113.385 0.0810547C113.957 0.0810547 114.529 0.3243 115.019 0.729706C115.428 1.13511 115.673 1.70268 115.673 2.35133C115.673 2.91889 115.428 3.48646 115.019 3.97295C114.611 4.37835 114.039 4.6216 113.385 4.6216C112.813 4.6216 112.242 4.37835 111.752 3.97295C111.261 3.48646 111.098 2.91889 111.098 2.35133ZM111.343 2.35133C111.343 1.86484 111.506 1.37835 111.915 0.972948C112.323 0.567543 112.813 0.40538 113.304 0.40538C113.794 0.40538 114.284 0.567543 114.692 0.972948C115.101 1.37835 115.264 1.86484 115.264 2.35133C115.264 2.83781 115.101 3.3243 114.692 3.7297C114.284 4.13511 113.794 4.29727 113.304 4.29727C112.813 4.29727 112.323 4.13511 111.915 3.7297C111.588 3.3243 111.343 2.83781 111.343 2.35133ZM112.977 2.18916H113.467C113.549 2.18916 113.63 2.18916 113.63 2.10808C113.712 2.027 113.712 2.027 113.712 1.94592C113.712 1.86484 113.712 1.86484 113.63 1.78376C113.549 1.78376 113.549 1.70268 113.467 1.70268H112.977V2.18916ZM112.977 3.56754H112.242V1.21619H113.712C113.875 1.21619 114.039 1.29727 114.202 1.37835C114.366 1.45943 114.447 1.6216 114.529 1.78376C114.529 2.027 114.529 2.18916 114.366 2.35133C114.284 2.43241 114.202 2.43241 114.121 2.51349C114.284 2.51349 114.447 2.67565 114.447 2.83781C114.447 2.91889 114.447 2.91889 114.447 2.99998C114.447 3.16214 114.447 3.3243 114.529 3.48646C114.529 3.56754 114.529 3.56754 114.611 3.64862H113.875C113.875 3.56754 113.794 3.56754 113.794 3.48646C113.794 3.3243 113.794 3.16214 113.712 3.08106C113.712 2.99998 113.712 2.99998 113.63 2.91889C113.549 2.83781 113.549 2.83781 113.467 2.83781H113.059V3.56754H112.977ZM1.87828 28.2162L6.61631 16.3784C6.698 16.054 6.94307 15.8919 7.26983 15.8108C7.59659 15.7297 7.92335 15.8108 8.16842 15.9729C8.74025 16.3784 9.23039 16.8648 9.72054 17.3513C9.88392 17.5135 10.129 17.5135 10.2924 17.4324C10.4557 17.3513 10.5374 17.1081 10.5374 16.8648C10.3741 13.9459 10.129 11.2702 9.88392 8.35133C9.88392 8.10808 9.72054 7.94592 9.47547 7.86484C9.2304 7.78376 9.06701 7.86484 8.90363 8.027L2.45011 14.027C2.28673 14.1081 2.28673 14.3513 2.36842 14.5135C2.45011 14.6757 2.61349 14.7567 2.77687 14.7567C3.4304 14.8378 4.00223 14.8378 4.65575 14.8378C5.0642 14.8378 5.39096 15 5.63603 15.3243C5.8811 15.6486 5.96279 16.054 5.79941 16.3784L1.06138 28.2973L0.326172 28.3784L4.98251 16.4594C5.0642 16.2162 5.0642 15.9729 4.90082 15.8108C4.73744 15.6486 4.57406 15.4865 4.32899 15.4865C3.59378 15.4054 3.02194 15.4054 2.28673 15.4865C1.87828 15.4865 1.55152 15.2432 1.38814 14.8378C1.22476 14.5135 1.30645 14.1081 1.63321 13.7838L8.41349 7.45943C8.74025 7.13511 9.23039 6.97295 9.72054 7.13511C10.2107 7.29727 10.4557 7.70268 10.5374 8.18916C10.7008 11.3513 10.9459 14.1892 11.191 17.3513C11.2726 17.7567 11.0276 18.1621 10.7008 18.4054C10.3741 18.6486 9.88391 18.6486 9.55715 18.4054C8.90363 17.9189 8.41349 17.5135 7.84166 16.9459C7.75997 16.7838 7.59659 16.7838 7.43321 16.7838C7.26983 16.7838 7.10645 16.9459 7.02476 17.027C5.22758 20.8378 3.83885 24.3243 2.5318 28.2973L1.87828 28.2162ZM22.3008 22.9459C22.7093 23.5135 23.3628 23.8378 24.2614 23.8378C25.16 23.8378 26.0586 23.5135 26.9572 22.9459C27.7741 22.3784 28.4276 21.7297 28.9994 21C30.1431 19.3784 30.7966 17.7567 30.8783 16.2162C30.8783 15.4865 30.7149 14.8378 30.3881 14.2702C29.9797 13.7027 29.2445 13.3784 28.4276 13.3784C27.529 13.3784 26.6304 13.7027 25.7318 14.2702C24.9149 14.8378 24.2614 15.4865 23.6895 16.2162C22.4642 17.8378 21.8107 19.4594 21.8107 21.0811C21.729 21.8108 21.8924 22.4594 22.3008 22.9459ZM10.6191 28.4594L21.4022 0.891867H29.4079L25.7318 10.2162C28.591 8.59457 31.4501 7.86484 34.2276 8.10808C37.0867 8.35133 39.0473 9.97295 39.4557 12.4865C40.1093 16.3784 38.3121 20.9189 34.636 24.8108C32.1853 27.3243 28.9994 29.027 25.8952 29.2702C23.036 29.5135 20.667 28.6216 19.36 26.8378L18.7064 28.5405H10.6191V28.4594ZM36.1881 28.4594L46.9712 0.891867H55.3036L44.5205 28.4594H36.1881ZM75.8079 8.83781L68.129 28.4594H60.2867L61.0219 26.5946C59.96 27.4054 58.898 27.9729 57.6726 28.3784C54.8952 29.2702 52.3628 29.3513 50.2388 28.4594C47.7881 27.4865 46.9712 24.9729 48.1149 22.1351L53.2614 8.91889H61.4304L56.8557 20.5946C56.529 21.4054 56.6107 22.1351 56.9374 22.7027C57.2642 23.2702 57.9177 23.5946 58.7346 23.5946C59.5515 23.5946 60.4501 23.2702 61.3487 22.7027C62.1656 22.1351 62.8191 21.4054 63.1459 20.5946L67.7205 8.91889H75.8079V8.83781ZM76.7881 8.83781H84.0586L83.2417 11.027C86.1008 8.75673 89.4501 7.70268 92.3093 8.18916C94.1064 8.51349 95.3318 9.56754 95.8219 11.1892C97.0473 10.1351 98.3543 9.40538 99.8248 8.83781C102.275 7.94592 104.563 7.78376 106.523 8.43241C109.056 9.3243 110.036 12.0811 108.892 15.0811L104.073 28.3784H96.5571L100.805 16.7027C101.132 15.8919 101.05 15.1621 100.723 14.5135C100.397 13.9459 99.7431 13.6216 98.9262 13.6216C98.1909 13.6216 97.374 13.9459 96.5571 14.5135C95.8219 15.0811 95.2501 15.8108 94.9233 16.6216L90.6755 28.3784H82.9149L87.1628 16.7027C87.4895 15.8919 87.4079 15.0811 87.0811 14.5135C86.6726 13.9459 86.0191 13.6216 85.2022 13.7027C84.467 13.7027 83.6501 14.027 82.9149 14.5946C82.1797 15.1621 81.6895 15.8919 81.3628 16.6216L77.0332 28.3784H69.436L76.7881 8.83781Z" fill="#A5A5A5"/>
</svg>
