<svg width="33" height="33" viewBox="0 0 33 33" fill="none" xmlns="http://www.w3.org/2000/svg">
<path d="M11.3438 7.21875C12.1643 7.21875 12.9512 7.5447 13.5314 8.12489C14.1116 8.70508 14.4375 9.49199 14.4375 10.3125V22.6875C14.4375 23.508 14.1116 24.2949 13.5314 24.8751C12.9512 25.4553 12.1643 25.7812 11.3438 25.7812C10.5232 25.7812 9.73633 25.4553 9.15614 24.8751C8.57595 24.2949 8.25 23.508 8.25 22.6875V10.3125C8.25 9.49199 8.57595 8.70508 9.15614 8.12489C9.73633 7.5447 10.5232 7.21875 11.3438 7.21875ZM21.6562 7.21875C22.4768 7.21875 23.2637 7.5447 23.8439 8.12489C24.4241 8.70508 24.75 9.49199 24.75 10.3125V22.6875C24.75 23.508 24.4241 24.2949 23.8439 24.8751C23.2637 25.4553 22.4768 25.7812 21.6562 25.7812C20.8357 25.7812 20.0488 25.4553 19.4686 24.8751C18.8884 24.2949 18.5625 23.508 18.5625 22.6875V10.3125C18.5625 9.49199 18.8884 8.70508 19.4686 8.12489C20.0488 7.5447 20.8357 7.21875 21.6562 7.21875Z" fill="#0498CE"/>
</svg>
