<svg width="12" height="12" viewBox="0 0 12 12"  xmlns="http://www.w3.org/2000/svg">
<path d="M0.167913 4.34766C0.154496 4.56697 0.288663 4.77133 0.50683 4.86311L4.88416 6.69973L6.892 10.7033C6.98766 10.8932 7.19533 11.0144 7.42225 11.0144L7.4555 11.0133C7.57257 11.0073 7.68495 10.9692 7.77798 10.9039C7.87101 10.8386 7.94036 10.7491 7.977 10.6472L11.2407 1.55911C11.309 1.36808 11.2542 1.15731 11.099 1.01484C10.9438 0.872376 10.714 0.823819 10.504 0.885182L0.56808 3.87063C0.456691 3.90414 0.358929 3.96758 0.287546 4.05268C0.216163 4.13777 0.174472 4.24057 0.167913 4.34766ZM9.77191 2.22877L7.33241 9.02139L5.85425 6.0749C5.79611 5.95873 5.69424 5.86555 5.56725 5.81237L2.34491 4.46025L9.77191 2.22877Z"/>
</svg>
