<svg width="65" height="65" viewBox="0 0 65 65" fill="none" xmlns="http://www.w3.org/2000/svg">
<path d="M18.2456 45.3557C16.169 48.909 15.0754 52.9509 15.0768 57.0665C15.0768 57.7848 14.7915 58.4737 14.2836 58.9816C13.7757 59.4895 13.0868 59.7749 12.3685 59.7749C11.6502 59.7749 10.9613 59.4895 10.4534 58.9816C9.9455 58.4737 9.66016 57.7848 9.66016 57.0665C9.66016 51.3167 11.3854 45.7917 14.4945 41.1442C12.4598 38.0212 11.3906 34.3677 11.4204 30.6404C11.4503 26.9131 12.5779 23.2772 14.6624 20.1872C18.5679 14.3995 31.362 9.29695 53.0395 4.87695C52.3137 23.4317 50.0008 35.603 46.0981 41.3907C44.6156 43.5887 42.6886 45.4514 40.4415 46.8584C38.1944 48.2654 35.6772 49.1854 33.0524 49.559C30.4277 49.9327 27.7537 49.7517 25.2032 49.0276C22.6528 48.3036 20.2825 47.0527 18.2456 45.3557ZM21.5118 41.0224C22.9599 42.277 24.6578 43.2101 26.4933 43.7599C28.3288 44.3098 30.26 44.4638 32.1594 44.2119C34.0589 43.96 35.8832 43.3079 37.5119 42.2987C39.1406 41.2895 40.5366 39.9461 41.6077 38.3574C44.3268 34.3274 46.312 25.3167 47.2518 11.6803C31.1562 15.4367 21.6229 19.5588 19.1529 23.2178C17.8274 25.1814 17.0405 27.4585 16.8708 29.8216C16.7012 32.1846 17.1547 34.5508 18.186 36.6836C19.3506 35.538 20.6154 34.4872 21.9777 33.542L23.3535 32.5886C23.9439 32.1796 24.6727 32.0218 25.3794 32.15C26.0862 32.2783 26.7131 32.682 27.1221 33.2725C27.5312 33.8629 27.689 34.5917 27.5607 35.2984C27.4325 36.0052 27.0287 36.6321 26.4383 37.0411L25.0652 37.9945C23.7818 38.8826 22.5913 39.8979 21.5118 41.0251V41.0224Z" fill="white"/>
</svg>
