<svg width="71" height="71" viewBox="0 0 71 71" fill="none" xmlns="http://www.w3.org/2000/svg">
<path d="M23.666 65.0835L35.4993 59.1668L47.3327 65.0835V36.8965C44.0818 39.8128 39.8667 41.423 35.4993 41.4168C31.132 41.423 26.9169 39.8128 23.666 36.8965V65.0835Z" stroke="white" stroke-width="4" stroke-linecap="round" stroke-linejoin="round"/>
<path d="M53.25 23.667C53.2528 26.1647 52.727 28.6348 51.7073 30.9149C50.6875 33.195 49.1969 35.2336 47.3333 36.8967C44.0824 39.813 39.8673 41.4232 35.5 41.417C31.1327 41.4232 26.9176 39.813 23.6667 36.8967C21.8031 35.2336 20.3125 33.195 19.2928 30.9149C18.273 28.6348 17.7473 26.1647 17.75 23.667C17.75 13.8646 25.6976 5.91699 35.5 5.91699C45.3024 5.91699 53.25 13.8646 53.25 23.667Z" stroke="white" stroke-width="4" stroke-linecap="round" stroke-linejoin="round"/>
</svg>
