<svg width="49" height="50" viewBox="0 0 49 50" fill="none" xmlns="http://www.w3.org/2000/svg">
<path d="M29.1032 50H20.0032C19.433 50.0001 18.8799 49.8053 18.4357 49.4479C17.9914 49.0905 17.6827 48.592 17.5607 48.035L16.5432 43.325C15.1858 42.7303 13.8988 41.9865 12.7057 41.1075L8.11318 42.57C7.56958 42.7433 6.98305 42.7255 6.45098 42.5195C5.9189 42.3135 5.47331 41.9317 5.18818 41.4375L0.628178 33.56C0.346041 33.0653 0.240134 32.4896 0.327784 31.9269C0.415433 31.3642 0.69145 30.8479 1.11068 30.4625L4.67318 27.2125C4.51117 25.7403 4.51117 24.2547 4.67318 22.7825L1.11068 19.54C0.690856 19.1544 0.414464 18.6377 0.3268 18.0745C0.239136 17.5112 0.345401 16.9349 0.628178 16.44L5.17818 8.5575C5.4633 8.06329 5.9089 7.68148 6.44098 7.47547C6.97305 7.26946 7.55959 7.25165 8.10318 7.425L12.6957 8.8875C13.3057 8.4375 13.9407 8.0175 14.5957 7.6375C15.2282 7.2825 15.8782 6.96 16.5432 6.6725L17.5632 1.9675C17.6846 1.41049 17.9928 0.911719 18.4365 0.553872C18.8803 0.196025 19.4331 0.000599915 20.0032 0H29.1032C29.6733 0.000599915 30.226 0.196025 30.6698 0.553872C31.1136 0.911719 31.4217 1.41049 31.5432 1.9675L32.5732 6.675C33.9297 7.26975 35.216 8.01348 36.4082 8.8925L41.0032 7.43C41.5464 7.25729 42.1324 7.27543 42.6639 7.4814C43.1955 7.68738 43.6407 8.06882 43.9257 8.5625L48.4757 16.445C49.0557 17.4625 48.8557 18.75 47.9932 19.5425L44.4307 22.7925C44.5927 24.2647 44.5927 25.7503 44.4307 27.2225L47.9932 30.4725C48.8557 31.2675 49.0557 32.5525 48.4757 33.57L43.9257 41.4525C43.6405 41.9467 43.1949 42.3285 42.6629 42.5345C42.1308 42.7405 41.5443 42.7584 41.0007 42.585L36.4082 41.1225C35.216 42.0009 33.9298 42.7438 32.5732 43.3375L31.5432 48.035C31.4213 48.5915 31.1129 49.0897 30.6691 49.4471C30.2254 49.8045 29.6729 49.9995 29.1032 50ZM13.6032 35.5725L15.6532 37.0725C16.1157 37.4125 16.5957 37.725 17.0957 38.01C17.5657 38.2825 18.0457 38.5275 18.5432 38.75L20.8757 39.7725L22.0182 45H27.0932L28.2357 39.77L30.5682 38.7475C31.5857 38.2975 32.5532 37.74 33.4507 37.0825L35.5007 35.5825L40.6057 37.2075L43.1432 32.8125L39.1857 29.205L39.4657 26.675C39.5907 25.5675 39.5907 24.45 39.4657 23.345L39.1857 20.815L43.1457 17.2L40.6057 12.8025L35.5032 14.4275L33.4507 12.9275C32.5527 12.2667 31.5863 11.7043 30.5682 11.25L28.2357 10.2275L27.0932 5H22.0182L20.8682 10.23L18.5432 11.25C17.5236 11.6965 16.5569 12.2549 15.6607 12.915L13.6082 14.415L8.50818 12.79L5.96568 17.2L9.92318 20.8025L9.64318 23.335C9.51818 24.4425 9.51818 25.56 9.64318 26.665L9.92318 29.195L5.96568 32.8025L8.50318 37.1975L13.6032 35.5725ZM24.5432 35C21.891 35 19.3475 33.9464 17.4721 32.0711C15.5967 30.1957 14.5432 27.6522 14.5432 25C14.5432 22.3478 15.5967 19.8043 17.4721 17.9289C19.3475 16.0536 21.891 15 24.5432 15C27.1953 15 29.7389 16.0536 31.6142 17.9289C33.4896 19.8043 34.5432 22.3478 34.5432 25C34.5432 27.6522 33.4896 30.1957 31.6142 32.0711C29.7389 33.9464 27.1953 35 24.5432 35ZM24.5432 20C23.5641 20.001 22.6068 20.2894 21.7901 20.8295C20.9735 21.3696 20.3333 22.1376 19.9492 23.0382C19.565 23.9388 19.4537 24.9324 19.6291 25.8956C19.8045 26.8589 20.2588 27.7495 20.9358 28.4569C21.6127 29.1643 22.4825 29.6574 23.4371 29.875C24.3917 30.0926 25.3892 30.0251 26.3058 29.6809C27.2225 29.3367 28.0179 28.731 28.5933 27.9389C29.1688 27.1468 29.4991 26.2031 29.5432 25.225V26.225V25C29.5432 23.6739 29.0164 22.4021 28.0787 21.4645C27.141 20.5268 25.8693 20 24.5432 20Z" fill="white"/>
</svg>
