<svg width="34" height="34" viewBox="0 0 34 34" fill="none" xmlns="http://www.w3.org/2000/svg">
<path d="M26.9167 14.1667H7.08333C5.51853 14.1667 4.25 15.4353 4.25 17.0001V28.3334C4.25 29.8982 5.51853 31.1667 7.08333 31.1667H26.9167C28.4815 31.1667 29.75 29.8982 29.75 28.3334V17.0001C29.75 15.4353 28.4815 14.1667 26.9167 14.1667Z" stroke="#2E3831" stroke-width="2.333" stroke-linecap="round" stroke-linejoin="round"/>
<path d="M8.5 8.5C8.5 7.37283 8.94777 6.29183 9.7448 5.4948C10.5418 4.69777 11.6228 4.25 12.75 4.25H21.25C22.3772 4.25 23.4582 4.69777 24.2552 5.4948C25.0522 6.29183 25.5 7.37283 25.5 8.5V14.1667H8.5V8.5Z" stroke="#2E3831" stroke-width="2.333" stroke-linecap="round" stroke-linejoin="round"/>
</svg>
