<svg width="53" height="18" viewBox="0 0 53 18" fill="none" xmlns="http://www.w3.org/2000/svg">
<g clip-path="url(#clip0)">
<path d="M23.014 16.2421H18.806L21.438 0.000103502H25.645L23.014 16.2421ZM37.613 0.705103C36.3901 0.233392 35.0898 -0.0057096 33.779 0.000103502C29.558 0.000103502 26.585 2.2541 26.567 5.4751C26.532 7.8521 28.695 9.1731 30.313 9.9651C31.967 10.7751 32.529 11.3041 32.529 12.0251C32.512 13.1351 31.193 13.6451 29.962 13.6451C28.255 13.6451 27.341 13.3821 25.952 12.7651L25.388 12.5011L24.79 16.2161C25.793 16.6731 27.64 17.0791 29.558 17.0961C34.043 17.0961 36.963 14.8781 36.998 11.4451C37.015 9.5611 35.872 8.1171 33.409 6.9371C31.914 6.1801 31 5.6701 31 4.8951C31.017 4.1901 31.774 3.4691 33.462 3.4691C34.852 3.4341 35.872 3.7681 36.646 4.1031L37.033 4.2781L37.613 0.705103ZM44.247 10.4881C44.601 9.5551 45.959 5.9441 45.959 5.9441C45.942 5.9781 46.312 4.9941 46.524 4.3891L46.824 5.7891C46.824 5.7891 47.635 9.6761 47.812 10.4891H44.247V10.4881ZM49.541 0.000103502H46.224C45.201 0.000103502 44.424 0.293104 43.982 1.3481L37.612 16.2421H42.112L43.012 13.8061H48.518C48.641 14.3761 49.03 16.2421 49.03 16.2421H53L49.54 0.000103502H49.541ZM4.48 2.0671C3.161 1.3371 1.665 0.750103 0 0.335104L0.073 0.000103502H7.18C8.143 0.0351035 8.925 0.335104 9.18 1.3951L10.724 9.0231C10.036 7.2011 8.896 5.5191 7.333 4.0981C8.791 5.4961 9.936 7.2121 10.425 8.8381L10.886 11.0881L15.106 0.000103502H19.661L12.89 16.2421H8.333L4.48 2.0671Z" fill="white"/>
</g>
<defs>
<clipPath id="clip0">
<rect width="53" height="18" fill="white"/>
</clipPath>
</defs>
</svg>
