<svg width="34" height="34" viewBox="0 0 34 34" fill="none" xmlns="http://www.w3.org/2000/svg">
<g clip-path="url(#clip0)">
<path fill-rule="evenodd" clip-rule="evenodd" d="M33.2208 8.42625C33.456 7.65275 33.2208 7.08325 32.0946 7.08325H28.3758C27.4295 7.08325 26.9932 7.57484 26.7566 8.11742C26.7566 8.11742 24.8653 12.6451 22.1864 15.5861C21.3194 16.4389 20.9256 16.7095 20.4524 16.7095C20.2158 16.7095 19.8602 16.4389 19.8602 15.664V8.42625C19.8602 7.49692 19.5996 7.08325 18.8119 7.08325H12.9639C12.3732 7.08325 12.0176 7.51392 12.0176 7.92334C12.0176 8.80309 13.3577 9.00709 13.4952 11.4834V16.8639C13.4952 18.044 13.2784 18.2579 12.8052 18.2579C11.5444 18.2579 8.47733 13.709 6.65692 8.50417C6.30417 7.49125 5.94717 7.08325 4.99658 7.08325H1.275C0.2125 7.08325 0 7.57484 0 8.11742C0 9.08359 1.26083 13.8833 5.87208 20.2313C8.94625 24.5663 13.2742 26.9166 17.2167 26.9166C19.5812 26.9166 19.873 26.3953 19.873 25.4957V22.2189C19.873 21.1748 20.0968 20.9666 20.8463 20.9666C21.3988 20.9666 22.3437 21.2386 24.5508 23.3282C27.0725 25.8059 27.4876 26.9166 28.9071 26.9166H32.6258C33.6883 26.9166 34.221 26.3953 33.915 25.3639C33.5778 24.3383 32.3737 22.8493 30.7771 21.0828C29.9101 20.0769 28.6096 18.9932 28.2143 18.4506C27.6632 17.755 27.8205 17.4448 28.2143 16.8257C28.2143 16.8257 32.7477 10.5555 33.2194 8.42625H33.2208Z" fill="white"/>
</g>
<defs>
<clipPath id="clip0">
<rect width="34" height="34" fill="white"/>
</clipPath>
</defs>
</svg>
