<svg width="34" height="34" viewBox="0 0 34 34" xmlns="http://www.w3.org/2000/svg">
<g clip-path="url(#clip0)">
<path fill-rule="evenodd" clip-rule="evenodd" d="M33.2208 8.4265C33.456 7.653 33.2208 7.0835 32.0946 7.0835H28.3758C27.4295 7.0835 26.9932 7.57508 26.7566 8.11766C26.7566 8.11766 24.8653 12.6453 22.1864 15.5863C21.3194 16.4392 20.9256 16.7097 20.4524 16.7097C20.2158 16.7097 19.8602 16.4392 19.8602 15.6642V8.4265C19.8602 7.49716 19.5996 7.0835 18.8119 7.0835H12.9639C12.3732 7.0835 12.0176 7.51416 12.0176 7.92358C12.0176 8.80333 13.3577 9.00733 13.4952 11.4837V16.8642C13.4952 18.0442 13.2784 18.2582 12.8052 18.2582C11.5444 18.2582 8.47733 13.7092 6.65692 8.50441C6.30417 7.4915 5.94717 7.0835 4.99658 7.0835H1.275C0.2125 7.0835 0 7.57508 0 8.11766C0 9.08383 1.26083 13.8835 5.87208 20.2316C8.94625 24.5666 13.2742 26.9168 17.2167 26.9168C19.5812 26.9168 19.873 26.3955 19.873 25.4959V22.2192C19.873 21.1751 20.0968 20.9668 20.8463 20.9668C21.3988 20.9668 22.3437 21.2388 24.5508 23.3284C27.0725 25.8062 27.4876 26.9168 28.9071 26.9168H32.6258C33.6883 26.9168 34.221 26.3955 33.915 25.3642C33.5778 24.3385 32.3737 22.8496 30.7771 21.083C29.9101 20.0772 28.6096 18.9934 28.2143 18.4508C27.6632 17.7552 27.8205 17.445 28.2143 16.8259C28.2143 16.8259 32.7477 10.5557 33.2194 8.4265H33.2208Z"/>
</g>
<defs>
<clipPath id="clip0">
<rect width="34" height="34" fill="white"/>
</clipPath>
</defs>
</svg>
