<svg width="212" height="162" viewBox="0 0 212 162" fill="none" xmlns="http://www.w3.org/2000/svg">
<g clip-path="url(#clip0)">
<path opacity="0.1" d="M121.04 25.6193C107.685 25.1543 94.9652 20.8376 82.817 16.1138C70.6688 11.39 58.6403 6.15788 45.6048 3.65339C37.2205 2.04366 27.6332 1.81636 20.8771 6.31699C14.3769 10.6564 12.2762 18.1265 11.1454 25.0655C10.2972 30.2852 9.79785 35.7798 12.1256 40.6669C13.7413 44.0599 16.6117 46.9115 18.5969 50.1599C25.5016 61.4673 20.6212 75.4197 13.1408 86.4522C9.63277 91.6327 5.5593 96.5776 2.84984 102.087C0.140384 107.596 -1.1122 113.917 1.25677 119.542C3.60717 125.121 9.20561 129.303 15.2704 132.248C27.5858 138.24 42.0967 139.941 56.2548 140.91C87.5838 143.057 119.082 142.127 150.494 141.197C162.12 140.852 173.795 140.503 185.234 138.703C191.583 137.705 198.141 136.118 202.751 132.297C208.603 127.435 210.054 119.203 206.133 113.105C199.555 102.878 181.371 100.338 176.767 89.3638C174.235 83.3216 176.835 76.5934 180.512 70.9893C188.403 58.9711 201.629 48.4262 202.326 34.6887C202.805 25.2535 196.447 15.8039 186.616 11.3384C176.311 6.66002 162.023 7.24894 154.425 14.9938C146.587 22.9598 132.827 26.0326 121.04 25.6193Z" fill="#F56500"/>
<path opacity="0.1" d="M119.643 155.84C161.922 155.84 196.197 153.289 196.197 150.141C196.197 146.993 161.922 144.442 119.643 144.442C77.3633 144.442 43.0889 146.993 43.0889 150.141C43.0889 153.289 77.3633 155.84 119.643 155.84Z" fill="#F56500"/>
<path d="M60.4492 131.682C60.4492 131.682 64.7827 130.987 67.3828 134.056C67.3828 134.056 65.4761 135.56 61.3737 133.477L60.4492 131.682Z" fill="#F56500"/>
<path d="M59.9838 131.626C59.9838 131.626 57.2207 135.04 58.5765 138.827C58.5765 138.827 60.8299 137.922 61.0755 133.323L59.9838 131.626Z" fill="#F56500"/>
<path d="M57.5078 126.012C57.5078 126.012 59.2412 122.829 66.1748 127.284C66.1748 127.284 65.2503 129.425 62.188 129.252C59.1256 129.078 58.3126 127.7 57.5078 126.012Z" fill="#F56500"/>
<path d="M57.0549 125.782C57.0549 125.782 53.4581 125.369 53.1094 133.616C53.1094 133.616 55.3896 134.089 57.0095 131.481C58.6294 128.873 57.9608 127.41 57.0549 125.782Z" fill="#F56500"/>
<path d="M54.9609 119.207C54.9609 119.207 56.9832 113.594 64.3213 117.587C64.3213 117.587 62.6456 122.736 55.7121 121.116L54.9609 119.207Z" fill="#F56500"/>
<path d="M52.7061 110.817C52.7061 110.817 56.5216 105.145 63.2818 110.404C63.2818 110.404 60.9128 115.727 53.2838 112.834L52.7061 110.817Z" fill="#F56500"/>
<path d="M51.8965 102.83C51.8965 102.83 56.3476 97.6231 63.05 102.83C63.05 102.83 58.8321 107.401 51.8965 104.161V102.83Z" fill="#F56500"/>
<path d="M51.2031 95.0773C51.2031 95.0773 55.712 89.6385 62.1256 94.788C62.1256 94.788 57.0409 99.5904 51.2031 96.3502V95.0773Z" fill="#F56500"/>
<path d="M51.6084 88.1922C51.6084 88.1922 56.3546 81.1892 62.3575 85.9357C62.3575 85.9357 57.2729 91.9531 51.6084 89.523V88.1922Z" fill="#F56500"/>
<path d="M52.7061 80.1476C52.7061 80.1476 57.735 73.2044 63.5707 78.5275C63.5707 78.5275 57.6194 84.547 52.7061 81.4205V80.1476Z" fill="#F56500"/>
<path d="M54.3831 72.9586C54.3831 72.9586 60.3344 66.435 65.5263 69.0325C65.5263 69.0325 59.3232 75.9611 54.123 74.6882L54.3831 72.9586Z" fill="#F56500"/>
<path d="M56.4626 66.1455C56.4626 66.1455 63.3384 58.1609 67.3252 60.8225C67.3252 60.8225 62.2653 67.0217 55.9756 67.6416L56.4626 66.1455Z" fill="#F56500"/>
<path d="M59.466 58.2417C59.466 58.2417 65.4772 51.716 69.8684 53.3361C69.8684 53.3361 64.726 60.1056 58.6592 60.2792L59.466 58.2417Z" fill="#F56500"/>
<path d="M62.1834 50.8481C62.1834 50.8481 68.8281 44.5973 71.7171 45.6966C71.7171 45.6966 66.9214 52.6418 61.8945 52.2367L62.1834 50.8481Z" fill="#F56500"/>
<path d="M64.8418 44.0103C64.8418 44.0103 70.562 36.5464 73.6821 37.125C73.6821 37.125 70.2153 43.7788 64.8418 44.7707V44.0103Z" fill="#F56500"/>
<path d="M67.726 34.8147C67.726 34.8147 72.7817 29.0908 75.5118 29.1053C75.5118 29.1053 71.5209 36.751 67.5176 36.6807L67.726 34.8147Z" fill="#F56500"/>
<path d="M69.4346 28.6857L74.317 16.7646C74.317 16.7646 74.5626 27.541 68.8135 30.8968L69.4346 28.6857Z" fill="#F56500"/>
<path d="M71.4179 15.5392C71.4179 15.5392 72.2268 5.58737 71.7068 4.77734C71.7068 4.77734 75.1983 13.043 71.3828 19.9365L71.4179 15.5392Z" fill="#F56500"/>
<path d="M54.7707 119.072C54.7707 119.072 49.7067 115.929 46.4277 123.619C46.4277 123.619 50.9346 126.613 55.365 121.033L54.7707 119.072Z" fill="#F56500"/>
<path d="M52.5553 110.497C52.5553 110.497 46.344 107.66 43.3291 115.688C43.3291 115.688 48.1289 118.994 53.1207 112.526L52.5553 110.497Z" fill="#F56500"/>
<path d="M51.6081 103.316C51.6081 103.316 47.159 98.1088 40.4648 103.316C40.4648 103.316 44.6828 107.887 51.6081 104.647V103.316Z" fill="#F56500"/>
<path d="M51.0523 95.0773C51.0523 95.0773 46.5455 89.6385 40.1299 94.788C40.1299 94.788 45.2166 99.5904 51.0523 96.3502V95.0773Z" fill="#F56500"/>
<path d="M51.6082 88.3904C51.6082 88.3904 48.4469 80.5381 41.5752 83.9208C41.5752 83.9208 45.2896 90.8743 51.3297 89.6902L51.6082 88.3904Z" fill="#F56500"/>
<path d="M53.1036 80.1083C53.1036 80.1083 49.9629 72.13 42.9922 75.8309C42.9922 75.8309 47.2596 83.1439 52.7941 81.342L53.1036 80.1083Z" fill="#F56500"/>
<path d="M55.0522 73C55.0522 73 53.8141 64.2529 48.0361 63.4697C48.0361 63.4697 49.2598 72.6942 54.2722 74.5767L55.0522 73Z" fill="#F56500"/>
<path d="M56.6096 66.1603C56.6096 66.1603 56.1267 55.6216 51.3496 55.2559C51.3496 55.2559 51.5106 63.2549 56.071 67.6543L56.6096 66.1603Z" fill="#F56500"/>
<path d="M59.9609 57.9399C59.9609 57.9399 58.535 49.1762 53.9766 48.1038C53.9766 48.1038 54.542 56.5926 59.511 60.0889L59.9609 57.9399Z" fill="#F56500"/>
<path d="M62.7239 50.9099C62.7239 50.9099 62.6743 41.7826 59.8906 40.4395C59.8906 40.4395 58.1613 48.7051 61.917 52.0754L62.7239 50.9099Z" fill="#F56500"/>
<path d="M65.0535 43.9173C65.0535 43.9173 64.6635 34.5172 61.7786 33.1926C61.7786 33.1926 60.7902 40.6317 64.6201 44.5331L65.0535 43.9173Z" fill="#F56500"/>
<path d="M68.1284 35.5628C68.1284 35.5628 68.1098 27.9171 66.0525 26.1255C66.0525 26.1255 64.0033 34.5006 67.0533 37.1022L68.1284 35.5628Z" fill="#F56500"/>
<path d="M69.1911 28.3058L67.1894 15.5789C67.1894 15.5789 64.4676 26.0059 69.2881 30.5996L69.1911 28.3058Z" fill="#F56500"/>
<path d="M69.5827 15.6612C69.5827 15.6612 64.4403 7.10631 64.5455 6.15576C64.5455 6.15576 65.0924 15.1219 71.5617 19.5874L69.5827 15.6612Z" fill="#F56500"/>
<path d="M70.1858 13.1341C70.1858 13.1341 65.3323 0.983592 63.1367 -0.00415039C63.1367 -0.00415039 70.0703 3.52527 70.5903 12.7828L70.1858 13.1341Z" fill="#F56500"/>
<path d="M67.4913 36.7532L67.1611 36.6498C71.2573 23.2761 72.2788 14.7459 70.0377 12.6093L70.2771 12.3572C72.6523 14.6137 71.6886 23.0488 67.4913 36.7532Z" fill="#444053"/>
<path d="M56.2128 68.0611L55.7217 67.8875C56.155 66.6622 56.6255 65.4182 57.1166 64.1928C61.3923 53.5157 65.0304 43.5969 67.3643 35.974L67.7914 35.7673C65.4534 43.3903 61.8793 53.7017 57.5995 64.387C57.1105 65.6062 56.6441 66.8419 56.2128 68.0611Z" fill="#444053"/>
<path d="M66.5485 141.693C66.4825 141.619 59.8419 134.134 55.2154 121.352C52.5023 113.87 50.9909 106.005 50.7375 98.0488C50.4218 88.1032 52.5039 76.9963 56.0759 66.9102L56.4639 67.3648C48.449 90.0043 51.6331 109.406 55.8572 121.087C60.4362 133.752 67.0004 141.156 67.0644 141.23L66.5485 141.693Z" fill="#444053"/>
<path d="M37.6146 140.061C37.6146 140.061 29.7627 139.588 30.6893 145.097C30.6893 145.097 30.5056 146.07 31.3868 146.512C31.3868 146.512 31.3991 146.099 32.1916 146.242C32.473 146.289 32.7591 146.303 33.0438 146.283C33.4292 146.257 33.7957 146.106 34.088 145.853C34.088 145.853 36.2939 144.94 37.1523 141.328C37.1523 141.328 37.7879 140.54 37.7611 140.338L36.4363 140.904C36.4363 140.904 36.8903 141.861 36.5333 142.656C36.5333 142.656 36.49 140.939 36.2361 140.978C36.1845 140.978 35.5469 141.311 35.5469 141.311C35.5469 141.311 36.3269 142.979 35.7388 144.19C35.7388 144.19 35.9617 142.136 35.3055 141.431L34.3727 141.977C34.3727 141.977 35.2828 143.698 34.6658 145.103C34.6658 145.103 34.8226 142.948 34.1767 142.109L33.3306 142.77C33.3306 142.77 34.185 144.467 33.6649 145.632C33.6649 145.632 33.5968 143.123 33.147 142.933C33.147 142.933 32.4082 143.586 32.2947 143.855C32.2947 143.855 32.8808 145.095 32.5176 145.737C32.5176 145.737 32.2947 144.066 32.1049 144.057C32.1049 144.057 31.3682 145.165 31.2918 145.917C31.3275 145.216 31.5459 144.536 31.9253 143.946C31.5008 144.026 31.109 144.23 30.7986 144.531C30.7986 144.531 30.9121 143.747 32.1069 143.679C32.1069 143.679 32.726 142.838 32.8787 142.787C32.8787 142.787 31.6901 142.687 30.9699 143.008C30.9699 143.008 31.6034 142.27 33.0975 142.594L33.9229 141.912C33.9229 141.912 32.3587 141.706 31.6942 141.935C31.6942 141.935 32.4577 141.282 34.1478 141.757L35.0558 141.214C35.0558 141.214 33.7227 140.927 32.9262 141.03C32.9262 141.03 33.766 140.578 35.322 141.067L35.972 140.776C35.972 140.776 34.9939 140.584 34.7091 140.553C34.4243 140.522 34.4058 140.443 34.4058 140.443C35.0252 140.34 35.6612 140.412 36.2423 140.65C36.2423 140.65 37.6373 140.148 37.6146 140.061Z" fill="#F56500"/>
<path d="M14.792 142.617C14.792 142.617 6.95045 142.144 7.86873 147.653C7.86873 147.653 7.68301 148.626 8.56415 149.068C8.56415 149.068 8.5786 148.655 9.371 148.798C9.65235 148.846 9.93855 148.86 10.2233 148.839C10.6082 148.814 10.9742 148.663 11.2654 148.409C11.2654 148.409 13.4734 147.496 14.3318 143.884C14.3318 143.884 14.9653 143.097 14.9509 142.894L13.6261 143.46C13.6261 143.46 14.0801 144.417 13.7231 145.213C13.7231 145.213 13.6797 143.495 13.4259 143.535C13.3743 143.535 12.7367 143.867 12.7367 143.867C12.7367 143.867 13.5167 145.535 12.9286 146.746C12.9286 146.746 13.1514 144.692 12.4932 143.987L11.5604 144.533C11.5604 144.533 12.4705 146.254 11.8535 147.659C11.8535 147.659 12.0124 145.504 11.3644 144.665L10.5204 145.326C10.5204 145.326 11.3747 147.023 10.8547 148.188C10.8547 148.188 10.7866 145.68 10.3368 145.489C10.3368 145.489 9.598 146.142 9.4845 146.411C9.4845 146.411 10.0706 147.651 9.70736 148.294C9.70736 148.294 9.4845 146.622 9.29465 146.614C9.29465 146.614 8.56002 147.721 8.48161 148.473C8.51848 147.772 8.73756 147.092 9.11719 146.502C8.69207 146.583 8.29974 146.786 7.98842 147.087C7.98842 147.087 8.10398 146.304 9.29878 146.235C9.29878 146.235 9.91785 145.394 10.0706 145.345C10.0706 145.345 8.88194 145.244 8.16176 145.564C8.16176 145.564 8.79527 144.826 10.2893 145.151L11.1147 144.469C11.1147 144.469 9.55053 144.262 8.88607 144.491C8.88607 144.491 9.64959 143.838 11.3396 144.314L12.2476 143.77C12.2476 143.77 10.9125 143.483 10.118 143.586C10.118 143.586 10.9579 143.134 12.5138 143.623L13.1638 143.332C13.1638 143.332 12.1857 143.14 11.8989 143.109C11.612 143.078 11.5976 142.999 11.5976 142.999C12.2171 142.897 12.8527 142.969 13.4342 143.206C13.4342 143.206 14.8085 142.704 14.792 142.617Z" fill="#F56500"/>
<path d="M27.5115 148.618C27.5115 148.618 19.67 148.145 20.5862 153.654C20.5862 153.654 20.4025 154.627 21.2837 155.069C21.2837 155.069 21.2981 154.656 22.0885 154.798C22.3706 154.846 22.6574 154.86 22.9428 154.84C23.3275 154.813 23.6932 154.663 23.9849 154.41C23.9849 154.41 26.1908 153.497 27.0493 149.885C27.0493 149.885 27.6848 149.097 27.6683 148.895L26.3435 149.461C26.3435 149.461 26.7954 150.418 26.4405 151.213C26.4405 151.213 26.3972 149.496 26.1413 149.535C26.0897 149.535 25.4541 149.868 25.4541 149.868C25.4541 149.868 26.2321 151.534 25.644 152.747C25.644 152.747 25.8668 150.693 25.2106 149.988L24.2779 150.533C24.2779 150.533 25.1879 152.255 24.5709 153.66C24.5709 153.66 24.7298 151.505 24.0819 150.666L23.2358 151.327C23.2358 151.327 24.0922 153.023 23.5701 154.189C23.5701 154.189 23.502 151.68 23.0542 151.49C23.0542 151.49 22.3134 152.143 22.2019 152.412C22.2019 152.412 22.788 153.652 22.4227 154.294C22.4227 154.294 22.1999 152.623 22.01 152.614C22.01 152.614 21.2733 153.722 21.197 154.474C21.2327 153.773 21.4511 153.093 21.8305 152.503C21.4059 152.583 21.0142 152.786 20.7038 153.087C20.7038 153.087 20.8173 152.304 22.0142 152.236C22.0142 152.236 22.6209 151.395 22.7839 151.343C22.7839 151.343 21.5953 151.244 20.8751 151.565C20.8751 151.565 21.5107 150.827 23.0026 151.162L23.828 150.48C23.828 150.48 22.2639 150.273 21.5994 150.502C21.5994 150.502 22.365 149.849 24.053 150.325L24.963 149.781C24.963 149.781 23.6361 149.5 22.8396 149.604C22.8396 149.604 23.6774 149.151 25.2354 149.641L25.8833 149.349C25.8833 149.349 24.9073 149.157 24.6204 149.126C24.3336 149.095 24.3192 149.017 24.3192 149.017C24.9386 148.913 25.5746 148.985 26.1557 149.223C26.1557 149.223 27.5342 148.705 27.5115 148.618Z" fill="#F56500"/>
<path opacity="0.1" d="M21.3912 156.588C24.4603 156.588 26.9483 156.167 26.9483 155.648C26.9483 155.129 24.4603 154.708 21.3912 154.708C18.322 154.708 15.834 155.129 15.834 155.648C15.834 156.167 18.322 156.588 21.3912 156.588Z" fill="#F56500"/>
<path opacity="0.1" d="M197.656 156.588C200.725 156.588 203.213 156.167 203.213 155.648C203.213 155.129 200.725 154.708 197.656 154.708C194.587 154.708 192.099 155.129 192.099 155.648C192.099 156.167 194.587 156.588 197.656 156.588Z" fill="#F56500"/>
<path opacity="0.1" d="M144.439 162C147.508 162 149.996 161.579 149.996 161.06C149.996 160.54 147.508 160.119 144.439 160.119C141.37 160.119 138.882 160.54 138.882 161.06C138.882 161.579 141.37 162 144.439 162Z" fill="#F56500"/>
<path opacity="0.1" d="M206.445 148.438C209.514 148.438 212.002 148.017 212.002 147.498C212.002 146.979 209.514 146.558 206.445 146.558C203.376 146.558 200.888 146.979 200.888 147.498C200.888 148.017 203.376 148.438 206.445 148.438Z" fill="#F56500"/>
<path opacity="0.1" d="M32.2056 147.851C35.2748 147.851 37.7628 147.43 37.7628 146.911C37.7628 146.392 35.2748 145.971 32.2056 145.971C29.1365 145.971 26.6484 146.392 26.6484 146.911C26.6484 147.43 29.1365 147.851 32.2056 147.851Z" fill="#F56500"/>
<path opacity="0.1" d="M9.37651 150.49C12.4457 150.49 14.9337 150.069 14.9337 149.55C14.9337 149.031 12.4457 148.61 9.37651 148.61C6.30737 148.61 3.81934 149.031 3.81934 149.55C3.81934 150.069 6.30737 150.49 9.37651 150.49Z" fill="#F56500"/>
<path d="M149.462 16.4775H64.495C63.3781 16.4775 62.4727 17.3842 62.4727 18.5026V146.988C62.4727 148.106 63.3781 149.013 64.495 149.013H149.462C150.579 149.013 151.484 148.106 151.484 146.988V18.5026C151.484 17.3842 150.579 16.4775 149.462 16.4775Z" fill="#3A3768"/>
<path opacity="0.1" d="M138.411 27.8696H76.6468C73.3178 27.8696 70.6191 30.572 70.6191 33.9056V47.889C70.6191 51.2225 73.3178 53.9249 76.6468 53.9249H138.411C141.74 53.9249 144.439 51.2225 144.439 47.889V33.9056C144.439 30.572 141.74 27.8696 138.411 27.8696Z" fill="black"/>
<path d="M141.69 28.3779H73.1986C72.0361 28.3779 71.0938 29.3216 71.0938 30.4857V51.47C71.0938 52.6341 72.0361 53.5777 73.1986 53.5777H141.69C142.853 53.5777 143.795 52.6341 143.795 51.47V30.4857C143.795 29.3216 142.853 28.3779 141.69 28.3779Z" fill="#E6E8EC"/>
<path opacity="0.1" d="M85.644 64.7778H75.417C74.1873 64.7778 73.1904 65.7761 73.1904 67.0075V78.8811C73.1904 80.1125 74.1873 81.1107 75.417 81.1107H85.644C86.8737 81.1107 87.8706 80.1125 87.8706 78.8811V67.0075C87.8706 65.7761 86.8737 64.7778 85.644 64.7778Z" fill="black"/>
<path opacity="0.1" d="M103.587 64.7778H93.3604C92.1307 64.7778 91.1338 65.7761 91.1338 67.0075V78.8811C91.1338 80.1125 92.1307 81.1107 93.3604 81.1107H103.587C104.817 81.1107 105.814 80.1125 105.814 78.8811V67.0075C105.814 65.7761 104.817 64.7778 103.587 64.7778Z" fill="black"/>
<path opacity="0.1" d="M121.53 64.7778H111.303C110.073 64.7778 109.076 65.7761 109.076 67.0075V78.8811C109.076 80.1125 110.073 81.1107 111.303 81.1107H121.53C122.759 81.1107 123.756 80.1125 123.756 78.8811V67.0075C123.756 65.7761 122.759 64.7778 121.53 64.7778Z" fill="black"/>
<path opacity="0.1" d="M135.747 65.125H132.97C129.683 65.125 127.019 67.7932 127.019 71.0845V75.4984C127.019 78.7897 129.683 81.4579 132.97 81.4579H135.747C139.034 81.4579 141.699 78.7897 141.699 75.4984V71.0845C141.699 67.7932 139.034 65.125 135.747 65.125Z" fill="black"/>
<path d="M139.472 64.7778H129.245C128.015 64.7778 127.019 65.7761 127.019 67.0075V78.8811C127.019 80.1125 128.015 81.1107 129.245 81.1107H139.472C140.702 81.1107 141.699 80.1125 141.699 78.8811V67.0075C141.699 65.7761 140.702 64.7778 139.472 64.7778Z" fill="#F56500"/>
<path opacity="0.1" d="M85.644 82.7451H75.417C74.1873 82.7451 73.1904 83.7434 73.1904 84.9748V96.8483C73.1904 98.0797 74.1873 99.078 75.417 99.078H85.644C86.8737 99.078 87.8706 98.0797 87.8706 96.8483V84.9748C87.8706 83.7434 86.8737 82.7451 85.644 82.7451Z" fill="black"/>
<path opacity="0.1" d="M103.587 82.7451H93.3604C92.1307 82.7451 91.1338 83.7434 91.1338 84.9748V96.8483C91.1338 98.0797 92.1307 99.078 93.3604 99.078H103.587C104.817 99.078 105.814 98.0797 105.814 96.8483V84.9748C105.814 83.7434 104.817 82.7451 103.587 82.7451Z" fill="black"/>
<path opacity="0.1" d="M121.53 82.7451H111.303C110.073 82.7451 109.076 83.7434 109.076 84.9748V96.8483C109.076 98.0797 110.073 99.078 111.303 99.078H121.53C122.759 99.078 123.756 98.0797 123.756 96.8483V84.9748C123.756 83.7434 122.759 82.7451 121.53 82.7451Z" fill="black"/>
<path opacity="0.1" d="M85.644 102.578H75.417C74.1873 102.578 73.1904 103.577 73.1904 104.808V116.682C73.1904 117.913 74.1873 118.911 75.417 118.911H85.644C86.8737 118.911 87.8706 117.913 87.8706 116.682V104.808C87.8706 103.577 86.8737 102.578 85.644 102.578Z" fill="black"/>
<path opacity="0.1" d="M103.587 102.578H93.3604C92.1307 102.578 91.1338 103.577 91.1338 104.808V116.682C91.1338 117.913 92.1307 118.911 93.3604 118.911H103.587C104.817 118.911 105.814 117.913 105.814 116.682V104.808C105.814 103.577 104.817 102.578 103.587 102.578Z" fill="black"/>
<path opacity="0.1" d="M121.53 102.578H111.303C110.073 102.578 109.076 103.577 109.076 104.808V116.682C109.076 117.913 110.073 118.911 111.303 118.911H121.53C122.759 118.911 123.756 117.913 123.756 116.682V104.808C123.756 103.577 122.759 102.578 121.53 102.578Z" fill="black"/>
<path opacity="0.1" d="M121.53 122.412H111.303C110.073 122.412 109.076 123.41 109.076 124.642V136.515C109.076 137.746 110.073 138.745 111.303 138.745H121.53C122.759 138.745 123.756 137.746 123.756 136.515V124.642C123.756 123.41 122.759 122.412 121.53 122.412Z" fill="black"/>
<path opacity="0.1" d="M135.747 83.0923H132.97C129.683 83.0923 127.019 85.7605 127.019 89.0518V93.4657C127.019 96.757 129.683 99.4252 132.97 99.4252H135.747C139.034 99.4252 141.699 96.757 141.699 93.4657V89.0518C141.699 85.7605 139.034 83.0923 135.747 83.0923Z" fill="black"/>
<path d="M139.367 82.7451H129.35C128.063 82.7451 127.019 83.7906 127.019 85.0802V96.7429C127.019 98.0325 128.063 99.078 129.35 99.078H139.367C140.655 99.078 141.699 98.0325 141.699 96.7429V85.0802C141.699 83.7906 140.655 82.7451 139.367 82.7451Z" fill="#F56500"/>
<path opacity="0.2" d="M139.367 82.7451H129.35C128.063 82.7451 127.019 83.7906 127.019 85.0802V96.7429C127.019 98.0325 128.063 99.078 129.35 99.078H139.367C140.655 99.078 141.699 98.0325 141.699 96.7429V85.0802C141.699 83.7906 140.655 82.7451 139.367 82.7451Z" fill="black"/>
<path opacity="0.1" d="M103.741 122.412H75.2622C74.118 122.412 73.1904 123.341 73.1904 124.487V136.67C73.1904 137.816 74.118 138.745 75.2622 138.745H103.741C104.886 138.745 105.813 137.816 105.813 136.67V124.487C105.813 123.341 104.886 122.412 103.741 122.412Z" fill="black"/>
<path opacity="0.1" d="M139.29 102.578H128.025C126.696 102.578 125.619 103.657 125.619 104.988V136.337C125.619 137.668 126.696 138.747 128.025 138.747H139.29C140.619 138.747 141.696 137.668 141.696 136.337V104.988C141.696 103.657 140.619 102.578 139.29 102.578Z" fill="black"/>
<path d="M140.53 49.1763H134.104V49.8727H140.53V49.1763Z" fill="#F56500"/>
<path d="M131.123 49.1763H124.697V49.8727H131.123V49.1763Z" fill="#F56500"/>
<path d="M121.713 49.1763H115.287V49.8727H121.713V49.1763Z" fill="#F56500"/>
<path d="M112.305 49.1763H105.879V49.8727H112.305V49.1763Z" fill="#F56500"/>
<path d="M181.567 98.0593C182.229 95.8276 181.567 93.5958 181.567 93.5958V91.4902C181.567 91.4902 182.324 87.3739 178.944 84.733L176.703 82.7534C176.703 82.7534 175.446 81.6727 175.081 81.6045C175.013 81.5898 174.944 81.5795 174.875 81.5735L174.809 81.5342C174.616 81.2044 174.452 80.8587 174.318 80.501C174.463 80.5198 174.61 80.505 174.749 80.4577C174.887 80.4104 175.013 80.3319 175.116 80.2283C175.197 80.135 175.261 80.0279 175.304 79.9121C175.434 79.6207 175.457 79.2674 175.566 78.9574C175.662 78.7061 175.802 78.4738 175.979 78.2714C175.956 78.3086 175.931 78.3437 175.911 78.383C176.228 77.9862 176.643 77.6473 176.942 77.2299C177.002 77.1471 177.056 77.0609 177.105 76.9716C177.093 76.9902 177.077 77.0067 177.062 77.0253C177.475 76.362 177.601 75.5582 177.72 74.7833C177.778 74.5196 177.782 74.2469 177.733 73.9815C177.675 73.8054 177.6 73.6352 177.51 73.4732C177.023 72.4668 177.031 71.2001 176.253 70.3963C175.667 69.795 174.78 69.6111 173.944 69.5078C173.108 69.4044 172.229 69.3445 171.511 68.9064C171.311 68.7542 171.089 68.6324 170.853 68.5448C170.734 68.5033 170.605 68.5046 170.487 68.5483C170.369 68.5921 170.27 68.6756 170.207 68.7845C170.192 68.849 170.162 68.9091 170.12 68.9602C170.083 68.9814 170.041 68.9938 169.998 68.9963C169.955 68.9988 169.912 68.9914 169.873 68.9746L168.76 68.6771L168.773 68.7329H168.744L168.785 68.9085C168.807 68.9047 168.829 68.9085 168.849 68.9195C168.868 68.9304 168.883 68.9477 168.89 68.9684L168.711 69.2453C168.367 69.239 168.027 69.169 167.708 69.0387C167.706 69.0565 167.706 69.0746 167.708 69.0924H167.691C167.671 69.4065 168.028 69.6111 168.137 69.9066C168.181 70.0359 168.181 70.1761 168.137 70.3054C168.093 70.4253 168.022 70.5339 167.931 70.6236C167.537 71.0142 167.031 70.9377 166.577 71.1836C166.538 71.2004 166.503 71.2255 166.474 71.2573C166.446 71.2891 166.425 71.3267 166.412 71.3675C166.394 71.398 166.389 71.4344 166.398 71.4688C166.416 71.5162 166.448 71.5567 166.49 71.5845C166.623 71.6915 166.767 71.7817 166.922 71.8531C166.876 71.8945 166.833 71.9358 166.792 71.9792C166.216 72.5655 165.793 73.2857 165.563 74.0753C165.333 74.8649 165.301 75.6994 165.471 76.5042C165.642 77.3089 166.008 78.0589 166.539 78.6872C167.069 79.3154 167.747 79.8023 168.511 80.1043C168.527 80.1911 168.54 80.2799 168.552 80.3729C168.552 80.3832 168.552 80.3895 168.552 80.3998L168.564 80.5196L167.066 81.1581C166.84 81.1564 166.619 81.0904 166.429 80.9679C166.239 80.8453 166.088 80.6712 165.993 80.4659C165.644 79.7447 164.412 80.4659 164.412 80.4659C164.412 80.4659 160.655 80.1849 159.254 80.8792C159.254 80.8792 157.01 79.9369 156.695 79.8728C156.379 79.8088 155.906 79.5588 155.686 79.6228C155.465 79.6869 155.18 79.2095 155.021 79.2447C154.862 79.2798 154.8 78.9306 154.295 78.8045C153.789 78.6785 153.599 78.8376 153.032 78.2714C152.464 77.7052 147.85 75.4735 147.85 75.4735L145.778 73.7666L143.568 72.006L143.529 72.0784C143.515 72.0267 143.5 71.973 143.486 71.9151C143.266 71.0381 142.99 70.176 142.66 69.3342C142.518 68.9932 142.454 68.5634 142.262 68.7907C142.145 68.9271 141.944 68.6275 141.643 68.425C141.579 68.3808 141.506 68.3514 141.43 68.339C141.353 68.3266 141.275 68.3314 141.2 68.3532C141.126 68.375 141.057 68.4131 140.999 68.4649C140.941 68.5166 140.895 68.5806 140.865 68.6523C139.144 71.3551 138.527 71.5452 139.524 72.5392C140.413 73.4215 141.003 74.1923 141.728 74.4361L141.814 74.463C141.799 74.4671 141.782 74.4671 141.767 74.463L145.968 79.4926C145.968 79.4926 149 82.1335 151.086 82.9807C153.172 83.8279 153.011 84.0821 153.011 84.0821C153.011 84.0821 159.33 87.2871 160.308 87.2251C161.286 87.1631 161.098 93.7942 160.688 94.8708C160.277 95.9474 159.615 103.672 159.615 103.672C159.615 103.672 158.981 105.306 159.646 106.436C159.646 106.436 159.792 108.602 159.66 109.123C159.084 110.011 158.263 111.52 158.129 113.072C158.129 113.154 158.112 113.231 158.104 113.311C158.062 113.36 158.012 113.402 157.956 113.433L158.096 113.392C158.036 114.039 157.898 114.676 157.683 115.289C157.349 116.15 157.172 117.064 157.161 117.988V122.98L156.748 126.08C156.748 126.08 156.243 128.425 156.748 128.973C156.962 129.246 157.061 129.591 157.025 129.936C157.004 130.336 157.117 130.732 157.347 131.06C157.435 131.156 157.499 131.271 157.535 131.396C157.571 131.521 157.577 131.653 157.553 131.781C157.386 132.324 157.801 138.108 157.801 138.108C157.801 138.108 157.679 139.702 157.512 139.786C157.345 139.871 157.801 141.629 157.801 141.629C157.801 141.629 156.094 143.055 156.53 143.81L156.965 144.479L156.85 144.593L156.779 144.665C156.648 144.589 156.494 144.56 156.344 144.582C155.808 145.132 155.234 145.643 154.627 146.114C153.857 146.669 151.763 147.475 151.763 147.475L150.112 147.61H150.081C150.081 147.61 149.291 147.535 149.734 148.761C150.178 149.986 154.144 149.61 154.144 149.61L156.459 149.244C156.459 149.244 160.587 149.265 161.769 149.002C162.262 148.893 162.388 148.628 162.347 148.362L162.334 148.349C162.278 148.095 162.162 147.858 161.996 147.657C161.988 147.644 161.978 147.632 161.967 147.62L162.041 146.773C163.793 145.762 161.546 143.774 161.546 143.774C161.546 143.774 162.316 142.099 162.71 141.555C163.104 141.012 163.104 133.004 163.104 133.004C163.104 133.004 163.311 130.111 162.768 129.442C162.758 129.224 162.808 129.007 162.912 128.816C163.016 128.624 163.17 128.464 163.358 128.353C163.748 128.086 164.926 124.414 165.851 121.366L166.433 124.958C166.433 124.958 166.307 126.677 166.684 127.179C166.755 127.274 166.806 127.382 166.833 127.497C166.86 127.613 166.863 127.732 166.841 127.849C166.752 128.33 166.781 128.827 166.926 129.295C166.97 129.496 167.078 129.677 167.233 129.812C167.57 129.979 167.59 130.576 167.716 130.702C167.842 130.828 168.622 130.525 168.663 130.985C168.687 131.39 168.687 131.796 168.663 132.2L168.917 139.66C168.917 139.66 168.505 140.28 168.412 141.933C168.377 142.638 168.244 143.039 168.108 143.268C168.033 143.391 167.998 143.535 168.009 143.679C168.02 143.823 168.077 143.96 168.17 144.07L168.242 144.155L167.931 144.394C167.806 144.492 167.718 144.63 167.683 144.784C167.647 144.939 167.666 145.101 167.737 145.244C167.636 145.331 167.564 145.447 167.53 145.576C167.496 145.705 167.501 145.841 167.545 145.967C167.558 146.008 167.576 146.048 167.599 146.085C167.362 146.122 167.142 146.231 166.969 146.397C166.658 146.825 166.283 147.203 165.857 147.517C165.239 147.991 164.647 148.499 164.084 149.038C163.819 149.399 163.463 149.684 163.053 149.864C162.952 149.905 162.848 149.936 162.741 149.957C161.916 150.127 162.173 150.99 162.846 151.133C163.519 151.275 165.752 151.959 167.489 151.561C167.489 151.561 168.005 151.767 168.762 151.383C169.52 150.999 171.21 150.527 171.21 150.527C171.21 150.527 172.157 150.527 172.285 150.151C172.318 150.031 172.336 149.908 172.339 149.784L172.365 149.757L172.341 149.734C172.343 149.452 172.322 149.171 172.277 148.893C172.252 148.748 172.225 148.62 172.2 148.517C172.12 148.203 171.969 147.796 171.905 147.624C171.916 147.61 171.926 147.596 171.934 147.581C172.295 146.961 171.695 145.49 171.695 145.49C171.892 145.176 172.132 144.892 172.407 144.644C172.743 144.392 173.628 137.854 173.628 137.854C173.628 137.854 173.585 136.178 174.041 135.424C174.497 134.67 173.41 130.103 173.41 130.103C173.41 130.103 172.945 129.055 173.115 128.677C173.284 128.299 172.945 126.917 172.945 126.917V125.264C172.944 125.067 172.912 124.871 172.848 124.685C172.718 124.296 172.526 123.55 172.735 123.015C173.03 122.261 173.703 117.61 173.703 117.61C173.703 117.61 173.176 115.558 173.948 113.923C174.008 113.793 174.077 113.666 174.155 113.545C174.726 112.646 174.555 111.049 174.272 109.761C174.231 109.555 174.183 109.369 174.136 109.189C174.117 109.11 174.097 109.036 174.076 108.962L174.167 108.924C174.167 108.924 174.167 108.803 174.196 108.594C174.507 108.532 174.803 108.407 175.064 108.226C175.326 108.045 175.547 107.812 175.715 107.542C175.715 107.542 177.642 105.372 179.346 104.461C181.051 103.55 181.179 102.229 181.179 102.229C180.927 101.789 181.631 99.9976 181.631 99.9976L181.567 98.0593ZM176.008 100.952L174.183 103.07V103.058C173.709 102.397 174.625 100.919 174.625 100.919L176.142 97.5303C176.129 97.9642 176.076 98.3569 175.935 98.5284C175.523 99.0946 176.695 100.039 176.695 100.039C176.07 100.041 176.008 100.952 176.008 100.952Z" fill="url(#paint0_linear)"/>
<path d="M143.89 73.1816L142.893 75.1178C142.578 75.0908 142.266 75.0256 141.967 74.9236C141.491 74.7815 141.051 74.54 140.676 74.2151C140.301 73.8903 139.999 73.4894 139.789 73.039C138.9 71.0718 140.371 69.801 141.056 69.4249C141.742 69.0488 142.379 68.621 142.893 69.8547C143.216 70.6917 143.485 71.5482 143.7 72.4191C143.82 72.8717 143.89 73.1816 143.89 73.1816Z" fill="#CC818C"/>
<path d="M175.543 83.2536L173.952 85.6258C173.952 85.6258 166.435 89.2172 167.871 85.0059C168.502 83.1461 168.577 81.7885 168.463 80.8483C168.463 80.8379 168.463 80.8317 168.463 80.8214C168.315 79.6456 167.873 79.1352 167.873 79.1352C167.873 79.1352 175.201 75.3785 174.109 77.947C173.886 78.4809 173.798 79.0613 173.851 79.6374C173.941 80.4671 174.21 81.2674 174.639 81.9827C174.897 82.4356 175.2 82.8613 175.543 83.2536Z" fill="#CC818C"/>
<path d="M173.255 130.245C173.255 130.245 174.336 134.791 173.874 135.533C173.411 136.275 173.461 137.949 173.461 137.949C173.461 137.949 172.588 144.446 172.256 144.694C171.983 144.935 171.745 145.213 171.548 145.52C171.548 145.52 172.142 146.992 171.785 147.599C171.73 147.692 171.647 147.764 171.548 147.806C170.991 148.041 168.931 146.996 167.759 146.359C167.665 146.308 167.584 146.234 167.525 146.144C167.465 146.055 167.427 145.952 167.416 145.845C167.404 145.738 167.418 145.629 167.457 145.529C167.496 145.429 167.559 145.339 167.64 145.268C167.569 145.127 167.55 144.966 167.584 144.813C167.619 144.659 167.705 144.522 167.829 144.425L168.139 144.185L168.067 144.101C167.974 143.991 167.918 143.855 167.907 143.712C167.896 143.569 167.93 143.426 168.005 143.303C168.139 143.078 168.269 142.683 168.304 141.978C168.389 140.354 168.803 139.73 168.803 139.73L168.554 132.316C168.577 131.914 168.577 131.511 168.554 131.109C168.513 130.652 167.743 130.954 167.619 130.828C167.495 130.702 167.473 130.111 167.14 129.944C166.987 129.809 166.882 129.629 166.839 129.429C166.692 128.961 166.663 128.464 166.754 127.983C166.776 127.867 166.773 127.748 166.746 127.634C166.72 127.519 166.67 127.412 166.6 127.317C166.226 126.817 166.35 125.112 166.35 125.112L165.776 121.542C164.862 124.571 163.7 128.22 163.314 128.485C163.129 128.596 162.977 128.755 162.875 128.945C162.773 129.135 162.723 129.35 162.732 129.566C163.273 130.233 163.065 133.107 163.065 133.107C163.065 133.107 163.065 141.059 162.675 141.602C162.285 142.146 161.529 143.818 161.529 143.818C161.529 143.818 163.758 145.803 162.004 146.806H161.985C160.196 147.806 156.496 145.016 156.496 145.016L156.882 144.63L156.996 144.516L156.558 143.863C156.129 143.113 157.813 141.697 157.813 141.697C157.813 141.697 157.363 139.947 157.528 139.865C157.693 139.782 157.813 138.199 157.813 138.199C157.813 138.199 157.4 132.452 157.569 131.911C157.592 131.784 157.585 131.653 157.549 131.528C157.514 131.404 157.45 131.29 157.363 131.194C157.136 130.868 157.024 130.475 157.045 130.078C157.081 129.736 156.983 129.392 156.771 129.121C156.271 128.58 156.771 126.249 156.771 126.249L157.184 123.166V118.271C157.189 117.326 157.366 116.389 157.706 115.508C157.958 114.793 158.111 114.047 158.16 113.291C158.296 111.712 159.144 110.179 159.714 109.304C160.015 108.842 160.24 108.565 160.24 108.565L173.546 108.044C173.546 108.044 173.752 108.637 173.975 109.461C174.02 109.641 174.066 109.831 174.109 110.03C174.387 111.311 174.555 112.898 173.991 113.791C173.915 113.912 173.846 114.037 173.785 114.167C173.023 115.791 173.543 117.83 173.543 117.83C173.543 117.83 172.879 122.451 172.588 123.203C172.382 123.734 172.572 124.476 172.702 124.856C172.762 125.042 172.794 125.237 172.794 125.433V127.08C172.794 127.08 173.129 128.454 172.962 128.83C172.794 129.206 173.255 130.245 173.255 130.245Z" fill="#444053"/>
<path opacity="0.1" d="M173.868 113.923C173.79 114.043 173.721 114.168 173.661 114.297L172.912 114.256C172.984 113.869 172.475 110.247 172.475 110.247L173.983 110.162C174.262 111.441 174.431 113.028 173.868 113.923Z" fill="black"/>
<path d="M173.992 113.797C173.915 113.918 173.846 114.044 173.785 114.173L173.036 114.13C173.108 113.745 172.599 110.121 172.599 110.121L174.107 110.036C174.388 111.317 174.555 112.904 173.992 113.797Z" fill="#444053"/>
<path opacity="0.05" d="M173.992 113.797C173.915 113.918 173.846 114.044 173.785 114.173L173.036 114.13C173.108 113.745 172.599 110.121 172.599 110.121L174.107 110.036C174.388 111.317 174.555 112.904 173.992 113.797Z" fill="black"/>
<path opacity="0.1" d="M171.788 147.607C171.733 147.7 171.65 147.772 171.55 147.814C170.993 148.05 168.934 147.004 167.762 146.367C167.615 146.286 167.504 146.154 167.45 145.995C168.119 145.874 168.556 146.615 168.556 146.615C168.668 146.545 168.792 146.498 168.922 146.477C169.052 146.456 169.185 146.461 169.312 146.492C169.44 146.523 169.561 146.58 169.666 146.658C169.772 146.736 169.861 146.835 169.929 146.948C170.5 147.791 171.726 147.436 171.726 147.436L171.788 147.607Z" fill="black"/>
<path d="M172.133 150.16C172.009 150.536 171.072 150.536 171.072 150.536C171.072 150.536 169.398 151.015 168.649 151.389C167.9 151.763 167.393 151.567 167.393 151.567C165.678 151.961 163.472 151.275 162.807 151.139C162.143 151.003 161.883 150.141 162.704 149.974C162.809 149.952 162.912 149.92 163.012 149.879C163.423 149.7 163.779 149.415 164.043 149.052C164.599 148.517 165.184 148.012 165.795 147.541C166.216 147.229 166.586 146.853 166.893 146.428C167.871 145.564 168.567 146.75 168.567 146.75C168.678 146.68 168.803 146.633 168.933 146.612C169.063 146.591 169.195 146.596 169.323 146.628C169.451 146.659 169.572 146.715 169.677 146.794C169.783 146.872 169.872 146.971 169.939 147.085C170.511 147.928 171.736 147.57 171.736 147.57C171.736 147.57 171.957 148.134 172.06 148.539C172.085 148.643 172.112 148.771 172.137 148.916C172.192 149.335 172.227 149.879 172.133 150.16Z" fill="#FF748F"/>
<path d="M169.272 147.527C169.334 147.527 169.385 147.476 169.385 147.413C169.385 147.35 169.334 147.3 169.272 147.3C169.209 147.3 169.158 147.35 169.158 147.413C169.158 147.476 169.209 147.527 169.272 147.527Z" fill="#575988"/>
<path d="M168.296 148.442C168.359 148.442 168.41 148.391 168.41 148.328C168.41 148.266 168.359 148.215 168.296 148.215C168.233 148.215 168.183 148.266 168.183 148.328C168.183 148.391 168.233 148.442 168.296 148.442Z" fill="#575988"/>
<path d="M167.303 149.265C167.366 149.265 167.416 149.214 167.416 149.151C167.416 149.088 167.366 149.037 167.303 149.037C167.24 149.037 167.189 149.088 167.189 149.151C167.189 149.214 167.24 149.265 167.303 149.265Z" fill="#575988"/>
<path d="M167.817 148.897C167.879 148.897 167.93 148.846 167.93 148.783C167.93 148.721 167.879 148.67 167.817 148.67C167.754 148.67 167.703 148.721 167.703 148.783C167.703 148.846 167.754 148.897 167.817 148.897Z" fill="#575988"/>
<path d="M168.806 147.957C168.869 147.957 168.919 147.906 168.919 147.843C168.919 147.78 168.869 147.729 168.806 147.729C168.743 147.729 168.692 147.78 168.692 147.843C168.692 147.906 168.743 147.957 168.806 147.957Z" fill="#575988"/>
<path d="M172.133 150.159C172.009 150.536 171.072 150.536 171.072 150.536C171.072 150.536 169.398 151.015 168.649 151.389C167.9 151.763 167.393 151.567 167.393 151.567C165.678 151.961 163.472 151.275 162.807 151.139C162.143 151.003 161.883 150.141 162.704 149.974C162.809 149.952 162.912 149.92 163.012 149.878C163.737 150.129 164.495 150.273 165.261 150.306C166.955 150.379 168.296 150.306 168.296 150.306L170.011 149.754C170.336 149.557 170.696 149.427 171.072 149.37C171.452 149.293 171.811 149.136 172.126 148.911C172.192 149.335 172.228 149.878 172.133 150.159Z" fill="#DCE6F2"/>
<path opacity="0.5" d="M167.865 151.236C167.769 151.237 167.674 151.228 167.58 151.209L167.605 151.087C167.956 151.141 168.314 151.091 168.637 150.943C168.789 150.883 168.942 150.81 169.091 150.736C169.239 150.661 169.448 150.569 169.633 150.5L169.803 150.442C169.895 150.409 169.99 150.378 170.081 150.339C170.133 150.318 170.184 150.294 170.234 150.269C170.356 150.205 170.484 150.156 170.618 150.122C170.686 150.109 170.755 150.1 170.824 150.095C170.888 150.091 170.951 150.083 171.014 150.073C171.139 150.041 171.26 149.996 171.375 149.938C171.498 149.875 171.628 149.826 171.763 149.794L171.854 149.779C171.952 149.777 172.046 149.742 172.122 149.68L172.215 149.765C172.12 149.848 172 149.897 171.874 149.903L171.788 149.918C171.663 149.948 171.541 149.993 171.427 150.052C171.303 150.113 171.173 150.161 171.039 150.194C170.971 150.208 170.902 150.216 170.832 150.219C170.767 150.224 170.702 150.232 170.638 150.244C170.514 150.276 170.395 150.323 170.281 150.383L170.124 150.455C170.03 150.494 169.93 150.527 169.836 150.56L169.67 150.618C169.489 150.684 169.311 150.769 169.138 150.85C168.965 150.93 168.833 150.994 168.676 151.056C168.419 151.166 168.144 151.227 167.865 151.236Z" fill="#575988"/>
<path opacity="0.1" d="M168.266 130.547C168.266 130.547 169.128 129.308 170.606 129.308C172.083 129.308 172.715 129.14 172.715 129.14C172.715 129.14 171.77 129.702 171.115 129.775C170.461 129.847 168.266 130.547 168.266 130.547Z" fill="black"/>
<path opacity="0.1" d="M168.765 130.839C168.765 130.839 169.545 130.297 169.99 130.277C170.436 130.256 170.816 130.215 170.816 130.215C170.607 130.362 170.375 130.474 170.131 130.547C169.765 130.651 168.765 130.839 168.765 130.839Z" fill="black"/>
<path opacity="0.1" d="M168.939 131.213C168.939 131.213 170.114 131.306 170.124 131.626L168.939 131.213Z" fill="black"/>
<path opacity="0.1" d="M157.988 113.648C158.05 113.658 159.101 112.555 159.173 112.119C159.23 111.843 159.394 111.601 159.629 111.445C159.629 111.445 160.306 111.716 159.703 112.547C159.101 113.377 157.988 113.648 157.988 113.648Z" fill="black"/>
<path opacity="0.1" d="M174.099 77.9426C173.859 78.5088 173.649 78.5626 173.686 79.1019C173.407 79.3974 173.087 79.6502 172.735 79.852C171.992 80.2942 171.183 81.16 170.258 81.16C169.639 81.1605 169.025 81.0441 168.449 80.817C168.3 79.6412 167.858 79.1308 167.858 79.1308C167.858 79.1308 175.188 75.3741 174.099 77.9426Z" fill="black"/>
<path d="M175.222 75.9445C175.222 76.9254 174.931 77.8842 174.387 78.6998C173.843 79.5153 173.069 80.151 172.164 80.5263C171.259 80.9017 170.263 80.9999 169.303 80.8086C168.342 80.6172 167.46 80.1449 166.767 79.4513C166.074 78.7577 165.603 77.874 165.412 76.912C165.22 75.95 165.319 74.9528 165.693 74.0466C166.068 73.1404 166.703 72.3659 167.517 71.8209C168.332 71.276 169.289 70.9851 170.269 70.9851C171.582 70.9851 172.842 71.5076 173.771 72.4377C174.7 73.3677 175.222 74.6292 175.222 75.9445Z" fill="#CC818C"/>
<path opacity="0.1" d="M175.543 83.2534L173.952 85.6257C173.952 85.6257 166.435 89.2171 167.871 85.0058C168.502 83.146 168.577 81.7884 168.463 80.8481H168.475C168.564 81.1597 168.615 81.481 168.626 81.8049C168.649 82.4537 168.665 83.2741 170.277 83.5448C172.96 83.9953 174.392 82.3174 174.643 81.9888C174.901 82.4393 175.202 82.8629 175.543 83.2534Z" fill="black"/>
<path opacity="0.1" d="M143.89 73.1817L142.893 75.1179C142.578 75.0909 142.266 75.0256 141.967 74.9236L141.88 74.8203C142.293 74.9774 143.657 72.384 143.657 72.384L143.7 72.4192C143.82 72.8717 143.89 73.1817 143.89 73.1817Z" fill="black"/>
<path opacity="0.1" d="M173.975 109.468C170.764 110.865 159.658 109.674 159.658 109.674C159.691 109.556 159.71 109.434 159.714 109.311C160.015 108.848 160.24 108.571 160.24 108.571L173.546 108.05C173.546 108.05 173.763 108.643 173.975 109.468Z" fill="black"/>
<path d="M168.467 80.9638L166.985 81.5982C166.762 81.5963 166.543 81.5306 166.356 81.4087C166.168 81.2868 166.019 81.1138 165.927 80.9101C165.582 80.1931 164.367 80.9101 164.367 80.9101C164.367 80.9101 160.652 80.6291 159.282 81.3234C159.282 81.3234 157.068 80.3852 156.756 80.3232C156.445 80.2612 155.976 80.0112 155.757 80.0732C155.539 80.1352 155.26 79.6599 155.103 79.6992C154.946 79.7384 154.885 79.3872 154.385 79.2611C153.886 79.1351 153.7 79.2921 153.147 78.73C152.594 78.168 148.031 75.9507 148.031 75.9507L145.968 74.2645L143.785 72.5164C143.785 72.5164 142.412 75.1076 142.006 74.9506L146.154 79.9492C146.154 79.9492 149.148 82.5715 151.207 83.4146C153.267 84.2577 153.11 84.5077 153.11 84.5077C153.11 84.5077 159.348 87.6941 160.314 87.6321C161.28 87.5701 161.098 94.1516 160.685 95.2138C160.273 96.2759 159.627 103.959 159.627 103.959C159.627 103.959 159.008 105.583 159.658 106.707C159.658 106.707 159.812 109.019 159.658 109.424C159.658 109.424 170.832 110.621 174.003 109.205C174.003 109.205 174.472 104.021 174.003 103.366C173.535 102.711 174.441 101.25 174.441 101.25L176.436 96.7842L181.302 91.8806C181.302 91.8806 182.049 87.7892 178.712 85.1669L176.498 83.1976C176.498 83.1976 175.26 82.1251 174.897 82.057C174.534 81.9888 174.668 82.057 174.668 82.057C174.668 82.057 173.223 84.1668 170.26 83.6667C168.655 83.396 168.638 82.5756 168.609 81.9288C168.601 81.6026 168.553 81.2786 168.467 80.9638Z" fill="#67647E"/>
<path opacity="0.1" d="M174.566 97.7761C174.566 97.7761 167.702 98.0572 166.332 100.217C166.332 100.217 168.111 99.3714 169.7 99.6214C171.289 99.8715 174.566 97.7761 174.566 97.7761Z" fill="black"/>
<path opacity="0.1" d="M166.985 105.302C166.985 105.302 170.229 105.521 170.916 104.833C171.604 104.145 171.606 103.74 171.606 103.74L166.985 105.302Z" fill="black"/>
<path opacity="0.1" d="M175.222 91.1533C175.222 91.1533 172.475 94.4017 175.814 95.8068L175.222 91.1533Z" fill="black"/>
<path opacity="0.1" d="M158.971 84.8777C158.971 84.8777 159.969 86.9172 160.469 87.0515L158.971 84.8777Z" fill="black"/>
<path opacity="0.1" d="M155.603 84.0015C155.603 84.0015 158.097 86.2518 158.566 86.4688C158.566 86.4688 155.976 84.0015 155.603 84.0015Z" fill="black"/>
<path opacity="0.1" d="M165.551 81.8481C165.551 81.8481 163.149 85.4396 164.709 87.6341C164.709 87.6258 163.837 85.0325 165.551 81.8481Z" fill="black"/>
<path d="M171.606 109.05L170.871 109.743L170.768 109.838L169.918 110.644C169.858 110.689 169.798 110.735 169.736 110.776C166.275 113.256 165.582 109.486 165.582 109.486C165.582 109.486 164.055 110.487 163.836 109.675C163.618 108.862 167.392 107.707 167.963 107.769C168.014 107.774 168.064 107.774 168.114 107.769C168.387 107.724 168.649 107.631 168.89 107.494L169.057 107.406C169.249 107.297 169.436 107.179 169.616 107.052L171.606 109.05Z" fill="#CC818C"/>
<path opacity="0.1" d="M175.337 75.9445C175.339 76.8046 175.117 77.6505 174.694 78.399C174.27 79.1475 173.66 79.7728 172.922 80.2137C172.853 80.0976 172.793 79.9768 172.741 79.852C172.563 79.4388 172.454 78.9924 172.274 78.5771C172.078 78.1236 171.798 77.7114 171.449 77.362C171.39 77.2928 171.314 77.2401 171.228 77.2091C171.148 77.198 171.066 77.2035 170.988 77.2252C170.91 77.2468 170.837 77.2843 170.774 77.3352C170.564 77.4777 170.33 77.5806 170.083 77.6389C169.959 77.6673 169.831 77.6632 169.709 77.627C169.588 77.5908 169.477 77.5237 169.39 77.4323C169.196 77.2008 169.222 76.8619 169.278 76.5665C169.4 75.9197 169.602 75.2832 169.604 74.6261C169.606 73.969 169.354 73.2623 168.779 72.9358C168.275 72.6486 167.65 72.7291 167.091 72.568C167.004 72.5453 166.919 72.5162 166.837 72.4812C167.524 71.7745 168.407 71.2893 169.371 71.0875C170.336 70.8857 171.338 70.9766 172.251 71.3484C173.163 71.7202 173.944 72.3561 174.494 73.1749C175.044 73.9936 175.337 74.9579 175.337 75.9445Z" fill="black"/>
<path d="M166.498 71.6878C166.41 71.7353 166.311 71.8221 166.337 71.9213C166.355 71.9686 166.386 72.0091 166.428 72.037C166.659 72.2237 166.926 72.3609 167.212 72.4399C167.772 72.5929 168.399 72.5205 168.902 72.8078C169.472 73.1322 169.728 73.841 169.728 74.4981C169.728 75.1552 169.522 75.7917 169.404 76.4364C169.348 76.7339 169.319 77.0728 169.513 77.3043C169.602 77.3952 169.712 77.4619 169.833 77.4981C169.954 77.5343 170.083 77.5387 170.207 77.5109C170.454 77.4537 170.688 77.3514 170.898 77.2092C170.961 77.158 171.034 77.1202 171.113 77.0982C171.191 77.0762 171.273 77.0704 171.354 77.0811C171.439 77.1134 171.515 77.1659 171.575 77.234C171.924 77.584 172.204 77.997 172.4 78.4511C172.582 78.8644 172.689 79.3087 172.867 79.7261C173.021 80.1518 173.311 80.5148 173.692 80.7593C174.088 80.9783 174.637 80.9659 174.943 80.627C175.248 80.2882 175.223 79.8232 175.368 79.4161C175.615 78.7073 176.307 78.2631 176.74 77.6514C177.225 76.9633 177.359 76.0996 177.491 75.2668C177.55 75.0046 177.554 74.7331 177.503 74.4692C177.447 74.2945 177.374 74.1256 177.285 73.965C176.802 72.9648 176.812 71.7064 176.047 70.9087C175.469 70.3095 174.592 70.1276 173.766 70.0243C172.941 69.921 172.074 69.8631 171.366 69.4271C171.168 69.2769 170.949 69.1558 170.716 69.0676C170.599 69.0261 170.47 69.0274 170.353 69.0712C170.236 69.115 170.138 69.1986 170.077 69.3073C170.062 69.3709 170.033 69.4303 169.992 69.4809C169.955 69.5022 169.914 69.5147 169.871 69.5172C169.828 69.5197 169.786 69.5122 169.746 69.4953L168.649 69.1998L168.775 69.7536C168.376 69.7704 167.978 69.6999 167.609 69.547C167.588 69.8611 167.941 70.0636 168.05 70.357C168.09 70.4905 168.091 70.6323 168.055 70.7666C168.018 70.9008 167.945 71.0223 167.844 71.1174C167.446 71.5183 166.948 71.4419 166.498 71.6878Z" fill="#585268"/>
<path opacity="0.1" d="M162.05 146.31L162.005 146.808H161.986C160.197 147.808 156.497 145.018 156.497 145.018L156.883 144.632C156.946 144.702 156.994 144.785 157.023 144.875C157.052 144.965 157.062 145.06 157.052 145.155L157.807 145.196L158.711 146.173C158.711 146.173 161.157 146.456 161.819 146.299L162.05 146.31Z" fill="black"/>
<path d="M161.735 149.025C160.571 149.285 156.496 149.267 156.496 149.267L154.209 149.628C154.209 149.628 150.289 150.005 149.853 148.785C149.418 147.566 150.196 147.643 150.196 147.643H150.227L151.859 147.51C151.859 147.51 153.922 146.709 154.688 146.157C155.287 145.69 155.853 145.182 156.382 144.636C156.382 144.636 157.063 144.504 157.051 145.293L157.806 145.334L158.71 146.314C158.71 146.314 161.155 146.597 161.818 146.438H162.049L161.943 147.647L161.972 147.682C162.129 147.872 162.775 148.794 161.735 149.025Z" fill="#FF748F"/>
<path d="M157.516 146.109C157.579 146.109 157.629 146.059 157.629 145.996C157.629 145.933 157.579 145.882 157.516 145.882C157.453 145.882 157.402 145.933 157.402 145.996C157.402 146.059 157.453 146.109 157.516 146.109Z" fill="#575988"/>
<path d="M154.583 147.382C154.646 147.382 154.697 147.331 154.697 147.269C154.697 147.206 154.646 147.155 154.583 147.155C154.521 147.155 154.47 147.206 154.47 147.269C154.47 147.331 154.521 147.382 154.583 147.382Z" fill="#575988"/>
<path d="M153.073 147.841C153.136 147.841 153.187 147.79 153.187 147.727C153.187 147.665 153.136 147.614 153.073 147.614C153.011 147.614 152.96 147.665 152.96 147.727C152.96 147.79 153.011 147.841 153.073 147.841Z" fill="#575988"/>
<path d="M155.353 147.138C155.415 147.138 155.466 147.088 155.466 147.025C155.466 146.962 155.415 146.911 155.353 146.911C155.29 146.911 155.239 146.962 155.239 147.025C155.239 147.088 155.29 147.138 155.353 147.138Z" fill="#575988"/>
<path d="M153.826 147.612C153.889 147.612 153.94 147.561 153.94 147.498C153.94 147.435 153.889 147.384 153.826 147.384C153.764 147.384 153.713 147.435 153.713 147.498C153.713 147.561 153.764 147.612 153.826 147.612Z" fill="#575988"/>
<path d="M156.131 146.777C156.194 146.777 156.245 146.726 156.245 146.663C156.245 146.6 156.194 146.55 156.131 146.55C156.068 146.55 156.018 146.6 156.018 146.663C156.018 146.726 156.068 146.777 156.131 146.777Z" fill="#575988"/>
<path d="M156.901 146.442C156.963 146.442 157.014 146.391 157.014 146.328C157.014 146.265 156.963 146.215 156.901 146.215C156.838 146.215 156.787 146.265 156.787 146.328C156.787 146.391 156.838 146.442 156.901 146.442Z" fill="#575988"/>
<path d="M161.735 149.025C160.571 149.285 156.496 149.267 156.496 149.267L154.209 149.628C154.209 149.628 150.289 150.004 149.853 148.785C149.418 147.566 150.196 147.643 150.196 147.643H150.227C150.476 147.967 150.978 148.335 151.962 148.353L154.781 148.467L157.701 148.26C157.701 148.26 160.437 148.18 160.883 148.085C161.257 147.984 161.622 147.85 161.972 147.684C162.129 147.872 162.775 148.794 161.735 149.025Z" fill="#DCE6F2"/>
<path opacity="0.5" d="M154.431 149.354C154.275 149.356 154.119 149.336 153.969 149.296L154.002 149.176C154.386 149.259 154.786 149.241 155.161 149.124C155.3 149.087 155.436 149.048 155.574 149.006C155.824 148.927 156.078 148.863 156.336 148.814C156.752 148.76 157.172 148.748 157.59 148.777H157.679C158.929 148.843 160.183 148.787 161.422 148.61C161.716 148.589 161.997 148.476 162.223 148.287L162.312 148.376C162.067 148.584 161.763 148.709 161.443 148.734C160.195 148.912 158.933 148.968 157.675 148.901H157.584C157.171 148.872 156.756 148.885 156.346 148.938C156.094 148.985 155.845 149.048 155.601 149.126C155.463 149.168 155.325 149.209 155.188 149.244C154.941 149.311 154.687 149.348 154.431 149.354Z" fill="#575988"/>
<path opacity="0.1" d="M171.606 109.051L170.871 109.743L169.047 107.404C169.239 107.295 169.426 107.177 169.606 107.05L171.606 109.051Z" fill="black"/>
<path d="M179.877 89.8845L181.321 91.8827V93.976C181.321 93.976 181.975 96.1933 181.321 98.4105L181.391 100.347C181.391 100.347 180.696 102.126 180.946 102.564C180.946 102.564 180.822 103.876 179.138 104.781C177.454 105.686 175.543 107.831 175.543 107.831C175.543 107.831 174.825 109.205 172.892 108.893L171.051 109.674L168.932 106.957L171.8 105.395C171.8 105.395 172.799 104.054 173.391 104.116L175.824 101.272C175.824 101.272 175.886 100.367 176.509 100.367C176.509 100.367 175.355 99.4313 175.76 98.8692C176.164 98.3072 175.824 95.8068 175.824 95.8068L179.877 89.8845Z" fill="#67647E"/>
<path opacity="0.1" d="M177.194 98.9932C177.194 98.9932 180.469 98.9312 180.874 99.7743C181.278 100.617 178.183 98.5241 177.194 98.9932Z" fill="black"/>
<path opacity="0.1" d="M170.783 109.674C170.783 109.729 170.778 109.784 170.768 109.838C170.731 110.089 170.607 110.32 170.419 110.491C170.231 110.662 169.99 110.762 169.736 110.776H169.679C169.386 110.776 169.106 110.66 168.899 110.453C168.693 110.246 168.577 109.965 168.577 109.672C168.577 109.551 168.598 109.43 168.639 109.315C168.119 108.902 168.09 108.141 168.104 107.765C168.377 107.72 168.639 107.627 168.88 107.49C169.016 107.881 169.198 108.253 169.423 108.6C169.507 108.58 169.592 108.57 169.679 108.569C169.824 108.569 169.967 108.597 170.101 108.653C170.235 108.709 170.357 108.79 170.459 108.893C170.562 108.995 170.643 109.117 170.699 109.251C170.754 109.385 170.783 109.529 170.783 109.674Z" fill="black"/>
<path d="M168.979 107.242C168.979 107.242 168.24 107.41 168.24 107.544C168.24 107.678 168.073 108.897 168.884 109.404C169.695 109.91 169.612 108.705 169.612 108.705C169.612 108.705 168.915 107.635 168.979 107.242Z" fill="#575988"/>
<path d="M169.802 110.778C170.411 110.778 170.904 110.284 170.904 109.675C170.904 109.065 170.411 108.571 169.802 108.571C169.194 108.571 168.7 109.065 168.7 109.675C168.7 110.284 169.194 110.778 169.802 110.778Z" fill="#E4AAB4"/>
<path d="M169.803 110.621C170.325 110.621 170.748 110.197 170.748 109.674C170.748 109.152 170.325 108.728 169.803 108.728C169.281 108.728 168.857 109.152 168.857 109.674C168.857 110.197 169.281 110.621 169.803 110.621Z" fill="#DCE6F2"/>
<path opacity="0.1" d="M165.51 110.102C165.51 110.102 167.84 112.036 170.832 110.809V111.747C170.832 111.747 168.837 113.121 167.029 112.289C165.221 111.456 165.51 110.102 165.51 110.102Z" fill="black"/>
<path opacity="0.1" d="M165.51 109.852C165.51 109.852 167.84 111.788 170.832 110.559V111.497C170.832 111.497 168.837 112.871 167.029 112.039C165.221 111.206 165.51 109.852 165.51 109.852Z" fill="black"/>
<path d="M165.51 109.852C165.51 109.852 167.84 111.788 170.832 110.559V111.497C170.832 111.497 168.837 112.871 167.029 112.039C165.221 111.206 165.51 109.852 165.51 109.852Z" fill="#444053"/>
<path opacity="0.05" d="M165.572 109.852C165.572 109.852 167.902 111.788 170.896 110.559V111.497C170.896 111.497 168.9 112.871 167.091 112.039C165.281 111.206 165.572 109.852 165.572 109.852Z" fill="black"/>
<path opacity="0.1" d="M158.19 144.632C158.19 144.632 161.311 145.206 161.767 145.33C162.223 145.454 161.643 145.673 161.643 145.673C161.643 145.673 158.795 145.163 158.19 144.632Z" fill="black"/>
<path opacity="0.1" d="M158.118 142.977C158.17 142.977 160.239 142.394 160.685 141.396L158.118 142.977Z" fill="black"/>
<path opacity="0.1" d="M161.137 131.027C161.137 131.027 161.975 132.13 162.515 132.099C163.056 132.068 161.628 130.985 161.137 131.027Z" fill="black"/>
<path opacity="0.1" d="M161.602 132.866C161.602 132.866 161.954 133.645 162.474 133.395L161.602 132.866Z" fill="black"/>
<path opacity="0.05" d="M163.574 115.715L165.786 121.556C165.786 121.556 166.098 117.797 165.44 116.673C165.253 116.352 164.978 116.091 164.647 115.921C164.316 115.751 163.944 115.679 163.574 115.715Z" fill="black"/>
<g opacity="0.1">
<path opacity="0.1" d="M169.01 69.4271L168.992 69.3424L168.637 69.2473L168.676 69.4209C168.787 69.4291 168.899 69.4312 169.01 69.4271Z" fill="black"/>
<path opacity="0.1" d="M168.034 70.8363L168.071 70.8033C168.172 70.7083 168.245 70.5868 168.282 70.4525C168.318 70.3181 168.317 70.1763 168.277 70.0428C168.234 69.9392 168.174 69.8435 168.1 69.7597C167.925 69.7252 167.753 69.6747 167.588 69.6089C167.567 69.9209 167.918 70.1234 168.027 70.4168C168.078 70.5517 168.08 70.7 168.034 70.8363Z" fill="black"/>
<path opacity="0.1" d="M173.934 80.439C173.549 80.1962 173.255 79.8329 173.098 79.4057C172.923 78.9925 172.813 78.5461 172.634 78.1328C172.438 77.6787 172.157 77.2657 171.808 76.9157C171.749 76.847 171.673 76.7944 171.587 76.7628C171.507 76.7522 171.426 76.7579 171.348 76.7796C171.27 76.8012 171.197 76.8384 171.133 76.8889C170.923 77.0314 170.689 77.1343 170.442 77.1926C170.319 77.2206 170.19 77.2163 170.068 77.1801C169.947 77.1439 169.837 77.0771 169.749 76.986C169.555 76.7545 169.582 76.4136 169.637 76.1181C169.759 75.4734 169.961 74.8349 169.963 74.1798C169.965 73.5247 169.714 72.8139 169.138 72.4895C168.634 72.2022 168.009 72.2828 167.45 72.1217C167.163 72.0427 166.896 71.9055 166.664 71.7187C166.649 71.7067 166.635 71.6936 166.622 71.6794C166.576 71.6974 166.53 71.7189 166.486 71.7435C166.395 71.791 166.298 71.8778 166.323 71.977C166.342 72.024 166.374 72.0644 166.416 72.0927C166.647 72.2799 166.914 72.4171 167.2 72.4957C167.759 72.6486 168.385 72.5763 168.888 72.8635C169.458 73.1879 169.714 73.8967 169.714 74.5538C169.714 75.2109 169.507 75.8474 169.388 76.4921C169.332 76.7897 169.305 77.1286 169.499 77.36C169.587 77.4511 169.697 77.5179 169.819 77.5541C169.94 77.5903 170.069 77.5946 170.192 77.5666C170.439 77.5095 170.674 77.4072 170.884 77.2649C170.947 77.2138 171.019 77.1761 171.098 77.154C171.176 77.132 171.257 77.1262 171.338 77.1368C171.423 77.1686 171.499 77.2212 171.559 77.2897C171.907 77.6404 172.187 78.0532 172.384 78.5069C172.566 78.9201 172.673 79.3644 172.85 79.7818C173.005 80.2075 173.295 80.5705 173.676 80.815C174.07 81.0341 174.621 81.0217 174.914 80.6828C174.995 80.5908 175.058 80.4842 175.1 80.3687C174.933 80.4929 174.734 80.5657 174.527 80.5782C174.32 80.5907 174.114 80.5423 173.934 80.439Z" fill="black"/>
<path opacity="0.1" d="M175.717 78.85C176.028 78.4553 176.439 78.1185 176.732 77.7052C176.79 77.6225 176.843 77.5358 176.893 77.449C176.515 77.9304 175.997 78.3127 175.717 78.85Z" fill="black"/>
</g>
</g>
<defs>
<linearGradient id="paint0_linear" x1="160.455" y1="151.687" x2="160.455" y2="68.332" gradientUnits="userSpaceOnUse">
<stop stop-color="#808080" stop-opacity="0.25"/>
<stop offset="0.54" stop-color="#808080" stop-opacity="0.12"/>
<stop offset="1" stop-color="#808080" stop-opacity="0.1"/>
</linearGradient>
<clipPath id="clip0">
<rect width="212" height="162" fill="white"/>
</clipPath>
</defs>
</svg>
