<svg width="220" height="162" viewBox="0 0 220 162" fill="none" xmlns="http://www.w3.org/2000/svg">
<g clip-path="url(#clip0)">
<path opacity="0.1" d="M2.37695 86.2136C5.85813 101.092 13.2276 113.954 24.8743 120.188C49.0781 133.143 103.664 126.462 144.403 118.784C164.989 114.918 183.675 104.236 197.451 88.4594L2.37695 86.2136Z" fill="#F56500"/>
<path opacity="0.1" d="M216.009 16.184H193.656C193.144 16.184 192.652 15.9804 192.29 15.6181C191.928 15.2558 191.724 14.7644 191.724 14.252C191.724 13.7396 191.928 13.2482 192.29 12.8859C192.652 12.5235 193.144 12.32 193.656 12.32H197.52C197.008 12.32 196.517 12.1164 196.154 11.7541C195.792 11.3918 195.588 10.9004 195.588 10.388C195.588 9.87557 195.792 9.38415 196.154 9.02183C196.517 8.65951 197.008 8.45596 197.52 8.45596H194.761C194.249 8.45596 193.757 8.25241 193.395 7.89009C193.033 7.52777 192.829 7.03635 192.829 6.52395C192.829 6.01155 193.033 5.52014 193.395 5.15782C193.757 4.79549 194.249 4.59194 194.761 4.59194H206.428C203.839 3.38882 200.813 2.5326 197.328 2.08344C165.516 -2.00315 154.158 0.699853 150.152 3.48708C145.209 6.91597 139.694 9.43851 133.801 10.6537C114.173 14.7022 77.466 19.5748 44.1963 9.09361C27.6607 3.8801 15.3703 12.6869 8.00488 27.3971H219.889C219.613 23.122 218.785 19.1758 217.265 15.7188C216.915 16.0194 216.47 16.1845 216.009 16.184Z" fill="#F56500"/>
<path opacity="0.1" d="M0.479297 55.1628C-0.379347 63.8156 -0.0880529 72.5439 1.34558 81.1202L197.599 88.2968C203.062 82.0127 207.649 75.0178 211.235 67.5028L0.479297 55.1628ZM78.0999 73.6809H74.2357C74.7482 73.6809 75.2396 73.8844 75.602 74.2467C75.9643 74.6091 76.1678 75.1005 76.1678 75.6129C76.1678 76.1253 75.9643 76.6167 75.602 76.979C75.2396 77.3413 74.7482 77.5449 74.2357 77.5449H51.8828C51.3704 77.5449 50.879 77.3413 50.5166 76.979C50.1543 76.6167 49.9507 76.1253 49.9507 75.6129C49.9507 75.1005 50.1543 74.6091 50.5166 74.2467C50.879 73.8844 51.3704 73.6809 51.8828 73.6809H55.747C55.2346 73.6809 54.7431 73.4773 54.3808 73.115C54.0185 72.7527 53.8149 72.2613 53.8149 71.7489C53.8149 71.2365 54.0185 70.745 54.3808 70.3827C54.7431 70.0204 55.2346 69.8168 55.747 69.8168H52.9877C52.4753 69.8168 51.9839 69.6133 51.6215 69.251C51.2592 68.8886 51.0556 68.3972 51.0556 67.8848C51.0556 67.3724 51.2592 66.881 51.6215 66.5187C51.9839 66.1564 52.4753 65.9528 52.9877 65.9528H75.3407C75.8531 65.9528 76.3445 66.1564 76.7069 66.5187C77.0692 66.881 77.2728 67.3724 77.2728 67.8848C77.2728 68.3972 77.0692 68.8886 76.7069 69.251C76.3445 69.6133 75.8531 69.8168 75.3407 69.8168H78.0999C78.6124 69.8168 79.1038 70.0204 79.4661 70.3827C79.8285 70.745 80.032 71.2365 80.032 71.7489C80.032 72.2613 79.8285 72.7527 79.4661 73.115C79.1038 73.4773 78.6124 73.6809 78.0999 73.6809Z" fill="#F56500"/>
<path opacity="0.1" d="M219.9 27.5293L5.63723 32.7428C3.03236 39.4402 1.31383 47.0138 0.511719 54.8662H216.146C217.554 50.2547 218.595 45.5391 219.26 40.7636C219.902 36.1476 220.159 31.6861 219.9 27.5293ZM44.0104 44.6056H40.1462C40.6586 44.6056 41.1501 44.8091 41.5124 45.1714C41.8747 45.5338 42.0783 46.0252 42.0783 46.5376C42.0783 47.05 41.8747 47.5414 41.5124 47.9037C41.1501 48.266 40.6586 48.4696 40.1462 48.4696H17.7933C17.2809 48.4696 16.7894 48.266 16.4271 47.9037C16.0647 47.5414 15.8612 47.05 15.8612 46.5376C15.8612 46.0252 16.0647 45.5338 16.4271 45.1714C16.7894 44.8091 17.2809 44.6056 17.7933 44.6056H21.6575C21.145 44.6056 20.6536 44.402 20.2913 44.0397C19.9289 43.6774 19.7254 43.186 19.7254 42.6736C19.7254 42.1612 19.9289 41.6697 20.2913 41.3074C20.6536 40.9451 21.145 40.7416 21.6575 40.7416H18.8982C18.3858 40.7416 17.8943 40.538 17.532 40.1757C17.1697 39.8134 16.9661 39.3219 16.9661 38.8095C16.9661 38.2971 17.1697 37.8057 17.532 37.4434C17.8943 37.0811 18.3858 36.8775 18.8982 36.8775H41.2511C41.7635 36.8775 42.255 37.0811 42.6173 37.4434C42.9797 37.8057 43.1832 38.2971 43.1832 38.8095C43.1832 39.3219 42.9797 39.8134 42.6173 40.1757C42.255 40.538 41.7635 40.7416 41.2511 40.7416H44.0104C44.5228 40.7416 45.0143 40.9451 45.3766 41.3074C45.7389 41.6697 45.9425 42.1612 45.9425 42.6736C45.9425 43.186 45.7389 43.6774 45.3766 44.0397C45.0143 44.402 44.5228 44.6056 44.0104 44.6056Z" fill="#F56500"/>
<g opacity="0.1">
<path opacity="0.1" d="M135.869 124.98C135.869 124.98 141.524 111.044 152.084 105.874C156.529 103.737 160.16 100.215 162.433 95.8384C163.495 93.7499 164.363 91.5685 165.026 89.3215" stroke="#535461" stroke-width="2" stroke-miterlimit="10"/>
<path opacity="0.1" d="M171.661 86.023C170.56 87.4066 164.863 89.4319 164.863 89.4319C164.863 89.4319 165.549 83.4163 166.65 82.0427C167.197 81.4352 167.954 81.0592 168.769 80.9913C169.583 80.9234 170.392 81.1688 171.032 81.6774C171.672 82.186 172.093 82.9194 172.21 83.7281C172.328 84.5368 172.132 85.3597 171.663 86.029L171.661 86.023Z" fill="#F56500"/>
<path opacity="0.1" d="M169.706 96.9834C168.03 97.5469 162.15 96.1453 162.15 96.1453C162.15 96.1453 165.991 91.4771 167.667 90.9137C168.455 90.7047 169.292 90.8033 170.01 91.1895C170.728 91.5757 171.271 92.2205 171.531 92.9929C171.791 93.7654 171.746 94.6077 171.408 95.3489C171.069 96.09 170.46 96.6744 169.706 96.9834Z" fill="#F56500"/>
<path opacity="0.1" d="M159.106 109.937C157.375 109.578 153.006 105.399 153.006 105.399C153.006 105.399 158.677 103.308 160.409 103.667C161.193 103.885 161.865 104.394 162.288 105.089C162.712 105.784 162.855 106.614 162.689 107.411C162.524 108.207 162.061 108.911 161.396 109.38C160.731 109.849 159.912 110.047 159.106 109.935V109.937Z" fill="#F56500"/>
<path opacity="0.1" d="M148.879 117.934C147.113 117.872 142.1 114.493 142.1 114.493C142.1 114.493 147.337 111.479 149.104 111.535C149.543 111.522 149.98 111.598 150.388 111.76C150.797 111.922 151.167 112.167 151.477 112.478C151.787 112.789 152.03 113.16 152.191 113.569C152.351 113.978 152.426 114.416 152.411 114.855C152.395 115.293 152.29 115.725 152.101 116.121C151.912 116.518 151.644 116.871 151.313 117.16C150.982 117.449 150.595 117.666 150.176 117.799C149.758 117.933 149.316 117.978 148.879 117.934Z" fill="#F56500"/>
<path opacity="0.1" d="M156.675 92.2292C156.902 93.9838 160.73 98.6599 160.73 98.6599C160.73 98.6599 163.251 93.1656 163.026 91.4111C162.869 90.6117 162.415 89.9017 161.754 89.4253C161.093 88.949 160.275 88.7418 159.467 88.8459C158.659 88.95 157.921 89.3575 157.403 89.9858C156.884 90.6142 156.624 91.4162 156.675 92.2292Z" fill="#F56500"/>
<path opacity="0.1" d="M144.833 101.732C145.573 103.336 150.626 106.654 150.626 106.654C150.626 106.654 151.388 100.657 150.648 99.0527C150.49 98.6433 150.25 98.2706 149.943 97.9576C149.635 97.6446 149.267 97.3979 148.861 97.2329C148.454 97.0679 148.018 96.988 147.579 96.9982C147.141 97.0083 146.709 97.1084 146.31 97.2921C145.912 97.4757 145.555 97.7392 145.263 98.0661C144.97 98.393 144.748 98.7765 144.609 99.1928C144.471 99.609 144.419 100.049 144.458 100.486C144.496 100.923 144.624 101.348 144.833 101.734V101.732Z" fill="#F56500"/>
<path opacity="0.1" d="M134.59 112.548C135.047 114.256 139.468 118.379 139.468 118.379C139.468 118.379 141.233 112.598 140.774 110.89C140.511 110.119 139.966 109.477 139.247 109.094C138.529 108.71 137.692 108.614 136.906 108.825C136.119 109.036 135.443 109.538 135.013 110.229C134.583 110.92 134.431 111.749 134.59 112.548Z" fill="#F56500"/>
<path opacity="0.25" d="M171.661 86.023C170.56 87.4066 164.863 89.4319 164.863 89.4319C164.863 89.4319 165.549 83.4163 166.65 82.0427C167.197 81.4352 167.954 81.0592 168.769 80.9913C169.583 80.9234 170.392 81.1688 171.032 81.6774C171.672 82.186 172.093 82.9194 172.21 83.7281C172.328 84.5368 172.132 85.3597 171.663 86.029L171.661 86.023Z" fill="black"/>
<path opacity="0.25" d="M169.706 96.9834C168.03 97.5469 162.15 96.1453 162.15 96.1453C162.15 96.1453 165.991 91.4771 167.667 90.9137C168.455 90.7047 169.292 90.8033 170.01 91.1895C170.728 91.5757 171.271 92.2205 171.531 92.9929C171.791 93.7654 171.746 94.6077 171.408 95.3489C171.069 96.09 170.46 96.6744 169.706 96.9834Z" fill="black"/>
<path opacity="0.25" d="M159.106 109.937C157.375 109.578 153.006 105.399 153.006 105.399C153.006 105.399 158.677 103.308 160.409 103.667C161.193 103.885 161.865 104.394 162.288 105.089C162.712 105.784 162.855 106.614 162.689 107.411C162.524 108.207 162.061 108.911 161.396 109.38C160.731 109.849 159.912 110.047 159.106 109.935V109.937Z" fill="black"/>
<path opacity="0.25" d="M148.879 117.934C147.113 117.872 142.1 114.493 142.1 114.493C142.1 114.493 147.337 111.479 149.104 111.535C149.543 111.522 149.98 111.598 150.388 111.76C150.797 111.922 151.167 112.167 151.477 112.478C151.787 112.789 152.03 113.16 152.191 113.569C152.351 113.978 152.426 114.416 152.411 114.855C152.395 115.293 152.29 115.725 152.101 116.121C151.912 116.518 151.644 116.871 151.313 117.16C150.982 117.449 150.595 117.666 150.176 117.799C149.758 117.933 149.316 117.978 148.879 117.934Z" fill="black"/>
<path opacity="0.25" d="M156.675 92.2292C156.902 93.9838 160.73 98.6599 160.73 98.6599C160.73 98.6599 163.251 93.1656 163.026 91.4111C162.869 90.6117 162.415 89.9017 161.754 89.4253C161.093 88.949 160.275 88.7418 159.467 88.8459C158.659 88.95 157.921 89.3575 157.403 89.9858C156.884 90.6142 156.624 91.4162 156.675 92.2292Z" fill="black"/>
<path opacity="0.25" d="M144.833 101.732C145.573 103.336 150.626 106.654 150.626 106.654C150.626 106.654 151.388 100.657 150.648 99.0527C150.49 98.6433 150.25 98.2706 149.943 97.9576C149.635 97.6446 149.267 97.3979 148.861 97.2329C148.454 97.0679 148.018 96.988 147.579 96.9982C147.141 97.0083 146.709 97.1084 146.31 97.2921C145.912 97.4757 145.555 97.7392 145.263 98.0661C144.97 98.393 144.748 98.7765 144.609 99.1928C144.471 99.609 144.419 100.049 144.458 100.486C144.496 100.923 144.624 101.348 144.833 101.734V101.732Z" fill="black"/>
<path opacity="0.25" d="M134.59 112.548C135.047 114.256 139.468 118.379 139.468 118.379C139.468 118.379 141.233 112.598 140.774 110.89C140.511 110.119 139.966 109.477 139.247 109.094C138.529 108.71 137.692 108.614 136.906 108.825C136.119 109.036 135.443 109.538 135.013 110.229C134.583 110.92 134.431 111.749 134.59 112.548Z" fill="black"/>
</g>
<g opacity="0.1">
<path opacity="0.1" d="M131.857 104.603C131.857 104.603 132.571 89.58 140.819 81.2003C144.298 77.7064 146.549 73.1788 147.236 68.2968C147.545 65.9764 147.641 63.6326 147.523 61.2947" stroke="#535461" stroke-width="2" stroke-miterlimit="10"/>
<path opacity="0.1" d="M152.713 55.983C152.133 57.6533 147.429 61.4491 147.429 61.4491C147.429 61.4491 146.085 55.5559 146.665 53.8855C146.78 53.4606 146.981 53.064 147.255 52.7201C147.53 52.3763 147.873 52.0927 148.262 51.887C148.651 51.6812 149.078 51.5578 149.517 51.5242C149.956 51.4907 150.397 51.5478 150.813 51.692C151.229 51.8362 151.611 52.0645 151.935 52.3625C152.258 52.6606 152.518 53.0221 152.696 53.4246C152.874 53.8271 152.967 54.2619 152.97 54.702C152.973 55.1421 152.885 55.5782 152.713 55.983Z" fill="#F56500"/>
<path opacity="0.1" d="M154.493 66.9633C153.09 68.0501 147.086 68.6798 147.086 68.6798C147.086 68.6798 149.161 63.001 150.555 61.9142C150.883 61.6227 151.267 61.4015 151.684 61.2644C152.101 61.1272 152.541 61.077 152.978 61.1167C153.415 61.1565 153.839 61.2855 154.224 61.4956C154.609 61.7058 154.947 61.9927 155.217 62.3386C155.487 62.6846 155.683 63.0821 155.793 63.5068C155.903 63.9315 155.925 64.3742 155.857 64.8077C155.789 65.2411 155.633 65.656 155.399 66.0268C155.164 66.3976 154.856 66.7163 154.493 66.9633Z" fill="#F56500"/>
<path opacity="0.1" d="M148.788 82.7085C147.036 82.9431 141.529 80.4506 141.529 80.4506C141.529 80.4506 146.188 76.5966 147.946 76.362C148.376 76.2757 148.82 76.2785 149.249 76.3704C149.678 76.4623 150.084 76.6412 150.441 76.8961C150.798 77.151 151.099 77.4765 151.326 77.8524C151.552 78.2283 151.699 78.6467 151.757 79.0816C151.816 79.5166 151.784 79.9589 151.665 80.3811C151.545 80.8034 151.34 81.1966 151.063 81.5366C150.785 81.8765 150.441 82.1559 150.051 82.3575C149.661 82.559 149.234 82.6785 148.796 82.7085H148.788Z" fill="#F56500"/>
<path opacity="0.1" d="M141.792 93.6426C140.103 94.17 134.254 92.64 134.254 92.64C134.254 92.64 138.192 88.0541 139.881 87.5268C140.673 87.3334 141.509 87.4491 142.219 87.8502C142.93 88.2513 143.46 88.9078 143.704 89.6862C143.947 90.4646 143.885 91.3065 143.53 92.0406C143.175 92.7748 142.553 93.3462 141.792 93.6386V93.6426Z" fill="#F56500"/>
<path opacity="0.1" d="M140.623 66.8071C141.425 68.3872 146.582 71.5293 146.582 71.5293C146.582 71.5293 147.138 65.5138 146.344 63.9297C145.932 63.2257 145.267 62.705 144.485 62.4736C143.703 62.2422 142.862 62.3174 142.133 62.6839C141.404 63.0505 140.842 63.6808 140.562 64.4467C140.281 65.2126 140.303 66.0566 140.623 66.8071Z" fill="#F56500"/>
<path opacity="0.1" d="M132.602 79.7003C133.833 80.9696 139.701 82.4233 139.701 82.4233C139.701 82.4233 138.431 76.514 137.2 75.2447C136.597 74.6957 135.806 74.3973 134.99 74.4103C134.174 74.4233 133.394 74.7467 132.808 75.3147C132.222 75.8827 131.875 76.6526 131.837 77.4677C131.798 78.2828 132.072 79.0819 132.602 79.7023V79.7003Z" fill="#F56500"/>
<path opacity="0.1" d="M126.525 93.2996C127.528 94.7594 133.063 97.1837 133.063 97.1837C133.063 97.1837 132.81 91.144 131.811 89.6842C131.306 89.0516 130.581 88.6333 129.78 88.5133C128.979 88.3932 128.163 88.5803 127.494 89.0369C126.826 89.4935 126.355 90.186 126.175 90.9754C125.996 91.7649 126.122 92.5929 126.527 93.2935L126.525 93.2996Z" fill="#F56500"/>
</g>
<path opacity="0.1" d="M60.1064 155.555C67.9912 158.206 77.6106 156.594 86.5562 156.78C87.7814 156.807 89.0768 156.883 90.0594 157.34C91.042 157.797 91.5253 158.543 92.199 159.175C94.7057 161.539 99.8412 162.299 104.331 161.898C108.821 161.497 112.938 160.169 117.165 159.159C124.488 157.41 132.86 156.616 140.083 158.521C140.747 158.695 141.445 158.896 142.155 158.828C143.739 158.671 144.21 157.404 145.317 156.68C147.322 155.373 151.66 155.728 152.536 154.005C153.051 153.003 151.866 151.96 150.577 151.27C145.64 148.631 138.577 148.196 132.116 148.603C125.655 149.01 119.302 150.133 112.807 150.137C104.716 150.137 96.8974 148.415 88.8843 147.709C83.3337 147.22 77.2757 147.28 72.072 148.712C66.4472 150.28 65.2039 153.777 60.1064 155.555Z" fill="#F56500"/>
<path d="M74.6996 37.0762H73.2959V56.9276H74.6996V37.0762Z" fill="#535461"/>
<path d="M74.6996 63.7454H73.2959V74.9745H74.6996V63.7454Z" fill="#535461"/>
<path d="M128.019 17.6257H83.7427C78.5265 17.6257 74.2979 21.8542 74.2979 27.0702V145.337C74.2979 150.553 78.5265 154.781 83.7427 154.781H128.019C133.236 154.781 137.464 150.553 137.464 145.337V27.0702C137.464 21.8542 133.236 17.6257 128.019 17.6257Z" fill="#535461"/>
<path d="M128.019 24.0425H83.7427C78.5265 24.0425 74.2979 28.2709 74.2979 33.487V139.522C74.2979 144.738 78.5265 148.966 83.7427 148.966H128.019C133.236 148.966 137.464 144.738 137.464 139.522V33.487C137.464 28.2709 133.236 24.0425 128.019 24.0425Z" fill="#F56500"/>
<path d="M110.493 20.6335H101.469C101.082 20.6335 100.768 20.9478 100.768 21.3354C100.768 21.723 101.082 22.0372 101.469 22.0372H110.493C110.881 22.0372 111.195 21.723 111.195 21.3354C111.195 20.9478 110.881 20.6335 110.493 20.6335Z" fill="#EAEAF3"/>
<path d="M114.804 22.4383C115.358 22.4383 115.807 21.9894 115.807 21.4357C115.807 20.882 115.358 20.4331 114.804 20.4331C114.251 20.4331 113.802 20.882 113.802 21.4357C113.802 21.9894 114.251 22.4383 114.804 22.4383Z" fill="#EAEAF3"/>
<path d="M104.076 114.188H91.042V114.79H104.076V114.188Z" fill="#535461"/>
<path d="M117.512 114.188H108.89V114.79H117.512V114.188Z" fill="#535461"/>
<path d="M88.2351 114.188H79.6123V114.79H88.2351V114.188Z" fill="#535461"/>
<path d="M131.148 114.188H122.525V114.79H131.148V114.188Z" fill="#535461"/>
<path d="M102 87.4999C106.275 87.4999 109.5 84.2749 109.5 79.9999C109.5 75.7249 106.275 72.4999 102 72.4999C97.725 72.4999 94.5 75.7249 94.5 79.9999C94.5 84.2749 97.725 87.4999 102 87.4999ZM102 76.2499C104.209 76.2499 105.75 77.7911 105.75 79.9999C105.75 82.2086 104.209 83.7499 102 83.7499C99.7913 83.7499 98.25 82.2086 98.25 79.9999C98.25 77.7911 99.7913 76.2499 102 76.2499ZM103.875 89.3749H100.125C94.9556 89.3749 90.75 93.5805 90.75 98.7499V100.625H94.5V98.7499C94.5 95.6486 97.0237 93.1249 100.125 93.1249H103.875C106.976 93.1249 109.5 95.6486 109.5 98.7499V100.625H113.25V98.7499C113.25 93.5805 109.044 89.3749 103.875 89.3749ZM121.433 69.9424L118.781 72.5936C121.258 75.0743 122.625 78.3705 122.625 81.8749C122.625 85.3793 121.258 88.6755 118.781 91.1561L121.433 93.8074C124.62 90.618 126.375 86.3805 126.375 81.8749C126.375 77.3693 124.62 73.1318 121.433 69.9424Z" fill="white"/>
<path d="M116.128 75.2451L113.477 77.9001C114.54 78.9595 115.125 80.3714 115.125 81.8751C115.125 83.3789 114.54 84.7907 113.477 85.8501L116.128 88.5051C117.898 86.7351 118.875 84.382 118.875 81.8751C118.875 79.3682 117.898 77.0151 116.128 75.2451Z" fill="white"/>
</g>
<defs>
<clipPath id="clip0">
<rect width="220" height="162" fill="white"/>
</clipPath>
</defs>
</svg>
