<svg width="199" height="135" viewBox="0 0 199 135" fill="none" xmlns="http://www.w3.org/2000/svg">
<g clip-path="url(#clip0)">
<path d="M29.8744 109.674C28.4436 115.098 23.43 118.488 23.43 118.488C23.43 118.488 20.7361 113.083 22.1669 107.659C23.5977 102.235 28.6113 98.8457 28.6113 98.8457C28.6113 98.8457 31.3051 104.25 29.8744 109.674Z" fill="#3F3D56"/>
<path d="M27.7038 108.527C23.6964 112.468 23.248 118.485 23.248 118.485C23.248 118.485 29.297 118.111 33.3044 114.17C37.3118 110.229 37.7601 104.212 37.7601 104.212C37.7601 104.212 31.7112 104.585 27.7038 108.527Z" fill="#F56500"/>
<path d="M32.729 116.9H17.0537C15.3343 116.9 13.9404 118.287 13.9404 119.999V123.078C13.9404 124.79 15.3343 126.178 17.0537 126.178H32.729C34.4484 126.178 35.8422 124.79 35.8422 123.078V119.999C35.8422 118.287 34.4484 116.9 32.729 116.9Z" fill="#F56500"/>
<g opacity="0.7">
<path opacity="0.7" d="M183.442 110.973V107.63H166.65V123.092C166.65 123.52 166.735 123.944 166.9 124.339C167.064 124.735 167.305 125.094 167.609 125.397C167.913 125.699 168.274 125.939 168.672 126.103C169.069 126.267 169.495 126.351 169.925 126.351H180.167C181.036 126.351 181.869 126.008 182.483 125.397C183.097 124.785 183.442 123.956 183.442 123.092V119.665C184.598 119.663 185.707 119.204 186.523 118.389C187.34 117.574 187.799 116.47 187.799 115.319C187.799 114.168 187.34 113.064 186.523 112.249C185.707 111.434 184.598 110.975 183.442 110.973ZM183.442 117.993V112.644C184.154 112.644 184.838 112.926 185.342 113.428C185.845 113.929 186.128 114.61 186.128 115.319C186.128 116.028 185.845 116.708 185.342 117.21C184.838 117.712 184.154 117.993 183.442 117.993Z" fill="url(#paint0_linear)"/>
</g>
<path d="M182.902 111.496C182.114 111.496 181.343 111.729 180.688 112.165C180.032 112.601 179.521 113.221 179.219 113.946C178.918 114.671 178.839 115.469 178.993 116.239C179.146 117.008 179.526 117.715 180.084 118.27C180.641 118.825 181.351 119.203 182.124 119.356C182.898 119.51 183.699 119.431 184.428 119.131C185.156 118.83 185.778 118.322 186.216 117.669C186.655 117.017 186.888 116.249 186.888 115.465C186.888 114.412 186.468 113.403 185.721 112.659C184.973 111.914 183.959 111.496 182.902 111.496ZM182.902 117.906C182.417 117.906 181.943 117.763 181.539 117.495C181.136 117.227 180.822 116.845 180.636 116.399C180.45 115.953 180.402 115.462 180.496 114.988C180.591 114.514 180.825 114.079 181.168 113.738C181.511 113.396 181.948 113.164 182.424 113.069C182.899 112.975 183.393 113.024 183.841 113.208C184.289 113.393 184.672 113.706 184.942 114.108C185.211 114.509 185.355 114.982 185.355 115.465C185.355 116.112 185.097 116.733 184.637 117.191C184.177 117.649 183.553 117.906 182.902 117.906Z" fill="#F56500"/>
<path opacity="0.1" d="M182.902 111.496C182.114 111.496 181.343 111.729 180.688 112.165C180.032 112.601 179.521 113.221 179.219 113.946C178.918 114.671 178.839 115.469 178.993 116.239C179.146 117.008 179.526 117.715 180.084 118.27C180.641 118.825 181.351 119.203 182.124 119.356C182.898 119.51 183.699 119.431 184.428 119.131C185.156 118.83 185.778 118.322 186.216 117.669C186.655 117.017 186.888 116.249 186.888 115.465C186.888 114.412 186.468 113.403 185.721 112.659C184.973 111.914 183.959 111.496 182.902 111.496ZM182.902 117.906C182.417 117.906 181.943 117.763 181.539 117.495C181.136 117.227 180.822 116.845 180.636 116.399C180.45 115.953 180.402 115.462 180.496 114.988C180.591 114.514 180.825 114.079 181.168 113.738C181.511 113.396 181.948 113.164 182.424 113.069C182.899 112.975 183.393 113.024 183.841 113.208C184.289 113.393 184.672 113.706 184.942 114.108C185.211 114.509 185.355 114.982 185.355 115.465C185.355 116.112 185.097 116.733 184.637 117.191C184.177 117.649 183.553 117.906 182.902 117.906Z" fill="black"/>
<path d="M167.571 108.444H182.903V123.549C182.903 124.077 182.692 124.582 182.318 124.955C181.943 125.328 181.435 125.538 180.905 125.538H169.569C169.039 125.538 168.531 125.328 168.156 124.955C167.782 124.582 167.571 124.077 167.571 123.549V108.444Z" fill="#F56500"/>
<path d="M199 125.537H0V132.253H199V125.537Z" fill="#E0E0E0"/>
<g opacity="0.7">
<path opacity="0.7" d="M130.893 80.6053C128.76 72.8986 116.669 67.2708 107.571 66.0229C107.572 65.9661 107.575 65.9097 107.575 65.8525V59.2554C107.585 59.2519 107.595 59.2489 107.604 59.2454V58.9953C110.833 57.7999 113.747 55.8894 116.125 53.4082C118.503 50.927 120.283 47.9401 121.331 44.6732C121.894 43.6611 122.383 42.6106 122.796 41.5295C123.767 41.1775 124.501 39.5831 124.501 37.6674C124.504 37.0121 124.412 36.3598 124.227 35.731C124.346 34.7553 124.407 33.7734 124.409 32.7905C124.413 29.3546 123.691 25.9563 122.29 22.8161C120.889 19.6759 118.84 16.864 116.277 14.563C116.353 14.1683 116.379 13.7656 116.354 13.3645C116.148 10.1981 112.751 8.04691 109.566 7.90303C110.408 6.95317 110.961 5.78516 111.161 4.53479C111.362 3.28443 111.202 2.00307 110.7 0.839675C108.669 3.78424 104.501 4.09725 100.914 4.12041C102.462 3.52361 103.158 1.38836 102.258 0C98.5083 5.00313 91.199 5.92958 86.7392 10.3175C85.7677 11.2772 84.9534 12.3828 84.3262 13.5939C81.4279 15.8924 79.0879 18.8123 77.4805 22.136C75.8731 25.4597 75.0397 29.1017 75.0424 32.7905C75.0444 33.7645 75.1041 34.7375 75.2211 35.7045C75.0299 36.3413 74.9347 37.0028 74.9384 37.6674C74.9384 39.5919 75.6789 41.1912 76.6567 41.5334C77.0713 42.6182 77.563 43.6722 78.1281 44.6875C79.1724 47.9354 80.941 50.9062 83.3015 53.3777C85.662 55.8492 88.5533 57.7573 91.7591 58.9594V65.8525C91.7591 65.9056 91.7621 65.958 91.7631 66.0108C82.6306 67.2372 70.4425 72.9093 68.3286 80.678C66.5031 87.3869 64.5545 94.7548 63.585 99.0806C71.8954 104.894 89.3333 108.307 100.262 108.307C110.645 108.307 127.616 105.226 135.682 99.933C134.808 95.1799 132.798 87.4885 130.893 80.6053Z" fill="url(#paint1_linear)"/>
</g>
<path d="M100.24 106.393C110.256 106.393 126.628 103.421 134.408 98.3152C133.566 93.7301 131.627 86.3105 129.789 79.6705C127.449 71.2141 112.678 65.3516 103.867 65.3516H95.3764C86.5379 65.3516 71.7462 71.2481 69.4354 79.7407C67.6744 86.2125 65.7947 93.32 64.8594 97.4929C72.8761 103.101 89.6978 106.393 100.24 106.393Z" fill="#F56500"/>
<path d="M99.7231 57.2492C112.874 57.2492 123.534 46.6367 123.534 33.5455C123.534 20.4543 112.874 9.8418 99.7231 9.8418C86.5726 9.8418 75.9121 20.4543 75.9121 33.5455C75.9121 46.6367 86.5726 57.2492 99.7231 57.2492Z" fill="#72351C"/>
<path opacity="0.1" d="M92.0381 53.2886H107.295V65.4392C107.295 67.4533 106.491 69.3849 105.061 70.809C103.63 72.2332 101.69 73.0333 99.6666 73.0333H99.6666C97.6434 73.0333 95.703 72.2332 94.2724 70.809C92.8418 69.3849 92.0381 67.4533 92.0381 65.4392V53.2886H92.0381Z" fill="black"/>
<path d="M94.2265 52.7261H105.107C105.687 52.7261 106.244 52.9556 106.654 53.3642C107.065 53.7727 107.295 54.3268 107.295 54.9046V64.8767C107.295 66.8907 106.491 68.8223 105.061 70.2465C103.63 71.6707 101.69 72.4708 99.6666 72.4708H99.6666C97.6434 72.4708 95.703 71.6707 94.2724 70.2465C92.8418 68.8223 92.0381 66.8907 92.0381 64.8767V54.9046C92.0381 54.3268 92.2687 53.7727 92.6791 53.3642C93.0895 52.9556 93.6461 52.7261 94.2265 52.7261Z" fill="#FDA57D"/>
<path opacity="0.1" d="M92.0654 59.0235C96.9826 60.8524 102.395 60.8673 107.322 59.0655V57.1997H92.0654V59.0235Z" fill="black"/>
<path d="M99.7228 60.0404C111.8 60.0404 121.591 50.2937 121.591 38.2705C121.591 26.2474 111.8 16.5007 99.7228 16.5007C87.6453 16.5007 77.8545 26.2474 77.8545 38.2705C77.8545 50.2937 87.6453 60.0404 99.7228 60.0404Z" fill="#FDA57D"/>
<path opacity="0.1" d="M84.1455 18.4686C84.1455 18.4686 93.3617 37.0918 119.36 26.2739L113.307 16.8254L102.578 12.9912L84.1455 18.4686Z" fill="black"/>
<path d="M84.1455 18.1947C84.1455 18.1947 93.3617 36.8179 119.36 26L113.307 16.5515L102.578 12.7173L84.1455 18.1947Z" fill="#72351C"/>
<path d="M84.0639 16.9366C84.6851 15.0215 85.7589 13.2827 87.1951 11.8664C91.4973 7.63362 98.5483 6.73992 102.165 1.91357C103.034 3.25288 102.362 5.31268 100.869 5.88838C104.329 5.86604 108.35 5.5641 110.309 2.72358C110.793 3.84587 110.948 5.08195 110.754 6.28813C110.561 7.49431 110.027 8.62105 109.216 9.53735C112.287 9.67614 115.565 11.7513 115.763 14.8058C115.895 16.8407 114.614 18.7674 112.934 19.9344C111.254 21.1015 109.222 21.6372 107.221 22.0763C101.382 23.3579 80.2536 28.7297 84.0639 16.9366Z" fill="#72351C"/>
<path d="M121.59 38.4612H121.01L109.731 48.4575C98.864 43.3908 90.8858 48.4575 90.8858 48.4575L79.0561 38.872L77.8633 39.0212C78.025 44.7348 80.4375 50.1559 84.58 54.1139C88.7225 58.0718 94.2624 60.2491 100.004 60.1756C105.745 60.1021 111.227 57.7836 115.266 53.7209C119.304 49.6581 121.576 44.177 121.59 38.4612ZM99.6894 52.2916C95.4351 52.2916 91.9863 51.4333 91.9863 50.3746C91.9863 49.3158 95.4351 48.4575 99.6894 48.4575C103.944 48.4575 107.392 49.3158 107.392 50.3746C107.392 51.4333 103.944 52.2916 99.6894 52.2916Z" fill="#72351C"/>
<path d="M77.8458 42.047C78.9693 42.047 79.88 40.347 79.88 38.2499C79.88 36.1529 78.9693 34.4529 77.8458 34.4529C76.7223 34.4529 75.8115 36.1529 75.8115 38.2499C75.8115 40.347 76.7223 42.047 77.8458 42.047Z" fill="#FDA57D"/>
<path d="M121.588 42.047C122.711 42.047 123.622 40.347 123.622 38.2499C123.622 36.1529 122.711 34.4529 121.588 34.4529C120.464 34.4529 119.554 36.1529 119.554 38.2499C119.554 40.347 120.464 42.047 121.588 42.047Z" fill="#FDA57D"/>
<g opacity="0.7">
<path opacity="0.7" d="M138.844 77.0242H60.1559C58.5154 77.0242 57.1855 78.348 57.1855 79.9811V122.58C57.1855 124.213 58.5154 125.537 60.1559 125.537H138.844C140.484 125.537 141.814 124.213 141.814 122.58V79.9811C141.814 78.348 140.484 77.0242 138.844 77.0242Z" fill="url(#paint2_linear)"/>
</g>
<path d="M134.784 77.9194H64.2159C61.1799 77.9194 58.7188 80.3695 58.7188 83.3918V120.065C58.7188 123.087 61.1799 125.538 64.2159 125.538H134.784C137.82 125.538 140.281 123.087 140.281 120.065V83.3918C140.281 80.3695 137.82 77.9194 134.784 77.9194Z" fill="#535461"/>
<path d="M99.4999 104.476C101.024 104.476 102.259 103.246 102.259 101.728C102.259 100.211 101.024 98.9812 99.4999 98.9812C97.9758 98.9812 96.7402 100.211 96.7402 101.728C96.7402 103.246 97.9758 104.476 99.4999 104.476Z" fill="white"/>
<path d="M190.567 132.253H8.43164V135H190.567V132.253Z" fill="#E0E0E0"/>
<path opacity="0.1" d="M190.567 132.253H8.43164V133.169H190.567V132.253Z" fill="black"/>
<path opacity="0.1" d="M180.142 108.444V122.561C180.142 123.351 179.827 124.108 179.266 124.666C178.706 125.224 177.945 125.538 177.152 125.538H178.685C179.478 125.538 180.239 125.224 180.799 124.666C181.36 124.108 181.675 123.351 181.675 122.561V108.444H180.142Z" fill="black"/>
<path d="M170.596 97.0652C170.337 97.1093 170.046 97.1787 169.919 97.4074C169.718 97.7703 170.082 98.1795 170.415 98.4289C171.029 98.8896 171.677 99.3422 172.094 99.9853C172.512 100.628 172.643 101.526 172.187 102.142C171.591 102.947 170.168 103.12 170.031 104.11C169.942 104.746 170.495 105.289 171.054 105.608C172.435 106.395 174.215 106.605 175.216 107.838C175.629 106.99 176.555 106.501 177.478 106.292C178.4 106.083 179.359 106.098 180.294 105.956C180.596 105.911 180.936 105.819 181.071 105.546C181.333 105.018 180.588 104.384 180.845 103.854C181.04 103.45 181.616 103.482 182.036 103.32C182.719 103.057 183.001 102.181 182.807 101.477C182.613 100.773 182.065 100.223 181.488 99.772C179.935 98.5567 178.067 97.842 176.177 97.3279C175.298 97.0888 174.267 96.7139 173.354 96.6776C172.473 96.6426 171.468 96.9167 170.596 97.0652Z" fill="#EEEEEE"/>
</g>
<defs>
<linearGradient id="paint0_linear" x1="177.229" y1="126.351" x2="177.229" y2="107.63" gradientUnits="userSpaceOnUse">
<stop stop-color="#808080" stop-opacity="0.25"/>
<stop offset="0.53514" stop-color="#808080" stop-opacity="0.12"/>
<stop offset="1" stop-color="#808080" stop-opacity="0.1"/>
</linearGradient>
<linearGradient id="paint1_linear" x1="43368.6" y1="70410.9" x2="43368.6" y2="12888.5" gradientUnits="userSpaceOnUse">
<stop stop-color="#808080" stop-opacity="0.25"/>
<stop offset="0.53514" stop-color="#808080" stop-opacity="0.12"/>
<stop offset="1" stop-color="#808080" stop-opacity="0.1"/>
</linearGradient>
<linearGradient id="paint2_linear" x1="41163" y1="29941.6" x2="41163" y2="18400.6" gradientUnits="userSpaceOnUse">
<stop stop-color="#808080" stop-opacity="0.25"/>
<stop offset="0.53514" stop-color="#808080" stop-opacity="0.12"/>
<stop offset="1" stop-color="#808080" stop-opacity="0.1"/>
</linearGradient>
<clipPath id="clip0">
<rect width="199" height="135" fill="white"/>
</clipPath>
</defs>
</svg>
