<svg width="219" height="26" viewBox="0 0 219 26" fill="none" xmlns="http://www.w3.org/2000/svg">
<path fill-rule="evenodd" clip-rule="evenodd" d="M85.001 15.4375V1.625H94.1053V15.4375H85.001Z" fill="#FECF28"/>
<path fill-rule="evenodd" clip-rule="evenodd" d="M83.3457 2.4375V0H107.348V2.4375H83.3457Z" fill="#140E0A"/>
<path fill-rule="evenodd" clip-rule="evenodd" d="M94.1885 9.75V7.3125H109.914V9.75H94.1885Z" fill="#140E0A"/>
<path fill-rule="evenodd" clip-rule="evenodd" d="M83.3457 17.0625V14.625H107.348V17.0625H83.3457Z" fill="#140E0A"/>
<path fill-rule="evenodd" clip-rule="evenodd" d="M83.3457 26V23.5625H107.348V26H83.3457Z" fill="#140E0A"/>
<path fill-rule="evenodd" clip-rule="evenodd" d="M83.3457 26V11.375H85.8287V26H83.3457Z" fill="#140E0A"/>
<path fill-rule="evenodd" clip-rule="evenodd" d="M83.3457 14.625V0H85.8287V14.625H83.3457Z" fill="#140E0A"/>
<path fill-rule="evenodd" clip-rule="evenodd" d="M85.8291 23.5625V17.0625H98.2441V23.5625H85.8291Z" fill="#E24242"/>
<path fill-rule="evenodd" clip-rule="evenodd" d="M100.81 23.5625V17.0625H107.431V23.5625H100.81Z" fill="#0498CE"/>
<path fill-rule="evenodd" clip-rule="evenodd" d="M98.3262 26V17.0625H100.809V26H98.3262Z" fill="#140E0A"/>
<path fill-rule="evenodd" clip-rule="evenodd" d="M94.1885 15.8438V0.8125H96.6715V15.8438H94.1885Z" fill="#140E0A"/>
<path fill-rule="evenodd" clip-rule="evenodd" d="M107.431 26V0H109.914V26H107.431Z" fill="#140E0A"/>
<path d="M0 20.7187C0 20.9624 0.165533 21.1249 0.413832 21.1249H2.48299C2.73129 21.1249 2.89683 20.9624 2.89683 20.7187V14.7062H10.0975V20.7187C10.0975 20.9624 10.263 21.1249 10.5113 21.1249H12.5805C12.8288 21.1249 12.9943 20.9624 12.9943 20.7187V6.3374C12.9943 6.09365 12.8288 5.93115 12.5805 5.93115H10.5113C10.263 5.93115 10.0975 6.09365 10.0975 6.3374V12.1062H2.89683V6.3374C2.89683 6.09365 2.73129 5.93115 2.48299 5.93115H0.413832C0.165533 5.93115 0 6.09365 0 6.3374V20.7187Z" fill="#140E0A"/>
<path d="M16.6361 21.125H18.5397C18.8708 21.125 19.1191 20.8813 19.2019 20.7188L20.2778 18.3625H26.8991L27.9751 20.7188C28.1406 21.0437 28.3062 21.125 28.6372 21.125H30.5409C30.8719 21.125 31.0375 20.8812 30.9547 20.5562L24.1678 5.93125C24.0851 5.76875 24.0023 5.6875 23.754 5.6875H23.5057C23.3402 5.6875 23.1746 5.76875 23.0919 5.93125L16.2223 20.5562C16.1395 20.8812 16.305 21.125 16.6361 21.125ZM21.4365 15.925L23.5885 11.1312H23.6712L25.9059 15.925H21.4365Z" fill="#140E0A"/>
<path d="M34.2656 20.7187C34.2656 20.9624 34.4312 21.1249 34.6795 21.1249H36.7486C36.9969 21.1249 37.1625 20.9624 37.1625 20.7187V15.5999H39.8937C42.625 15.5999 44.8597 13.4062 44.8597 10.7249C44.8597 8.1249 42.625 5.93115 39.8937 5.93115H34.6795C34.4312 5.93115 34.2656 6.09365 34.2656 6.3374V20.7187ZM37.1625 12.9187V8.53115H39.7282C40.9697 8.53115 41.9629 9.4249 41.9629 10.6437C41.9629 11.9437 40.8869 12.9187 39.7282 12.9187H37.1625Z" fill="#140E0A"/>
<path d="M48.667 20.7187C48.667 20.9624 48.8325 21.1249 49.0808 21.1249H51.15C51.3983 21.1249 51.5638 20.9624 51.5638 20.7187V15.5999H54.2951C57.0264 15.5999 59.2611 13.4062 59.2611 10.7249C59.2611 8.1249 57.0264 5.93115 54.2951 5.93115H49.0808C48.8325 5.93115 48.667 6.09365 48.667 6.3374V20.7187ZM51.5638 12.9187V8.53115H54.1296C55.3711 8.53115 56.3643 9.4249 56.3643 10.6437C56.3643 11.9437 55.2883 12.9187 54.1296 12.9187H51.5638Z" fill="#140E0A"/>
<path d="M66.0475 20.7188C66.0475 20.9626 66.2131 21.1251 66.4614 21.1251H68.5305C68.7788 21.1251 68.9444 20.9626 68.9444 20.7188V13.8126L73.9931 6.5001C74.1586 6.25635 73.9931 5.8501 73.662 5.8501H71.4273C71.2618 5.8501 71.179 5.93135 71.0963 6.0126L67.5373 11.0501L63.9784 6.0126C63.8956 5.93135 63.8128 5.8501 63.6473 5.8501H61.4126C61.0815 5.8501 60.916 6.1751 61.0815 6.5001L66.1303 13.8126V20.7188H66.0475Z" fill="#140E0A"/>
<path d="M120.674 20.6376C120.674 20.8813 120.922 21.1251 121.17 21.1251H123.074C123.322 21.1251 123.571 20.8813 123.571 20.6376V13.9751L129.364 20.9626C129.447 21.0438 129.53 21.1251 129.778 21.1251H132.178C132.592 21.1251 132.758 20.6376 132.592 20.3938L126.385 13.0813L132.178 6.6626C132.427 6.3376 132.261 5.8501 131.847 5.8501H129.613C129.447 5.8501 129.282 5.93135 129.199 6.09385L123.653 12.2688V6.41885C123.653 6.1751 123.405 5.93135 123.157 5.93135H121.253C120.922 5.93135 120.757 6.1751 120.757 6.41885V20.6376H120.674Z" fill="#140E0A"/>
<path d="M136.399 20.7187C136.399 20.9624 136.565 21.1249 136.813 21.1249H138.882C139.131 21.1249 139.296 20.9624 139.296 20.7187V6.3374C139.296 6.09365 139.131 5.93115 138.882 5.93115H136.813C136.565 5.93115 136.399 6.09365 136.399 6.3374V20.7187Z" fill="#140E0A"/>
<path d="M146.745 20.7187C146.745 20.9624 146.91 21.1249 147.159 21.1249H149.228C149.476 21.1249 149.642 20.9624 149.642 20.7187V8.53115H153.035C153.283 8.53115 153.449 8.36865 153.449 8.1249V6.3374C153.449 6.09365 153.283 5.93115 153.035 5.93115H143.351C143.103 5.93115 142.938 6.09365 142.938 6.3374V8.1249C142.938 8.36865 143.103 8.53115 143.351 8.53115H146.745V20.7187Z" fill="#140E0A"/>
<path d="M155.767 13.5688C155.767 17.9563 159.326 21.3687 163.712 21.3687C165.699 21.3687 167.602 20.7188 169.092 19.2563C169.258 19.0938 169.258 18.85 169.092 18.6875L167.685 17.3062C167.519 17.1437 167.271 17.1437 167.106 17.3062C166.195 18.0375 165.036 18.525 163.712 18.525C160.898 18.525 158.746 16.25 158.746 13.4875C158.746 10.725 160.815 8.45 163.712 8.45C164.954 8.45 166.195 8.9375 167.106 9.75C167.271 9.9125 167.519 9.9125 167.685 9.75L169.009 8.36875C169.175 8.20625 169.175 7.9625 169.009 7.71875C167.519 6.41875 165.864 5.6875 163.629 5.6875C159.326 5.6875 155.767 9.18125 155.767 13.5688Z" fill="#140E0A"/>
<path d="M173.312 20.7187C173.312 20.9624 173.478 21.1249 173.726 21.1249H175.795C176.044 21.1249 176.209 20.9624 176.209 20.7187V14.7062H183.41V20.7187C183.41 20.9624 183.576 21.1249 183.824 21.1249H185.893C186.141 21.1249 186.307 20.9624 186.307 20.7187V6.3374C186.307 6.09365 186.141 5.93115 185.893 5.93115H183.824C183.576 5.93115 183.41 6.09365 183.41 6.3374V12.1062H176.209V6.3374C176.209 6.09365 176.044 5.93115 175.795 5.93115H173.726C173.478 5.93115 173.312 6.09365 173.312 6.3374V20.7187Z" fill="#140E0A"/>
<path d="M191.687 20.7187C191.687 20.9624 191.853 21.1249 192.101 21.1249H201.123C201.371 21.1249 201.536 20.9624 201.536 20.7187V18.9312C201.536 18.6874 201.371 18.5249 201.123 18.5249H194.501V14.7062H199.964C200.212 14.7062 200.378 14.5437 200.378 14.2999V12.5124C200.378 12.2687 200.212 12.1062 199.964 12.1062H194.501V8.53115H201.04C201.288 8.53115 201.454 8.36865 201.454 8.1249V6.3374C201.454 6.09365 201.288 5.93115 201.04 5.93115H192.018C191.77 5.93115 191.604 6.09365 191.604 6.3374V20.7187H191.687Z" fill="#140E0A"/>
<path d="M205.923 20.7188C205.923 20.9625 206.088 21.125 206.337 21.125H208.323C208.571 21.125 208.737 20.9625 208.737 20.7188V11.375L218.007 21.3687H218.503C218.752 21.3687 218.917 21.2062 218.917 20.9625V6.3375C218.917 6.09375 218.752 5.93125 218.503 5.93125H216.434C216.186 5.93125 216.02 6.09375 216.02 6.3375V15.3562L206.916 5.6875H206.337C206.088 5.6875 205.923 5.85 205.923 6.09375V20.7188Z" fill="#140E0A"/>
</svg>
