<svg width="20" height="20" viewBox="0 0 20 20" fill="none" xmlns="http://www.w3.org/2000/svg">
<path fill-rule="evenodd" clip-rule="evenodd" d="M1 18V1H19V18H1Z" fill="#FECF28"/>
<path fill-rule="evenodd" clip-rule="evenodd" d="M0.255859 1.875V0H18.0353V1.875H0.255859Z" fill="#8E8E8E"/>
<path fill-rule="evenodd" clip-rule="evenodd" d="M8.28711 7.5V5.625H19.9357V7.5H8.28711Z" fill="#8E8E8E"/>
<path fill-rule="evenodd" clip-rule="evenodd" d="M0.255859 13.125V11.25H18.0353V13.125H0.255859Z" fill="#8E8E8E"/>
<path fill-rule="evenodd" clip-rule="evenodd" d="M0.255859 20V18.125H18.0353V20H0.255859Z" fill="#8E8E8E"/>
<path fill-rule="evenodd" clip-rule="evenodd" d="M0.255859 20V8.75H2.09511V20H0.255859Z" fill="#8E8E8E"/>
<path fill-rule="evenodd" clip-rule="evenodd" d="M0.255859 11.25V0H2.09511V11.25H0.255859Z" fill="#8E8E8E"/>
<path fill-rule="evenodd" clip-rule="evenodd" d="M11.3525 20V13.125H13.1918V20H11.3525Z" fill="#8E8E8E"/>
<path fill-rule="evenodd" clip-rule="evenodd" d="M8.28711 12.1875V0.625H10.1264V12.1875H8.28711Z" fill="#8E8E8E"/>
<path fill-rule="evenodd" clip-rule="evenodd" d="M18.0967 20V0H19.9359V20H18.0967Z" fill="#8E8E8E"/>
</svg>
