<svg width="119" height="42" viewBox="0 0 119 42" fill="none" xmlns="http://www.w3.org/2000/svg">
<path fill-rule="evenodd" clip-rule="evenodd" d="M2.66113 24.9608V2.54089H17.0003V24.9608H2.66113Z" fill="#FECF28"/>
<path fill-rule="evenodd" clip-rule="evenodd" d="M0 3.88612V0H37.6957V3.88612H0Z" fill="#140E0A"/>
<path fill-rule="evenodd" clip-rule="evenodd" d="M16.8525 15.8434V11.8079H41.5395V15.694H16.8525V15.8434Z" fill="#140E0A"/>
<path fill-rule="evenodd" clip-rule="evenodd" d="M0 27.6513V23.7651H37.6957V27.6513H0Z" fill="#140E0A"/>
<path fill-rule="evenodd" clip-rule="evenodd" d="M0 42V38.1139H37.6957V42H0Z" fill="#140E0A"/>
<path fill-rule="evenodd" clip-rule="evenodd" d="M0 42V18.3843H3.84348V42H0Z" fill="#140E0A"/>
<path fill-rule="evenodd" clip-rule="evenodd" d="M0 23.6157V0H3.84348V23.6157H0Z" fill="#140E0A"/>
<path fill-rule="evenodd" clip-rule="evenodd" d="M3.84375 38.1139V27.6512H23.3568V38.1139H3.84375Z" fill="#E24242"/>
<path fill-rule="evenodd" clip-rule="evenodd" d="M27.3477 38.1139V27.6512H37.6955V38.1139H27.3477Z" fill="#0498CE"/>
<path fill-rule="evenodd" clip-rule="evenodd" d="M23.3564 42V27.5018H27.1999V42H23.3564Z" fill="#140E0A"/>
<path fill-rule="evenodd" clip-rule="evenodd" d="M16.8525 25.7082V1.34521H20.696V25.7082H16.8525Z" fill="#140E0A"/>
<path fill-rule="evenodd" clip-rule="evenodd" d="M37.6953 42V0H41.5388V42H37.6953Z" fill="#140E0A"/>
<path d="M54.4004 19.2811C54.4004 19.4306 54.5482 19.5801 54.696 19.5801H56.0265C56.1743 19.5801 56.3221 19.4306 56.3221 19.2811V15.2456H61.0526V19.2811C61.0526 19.4306 61.2004 19.5801 61.3482 19.5801H62.6787C62.8265 19.5801 62.9743 19.4306 62.9743 19.2811V9.56584C62.9743 9.41637 62.8265 9.26691 62.6787 9.26691H61.3482C61.2004 9.26691 61.0526 9.41637 61.0526 9.56584V13.452H56.3221V9.56584C56.3221 9.41637 56.1743 9.26691 56.0265 9.26691H54.696C54.5482 9.26691 54.4004 9.41637 54.4004 9.56584V19.2811Z" fill="#140E0A"/>
<path d="M65.3396 19.5801H66.6701C66.9657 19.5801 66.9657 19.4306 67.1136 19.2811L67.8527 17.637H72.1396L72.8788 19.2811C73.0266 19.4306 73.0266 19.5801 73.3222 19.5801H74.6527C74.8005 19.5801 74.9483 19.4306 74.9483 19.1317L70.5136 9.2669C70.5136 9.11743 70.3657 9.11743 70.2179 9.11743H70.0701C69.9222 9.11743 69.9222 9.11743 69.7744 9.2669L65.3396 19.1317C65.044 19.4306 65.1918 19.5801 65.3396 19.5801ZM68.444 15.9929L69.9222 12.7046L71.4005 15.9929H68.444Z" fill="#140E0A"/>
<path d="M77.0176 19.2811C77.0176 19.4306 77.1654 19.5801 77.3132 19.5801H78.6437C78.7915 19.5801 78.9393 19.4306 78.9393 19.2811V15.8434H80.7132C82.4871 15.8434 83.9654 14.3488 83.9654 12.5552C83.9654 10.7616 82.4871 9.26691 80.7132 9.26691H77.3132C77.1654 9.26691 77.0176 9.41637 77.0176 9.56584V19.2811ZM78.7915 14.0498V11.0605H80.4176C81.1567 11.0605 81.8958 11.6584 81.8958 12.5552C81.8958 13.452 81.1567 14.0498 80.4176 14.0498H78.7915Z" fill="#140E0A"/>
<path d="M86.3311 19.2811C86.3311 19.4306 86.4789 19.5801 86.6267 19.5801H87.9571C88.105 19.5801 88.2528 19.4306 88.2528 19.2811V15.8434H90.0267C91.8006 15.8434 93.2789 14.3488 93.2789 12.5552C93.2789 10.7616 91.8006 9.26691 90.0267 9.26691H86.6267C86.4789 9.26691 86.3311 9.41637 86.3311 9.56584V19.2811ZM88.2528 14.0498V11.0605H89.8789C90.618 11.0605 91.3571 11.6584 91.3571 12.5552C91.3571 13.452 90.618 14.0498 89.8789 14.0498H88.2528Z" fill="#140E0A"/>
<path d="M97.7129 19.2811C97.7129 19.4306 97.8607 19.5801 98.0085 19.5801H99.3389C99.4868 19.5801 99.6346 19.4306 99.6346 19.2811V14.6477L103.035 9.71531C103.182 9.56584 103.035 9.26691 102.739 9.26691H101.261C101.113 9.26691 101.113 9.26691 100.965 9.41637L98.5998 12.8541L96.2346 9.41637C96.2346 9.41637 96.0868 9.26691 95.939 9.26691H94.4607C94.165 9.26691 94.165 9.56584 94.165 9.71531L97.4172 14.6477V19.2811H97.7129Z" fill="#140E0A"/>
<path d="M54.4004 33.1815C54.4004 33.3309 54.5482 33.4804 54.696 33.4804H56.0265C56.1743 33.4804 56.3221 33.3309 56.3221 33.1815V28.6975L60.1656 33.4804C60.1656 33.4804 60.3134 33.6299 60.4613 33.6299H62.0873C62.383 33.6299 62.5308 33.3309 62.383 33.1815L58.3917 28.2491L62.2352 23.9146C62.383 23.7651 62.2352 23.3167 61.9395 23.3167H60.4613C60.3134 23.3167 60.3134 23.3167 60.1656 23.4662L56.47 27.6512V23.6156C56.47 23.4662 56.3221 23.3167 56.1743 23.3167H54.8439C54.696 23.3167 54.5482 23.4662 54.5482 23.6156V33.1815H54.4004Z" fill="#140E0A"/>
<path d="M64.748 33.1815C64.748 33.3309 64.8959 33.4804 65.0437 33.4804H66.3741C66.522 33.4804 66.6698 33.3309 66.6698 33.1815V23.4662C66.6698 23.3167 66.522 23.1672 66.3741 23.1672H65.0437C64.8959 23.1672 64.748 23.3167 64.748 23.4662V33.1815Z" fill="#140E0A"/>
<path d="M71.5482 33.1815C71.5482 33.3309 71.696 33.4804 71.8438 33.4804H73.1743C73.3221 33.4804 73.4699 33.3309 73.4699 33.1815V24.9608H75.6873C75.8352 24.9608 75.983 24.8114 75.983 24.6619V23.4662C75.983 23.3167 75.8352 23.1672 75.6873 23.1672H69.3308C69.183 23.1672 69.0352 23.3167 69.0352 23.4662V24.6619C69.0352 24.8114 69.183 24.9608 69.3308 24.9608H71.5482V33.1815Z" fill="#140E0A"/>
<path d="M77.4609 28.3986C77.4609 31.3879 79.8262 33.6299 82.6348 33.6299C83.9653 33.6299 85.1479 33.1815 86.1827 32.1353C86.3305 31.9858 86.3305 31.8363 86.1827 31.6869L85.2957 30.7901C85.1479 30.6406 85.0001 30.6406 85.0001 30.7901C84.4088 31.2385 83.6696 31.6869 82.7827 31.6869C80.8609 31.6869 79.5305 30.1922 79.5305 28.2491C79.5305 26.4555 80.8609 24.8114 82.7827 24.8114C83.5218 24.8114 84.4088 25.1104 85.0001 25.7082C85.1479 25.8577 85.2957 25.8577 85.2957 25.7082L86.1827 24.8114C86.3305 24.662 86.3305 24.5125 86.1827 24.363C85.1479 23.4662 84.1131 23.0178 82.6348 23.0178C79.8262 23.0178 77.4609 25.4093 77.4609 28.3986Z" fill="#140E0A"/>
<path d="M88.9912 33.1815C88.9912 33.3309 89.139 33.4804 89.2869 33.4804H90.6173C90.7651 33.4804 90.9129 33.3309 90.9129 33.1815V29.1459H95.6434V33.1815C95.6434 33.3309 95.7912 33.4804 95.939 33.4804H97.2695C97.4173 33.4804 97.5651 33.3309 97.5651 33.1815V23.4662C97.5651 23.3167 97.4173 23.1672 97.2695 23.1672H95.939C95.7912 23.1672 95.6434 23.3167 95.6434 23.4662V27.3523H90.9129V23.4662C90.9129 23.3167 90.7651 23.1672 90.6173 23.1672H89.2869C89.139 23.1672 88.9912 23.3167 88.9912 23.4662V33.1815Z" fill="#140E0A"/>
<path d="M100.965 33.1815C100.965 33.3309 101.113 33.4804 101.26 33.4804H107.174C107.321 33.4804 107.469 33.3309 107.469 33.1815V31.9857C107.469 31.8363 107.321 31.6868 107.174 31.6868H102.887V29.1459H106.434C106.582 29.1459 106.73 28.9964 106.73 28.847V27.6512C106.73 27.5018 106.582 27.3523 106.434 27.3523H102.887V24.9608H107.174C107.321 24.9608 107.469 24.8114 107.469 24.6619V23.4662C107.469 23.3167 107.321 23.1672 107.174 23.1672H101.26C101.113 23.1672 100.965 23.3167 100.965 23.4662V33.1815Z" fill="#140E0A"/>
<path d="M110.426 33.1815C110.426 33.3309 110.574 33.4804 110.721 33.4804H112.052C112.2 33.4804 112.348 33.3309 112.348 33.1815V26.9039L118.408 33.6299H118.704C118.852 33.6299 119 33.4804 119 33.3309V23.4662C119 23.3167 118.852 23.1672 118.704 23.1672H117.374C117.226 23.1672 117.078 23.3167 117.078 23.4662V29.5943L111.017 23.1672H110.721C110.574 23.1672 110.426 23.3167 110.426 23.4662V33.1815Z" fill="#140E0A"/>
</svg>
