<svg width="20" height="20" viewBox="0 0 20 20" fill="none" xmlns="http://www.w3.org/2000/svg">
<path d="M4.37481 3.125C4.37481 2.95924 4.30896 2.80027 4.19175 2.68306C4.07454 2.56585 3.91557 2.5 3.74981 2.5C3.58405 2.5 3.42508 2.56585 3.30787 2.68306C3.19066 2.80027 3.12481 2.95924 3.12481 3.125V14.1163L1.69231 12.6825C1.57495 12.5651 1.41578 12.4992 1.24981 12.4992C1.08384 12.4992 0.924671 12.5651 0.807313 12.6825C0.689955 12.7999 0.624023 12.959 0.624023 13.125C0.624023 13.291 0.689955 13.4501 0.807313 13.5675L3.30731 16.0662L3.31606 16.075C3.43341 16.1894 3.59121 16.2528 3.75511 16.2514C3.919 16.25 4.0757 16.1839 4.19106 16.0675L6.69106 13.5675C6.74917 13.5095 6.79528 13.4406 6.82676 13.3647C6.85824 13.2889 6.87448 13.2076 6.87453 13.1254C6.87459 13.0433 6.85847 12.962 6.8271 12.8861C6.79573 12.8102 6.74971 12.7412 6.69169 12.6831C6.63366 12.625 6.56475 12.5789 6.4889 12.5474C6.41306 12.5159 6.33175 12.4997 6.24963 12.4997C6.16751 12.4996 6.08618 12.5157 6.01029 12.5471C5.93439 12.5785 5.86542 12.6245 5.80731 12.6825L4.37481 14.1163V3.125ZM8.74981 4.375C8.74981 4.20924 8.81566 4.05027 8.93287 3.93306C9.05008 3.81585 9.20905 3.75 9.37481 3.75H18.1248C18.2906 3.75 18.4495 3.81585 18.5668 3.93306C18.684 4.05027 18.7498 4.20924 18.7498 4.375C18.7498 4.54076 18.684 4.69973 18.5668 4.81694C18.4495 4.93415 18.2906 5 18.1248 5H9.37481C9.20905 5 9.05008 4.93415 8.93287 4.81694C8.81566 4.69973 8.74981 4.54076 8.74981 4.375ZM9.37481 7.5C9.20905 7.5 9.05008 7.56585 8.93287 7.68306C8.81566 7.80027 8.74981 7.95924 8.74981 8.125C8.74981 8.29076 8.81566 8.44973 8.93287 8.56694C9.05008 8.68415 9.20905 8.75 9.37481 8.75H15.6248C15.7906 8.75 15.9495 8.68415 16.0668 8.56694C16.184 8.44973 16.2498 8.29076 16.2498 8.125C16.2498 7.95924 16.184 7.80027 16.0668 7.68306C15.9495 7.56585 15.7906 7.5 15.6248 7.5H9.37481ZM9.37481 11.25C9.20905 11.25 9.05008 11.3158 8.93287 11.4331C8.81566 11.5503 8.74981 11.7092 8.74981 11.875C8.74981 12.0408 8.81566 12.1997 8.93287 12.3169C9.05008 12.4342 9.20905 12.5 9.37481 12.5H13.1248C13.2906 12.5 13.4495 12.4342 13.5668 12.3169C13.684 12.1997 13.7498 12.0408 13.7498 11.875C13.7498 11.7092 13.684 11.5503 13.5668 11.4331C13.4495 11.3158 13.2906 11.25 13.1248 11.25H9.37481ZM9.37481 15C9.20905 15 9.05008 15.0658 8.93287 15.1831C8.81566 15.3003 8.74981 15.4592 8.74981 15.625C8.74981 15.7908 8.81566 15.9497 8.93287 16.0669C9.05008 16.1842 9.20905 16.25 9.37481 16.25H10.6248C10.7906 16.25 10.9495 16.1842 11.0668 16.0669C11.184 15.9497 11.2498 15.7908 11.2498 15.625C11.2498 15.4592 11.184 15.3003 11.0668 15.1831C10.9495 15.0658 10.7906 15 10.6248 15H9.37481Z" fill="#2E3831"/>
</svg>
